<svg xmlns="http://www.w3.org/2000/svg" viewBox="0 0 400 400">
  <rect width="400" height="400" rx="40" fill="#0f172a"/>
  <!-- Grid dots -->
  <g fill="#475569" opacity="0.3">
    <circle cx="50" cy="50" r="3"/><circle cx="130" cy="50" r="3"/><circle cx="210" cy="50" r="3"/><circle cx="290" cy="50" r="3"/><circle cx="370" cy="50" r="3"/>
    <circle cx="50" cy="130" r="3"/><circle cx="130" cy="130" r="3"/><circle cx="290" cy="130" r="3"/><circle cx="370" cy="130" r="3"/>
    <circle cx="50" cy="210" r="3"/><circle cx="370" cy="210" r="3"/>
    <circle cx="50" cy="290" r="3"/><circle cx="130" cy="290" r="3"/><circle cx="290" cy="290" r="3"/><circle cx="370" cy="290" r="3"/>
    <circle cx="50" cy="370" r="3"/><circle cx="130" cy="370" r="3"/><circle cx="210" cy="370" r="3"/><circle cx="290" cy="370" r="3"/><circle cx="370" cy="370" r="3"/>
  </g>
  <!-- R letterform -->
  <path d="M 80 330 V 100 H 180 A 50 50 0 0 1 180 200 H 80 M 120 200 L 200 330" fill="none" stroke="#38bdf8" stroke-width="18" stroke-linecap="round" stroke-linejoin="round"/>
  <!-- W letterform -->
  <path d="M 220 100 L 250 330 L 300 200 L 350 330 L 380 100" fill="none" stroke="#38bdf8" stroke-width="18" stroke-linecap="round" stroke-linejoin="round"/>
  <!-- Nodes -->
  <circle cx="80" cy="100" r="12" fill="#fff"/>
  <circle cx="180" cy="150" r="12" fill="#fff"/>
  <circle cx="200" cy="330" r="12" fill="#fff"/>
  <circle cx="220" cy="100" r="12" fill="#fff"/>
  <circle cx="300" cy="200" r="12" fill="#fff"/>
  <circle cx="380" cy="100" r="12" fill="#fff"/>
</svg>
