<svg viewBox="0 0 130 130" xmlns="http://www.w3.org/2000/svg">
  <!-- Distributed network grid -->
  <g fill="#475569" opacity="0.4">
    <circle cx="15" cy="15" r="1.5"/><circle cx="15" cy="35" r="1.5"/><circle cx="15" cy="55" r="1.5"/><circle cx="15" cy="75" r="1.5"/><circle cx="15" cy="95" r="1.5"/><circle cx="15" cy="115" r="1.5"/>
    <circle cx="35" cy="15" r="1.5"/><circle cx="35" cy="35" r="1.5"/><circle cx="35" cy="55" r="1.5"/><circle cx="35" cy="75" r="1.5"/><circle cx="35" cy="95" r="1.5"/><circle cx="35" cy="115" r="1.5"/>
    <circle cx="55" cy="15" r="1.5"/><circle cx="55" cy="35" r="1.5"/><circle cx="55" cy="55" r="1.5"/><circle cx="55" cy="75" r="1.5"/><circle cx="55" cy="95" r="1.5"/><circle cx="55" cy="115" r="1.5"/>
    <circle cx="75" cy="15" r="1.5"/><circle cx="75" cy="35" r="1.5"/><circle cx="75" cy="55" r="1.5"/><circle cx="75" cy="75" r="1.5"/><circle cx="75" cy="95" r="1.5"/><circle cx="75" cy="115" r="1.5"/>
    <circle cx="95" cy="15" r="1.5"/><circle cx="95" cy="35" r="1.5"/><circle cx="95" cy="55" r="1.5"/><circle cx="95" cy="75" r="1.5"/><circle cx="95" cy="95" r="1.5"/><circle cx="95" cy="115" r="1.5"/>
    <circle cx="115" cy="15" r="1.5"/><circle cx="115" cy="35" r="1.5"/><circle cx="115" cy="55" r="1.5"/><circle cx="115" cy="75" r="1.5"/><circle cx="115" cy="95" r="1.5"/><circle cx="115" cy="115" r="1.5"/>
  </g>
  <!-- R letterform -->
  <path d="M 25 105 V 35 H 55 A 15 15 0 0 1 55 65 H 25 M 40 65 L 60 105" fill="none" stroke="#38bdf8" stroke-width="6" stroke-linecap="round" stroke-linejoin="round" />
  <!-- W letterform -->
  <path d="M 70 35 L 80 105 L 95 65 L 110 105 L 120 35" fill="none" stroke="#38bdf8" stroke-width="6" stroke-linecap="round" stroke-linejoin="round" />
  <!-- Manufacturing nodes -->
  <circle cx="25" cy="35" r="4" fill="#fff" />
  <circle cx="55" cy="50" r="4" fill="#fff" />
  <circle cx="60" cy="105" r="4" fill="#fff" />
  <circle cx="70" cy="35" r="4" fill="#fff" />
  <circle cx="95" cy="65" r="4" fill="#fff" />
  <circle cx="120" cy="35" r="4" fill="#fff" />
</svg>
