solid OpenSCAD_Model
  facet normal 0.994522 0.104523 0
    outer loop
      vertex 40 18 10
      vertex 39.9563 18.4158 0
      vertex 39.9563 18.4158 10
    endloop
  endfacet
  facet normal 0.994522 0.104523 0
    outer loop
      vertex 39.9563 18.4158 0
      vertex 40 18 10
      vertex 40 18 0
    endloop
  endfacet
  facet normal -1 0 0
    outer loop
      vertex 0 2 0
      vertex 0 18 10
      vertex 0 18 0
    endloop
  endfacet
  facet normal -1 -0 0
    outer loop
      vertex 0 18 10
      vertex 0 2 0
      vertex 0 2 10
    endloop
  endfacet
  facet normal -0.866027 0.499997 0
    outer loop
      vertex 0.172909 18.8135 0
      vertex 0.381966 19.1756 10
      vertex 0.381966 19.1756 0
    endloop
  endfacet
  facet normal -0.866027 0.499997 0
    outer loop
      vertex 0.381966 19.1756 10
      vertex 0.172909 18.8135 0
      vertex 0.172909 18.8135 10
    endloop
  endfacet
  facet normal 0.406708 -0.913558 0
    outer loop
      vertex 38.618 0.0978861 0
      vertex 39 0.267949 10
      vertex 38.618 0.0978861 10
    endloop
  endfacet
  facet normal 0.406708 -0.913558 0
    outer loop
      vertex 39 0.267949 10
      vertex 38.618 0.0978861 0
      vertex 39 0.267949 0
    endloop
  endfacet
  facet normal 0.587645 0.809119 -0
    outer loop
      vertex 39.3383 19.4863 0
      vertex 39 19.732 10
      vertex 39.3383 19.4863 10
    endloop
  endfacet
  facet normal 0.587645 0.809119 0
    outer loop
      vertex 39 19.732 10
      vertex 39.3383 19.4863 0
      vertex 39 19.732 0
    endloop
  endfacet
  facet normal 0.207948 -0.97814 0
    outer loop
      vertex 38.2091 0.0109558 0
      vertex 38.618 0.0978861 10
      vertex 38.2091 0.0109558 10
    endloop
  endfacet
  facet normal 0.207948 -0.97814 0
    outer loop
      vertex 38.618 0.0978861 10
      vertex 38.2091 0.0109558 0
      vertex 38.618 0.0978861 0
    endloop
  endfacet
  facet normal 0 -1 0
    outer loop
      vertex 1.79094 0.0109558 0
      vertex 38.2091 0.0109558 10
      vertex 1.79094 0.0109558 10
    endloop
  endfacet
  facet normal 0 -1 -0
    outer loop
      vertex 38.2091 0.0109558 10
      vertex 1.79094 0.0109558 0
      vertex 38.2091 0.0109558 0
    endloop
  endfacet
  facet normal -0.207914 -0.978147 0
    outer loop
      vertex 1.38197 0.0978861 0
      vertex 1.79094 0.0109558 10
      vertex 1.38197 0.0978861 10
    endloop
  endfacet
  facet normal -0.207914 -0.978147 -0
    outer loop
      vertex 1.79094 0.0109558 10
      vertex 1.38197 0.0978861 0
      vertex 1.79094 0.0109558 0
    endloop
  endfacet
  facet normal 0.207879 0.978155 -0
    outer loop
      vertex 38.618 19.9021 0
      vertex 38.2091 19.989 10
      vertex 38.618 19.9021 10
    endloop
  endfacet
  facet normal 0.207879 0.978155 0
    outer loop
      vertex 38.2091 19.989 10
      vertex 38.618 19.9021 0
      vertex 38.2091 19.989 0
    endloop
  endfacet
  facet normal 0 1 -0
    outer loop
      vertex 38.2091 19.989 0
      vertex 1.79094 19.989 10
      vertex 38.2091 19.989 10
    endloop
  endfacet
  facet normal 0 1 0
    outer loop
      vertex 1.79094 19.989 10
      vertex 38.2091 19.989 0
      vertex 1.79094 19.989 0
    endloop
  endfacet
  facet normal -0.587784 -0.809018 0
    outer loop
      vertex 0.661738 0.51371 0
      vertex 1 0.267949 10
      vertex 0.661738 0.51371 10
    endloop
  endfacet
  facet normal -0.587784 -0.809018 -0
    outer loop
      vertex 1 0.267949 10
      vertex 0.661738 0.51371 0
      vertex 1 0.267949 0
    endloop
  endfacet
  facet normal -0.587689 0.809087 0
    outer loop
      vertex 1 19.732 0
      vertex 0.661738 19.4863 10
      vertex 1 19.732 10
    endloop
  endfacet
  facet normal -0.587689 0.809087 0
    outer loop
      vertex 0.661738 19.4863 10
      vertex 1 19.732 0
      vertex 0.661738 19.4863 0
    endloop
  endfacet
  facet normal 0.95106 -0.309008 0
    outer loop
      vertex 39.8271 1.18653 10
      vertex 39.9563 1.58418 0
      vertex 39.9563 1.58418 10
    endloop
  endfacet
  facet normal 0.95106 -0.309008 0
    outer loop
      vertex 39.9563 1.58418 0
      vertex 39.8271 1.18653 10
      vertex 39.8271 1.18653 0
    endloop
  endfacet
  facet normal 1 -0 0
    outer loop
      vertex 40 2 10
      vertex 40 18 0
      vertex 40 18 10
    endloop
  endfacet
  facet normal 1 0 0
    outer loop
      vertex 40 18 0
      vertex 40 2 10
      vertex 40 2 0
    endloop
  endfacet
  facet normal -0.406734 -0.913546 0
    outer loop
      vertex 1 0.267949 0
      vertex 1.38197 0.0978861 10
      vertex 1 0.267949 10
    endloop
  endfacet
  facet normal -0.406734 -0.913546 -0
    outer loop
      vertex 1.38197 0.0978861 10
      vertex 1 0.267949 0
      vertex 1.38197 0.0978861 0
    endloop
  endfacet
  facet normal 0.743231 -0.669035 0
    outer loop
      vertex 39.3383 0.51371 10
      vertex 39.618 0.824429 0
      vertex 39.618 0.824429 10
    endloop
  endfacet
  facet normal 0.743231 -0.669035 0
    outer loop
      vertex 39.618 0.824429 0
      vertex 39.3383 0.51371 10
      vertex 39.3383 0.51371 0
    endloop
  endfacet
  facet normal -0.994522 -0.104527 0
    outer loop
      vertex 0.043704 1.58418 0
      vertex 0 2 10
      vertex 0 2 0
    endloop
  endfacet
  facet normal -0.994522 -0.104527 0
    outer loop
      vertex 0 2 10
      vertex 0.043704 1.58418 0
      vertex 0.043704 1.58418 10
    endloop
  endfacet
  facet normal -0.406808 0.913513 0
    outer loop
      vertex 1.38197 19.9021 0
      vertex 1 19.732 10
      vertex 1.38197 19.9021 10
    endloop
  endfacet
  facet normal -0.406808 0.913513 0
    outer loop
      vertex 1 19.732 10
      vertex 1.38197 19.9021 0
      vertex 1 19.732 0
    endloop
  endfacet
  facet normal 0.406782 0.913525 -0
    outer loop
      vertex 39 19.732 0
      vertex 38.618 19.9021 10
      vertex 39 19.732 10
    endloop
  endfacet
  facet normal 0.406782 0.913525 0
    outer loop
      vertex 38.618 19.9021 10
      vertex 39 19.732 0
      vertex 38.618 19.9021 0
    endloop
  endfacet
  facet normal -0.207845 0.978162 0
    outer loop
      vertex 1.79094 19.989 0
      vertex 1.38197 19.9021 10
      vertex 1.79094 19.989 10
    endloop
  endfacet
  facet normal -0.207845 0.978162 0
    outer loop
      vertex 1.38197 19.9021 10
      vertex 1.79094 19.989 0
      vertex 1.38197 19.9021 0
    endloop
  endfacet
  facet normal -0.743146 -0.66913 0
    outer loop
      vertex 0.661738 0.51371 0
      vertex 0.381966 0.824429 10
      vertex 0.381966 0.824429 0
    endloop
  endfacet
  facet normal -0.743146 -0.66913 0
    outer loop
      vertex 0.381966 0.824429 10
      vertex 0.661738 0.51371 0
      vertex 0.661738 0.51371 10
    endloop
  endfacet
  facet normal 0.994523 -0.104518 0
    outer loop
      vertex 39.9563 1.58418 10
      vertex 40 2 0
      vertex 40 2 10
    endloop
  endfacet
  facet normal 0.994523 -0.104518 0
    outer loop
      vertex 40 2 0
      vertex 39.9563 1.58418 10
      vertex 39.9563 1.58418 0
    endloop
  endfacet
  facet normal 0.865983 -0.500073 0
    outer loop
      vertex 39.618 0.824429 10
      vertex 39.8271 1.18653 0
      vertex 39.8271 1.18653 10
    endloop
  endfacet
  facet normal 0.865983 -0.500073 0
    outer loop
      vertex 39.8271 1.18653 0
      vertex 39.618 0.824429 10
      vertex 39.618 0.824429 0
    endloop
  endfacet
  facet normal 0 0 -1
    outer loop
      vertex 38.2091 0.0109558 0
      vertex 40 2 0
      vertex 39.9563 1.58418 0
    endloop
  endfacet
  facet normal 0 0 -1
    outer loop
      vertex 40 2 0
      vertex 32.75 3.25 0
      vertex 40 18 0
    endloop
  endfacet
  facet normal 0 0 -1
    outer loop
      vertex 38.2091 0.0109558 0
      vertex 39.9563 1.58418 0
      vertex 39.8271 1.18653 0
    endloop
  endfacet
  facet normal 0 0 -1
    outer loop
      vertex 32.75 16.75 0
      vertex 40 18 0
      vertex 32.75 3.25 0
    endloop
  endfacet
  facet normal 0 0 -1
    outer loop
      vertex 38.2091 0.0109558 0
      vertex 39.8271 1.18653 0
      vertex 39.618 0.824429 0
    endloop
  endfacet
  facet normal 0 -0 -1
    outer loop
      vertex 38.2091 19.989 0
      vertex 40 18 0
      vertex 32.75 16.75 0
    endloop
  endfacet
  facet normal 0 0 -1
    outer loop
      vertex 38.2091 0.0109558 0
      vertex 39.618 0.824429 0
      vertex 39.3383 0.51371 0
    endloop
  endfacet
  facet normal 0 0 -1
    outer loop
      vertex 40 18 0
      vertex 38.2091 19.989 0
      vertex 39.9563 18.4158 0
    endloop
  endfacet
  facet normal 0 0 -1
    outer loop
      vertex 38.2091 0.0109558 0
      vertex 39.3383 0.51371 0
      vertex 39 0.267949 0
    endloop
  endfacet
  facet normal 0 0 -1
    outer loop
      vertex 39.9563 18.4158 0
      vertex 38.2091 19.989 0
      vertex 39.8271 18.8135 0
    endloop
  endfacet
  facet normal 0 0 -1
    outer loop
      vertex 38.2091 0.0109558 0
      vertex 39 0.267949 0
      vertex 38.618 0.0978861 0
    endloop
  endfacet
  facet normal 0 0 -1
    outer loop
      vertex 39.8271 18.8135 0
      vertex 38.2091 19.989 0
      vertex 39.618 19.1756 0
    endloop
  endfacet
  facet normal -0 0 -1
    outer loop
      vertex 40 2 0
      vertex 38.2091 0.0109558 0
      vertex 32.75 3.25 0
    endloop
  endfacet
  facet normal 0 0 -1
    outer loop
      vertex 39.618 19.1756 0
      vertex 38.2091 19.989 0
      vertex 39.3383 19.4863 0
    endloop
  endfacet
  facet normal 0 0 -1
    outer loop
      vertex 39.3383 19.4863 0
      vertex 38.2091 19.989 0
      vertex 39 19.732 0
    endloop
  endfacet
  facet normal 0 0 -1
    outer loop
      vertex 38.2091 0.0109558 0
      vertex 7.25 3.25 0
      vertex 32.75 3.25 0
    endloop
  endfacet
  facet normal 0 0 -1
    outer loop
      vertex 0 2 0
      vertex 7.25 3.25 0
      vertex 1.79094 0.0109558 0
    endloop
  endfacet
  facet normal 0 0 -1
    outer loop
      vertex 1.79094 0.0109558 0
      vertex 7.25 3.25 0
      vertex 38.2091 0.0109558 0
    endloop
  endfacet
  facet normal 0 0 -1
    outer loop
      vertex 39 19.732 0
      vertex 38.2091 19.989 0
      vertex 38.618 19.9021 0
    endloop
  endfacet
  facet normal 0 0 -1
    outer loop
      vertex 7.25 16.75 0
      vertex 38.2091 19.989 0
      vertex 32.75 16.75 0
    endloop
  endfacet
  facet normal 0 0 -1
    outer loop
      vertex 7.25 16.75 0
      vertex 1.79094 19.989 0
      vertex 38.2091 19.989 0
    endloop
  endfacet
  facet normal -0 0 -1
    outer loop
      vertex 7.25 3.25 0
      vertex 0 2 0
      vertex 7.25 16.75 0
    endloop
  endfacet
  facet normal 0 0 -1
    outer loop
      vertex 0 2 0
      vertex 1.79094 0.0109558 0
      vertex 1.38197 0.0978861 0
    endloop
  endfacet
  facet normal 0 0 -1
    outer loop
      vertex 0 18 0
      vertex 7.25 16.75 0
      vertex 0 2 0
    endloop
  endfacet
  facet normal 0 0 -1
    outer loop
      vertex 0 2 0
      vertex 1.38197 0.0978861 0
      vertex 1 0.267949 0
    endloop
  endfacet
  facet normal 0 0 -1
    outer loop
      vertex 7.25 16.75 0
      vertex 0 18 0
      vertex 1.79094 19.989 0
    endloop
  endfacet
  facet normal 0 0 -1
    outer loop
      vertex 0 2 0
      vertex 1 0.267949 0
      vertex 0.661738 0.51371 0
    endloop
  endfacet
  facet normal 0 0 -1
    outer loop
      vertex 1.79094 19.989 0
      vertex 0 18 0
      vertex 1.38197 19.9021 0
    endloop
  endfacet
  facet normal 0 0 -1
    outer loop
      vertex 0 2 0
      vertex 0.661738 0.51371 0
      vertex 0.381966 0.824429 0
    endloop
  endfacet
  facet normal 0 0 -1
    outer loop
      vertex 1.38197 19.9021 0
      vertex 0 18 0
      vertex 1 19.732 0
    endloop
  endfacet
  facet normal 0 0 -1
    outer loop
      vertex 0 2 0
      vertex 0.381966 0.824429 0
      vertex 0.172909 1.18653 0
    endloop
  endfacet
  facet normal 0 0 -1
    outer loop
      vertex 1 19.732 0
      vertex 0 18 0
      vertex 0.661738 19.4863 0
    endloop
  endfacet
  facet normal 0 0 -1
    outer loop
      vertex 0 2 0
      vertex 0.172909 1.18653 0
      vertex 0.043704 1.58418 0
    endloop
  endfacet
  facet normal 0 0 -1
    outer loop
      vertex 0.661738 19.4863 0
      vertex 0 18 0
      vertex 0.381966 19.1756 0
    endloop
  endfacet
  facet normal 0 0 -1
    outer loop
      vertex 0.381966 19.1756 0
      vertex 0 18 0
      vertex 0.172909 18.8135 0
    endloop
  endfacet
  facet normal 0 0 -1
    outer loop
      vertex 0.172909 18.8135 0
      vertex 0 18 0
      vertex 0.043704 18.4158 0
    endloop
  endfacet
  facet normal -0.743125 0.669152 0
    outer loop
      vertex 0.381966 19.1756 0
      vertex 0.661738 19.4863 10
      vertex 0.661738 19.4863 0
    endloop
  endfacet
  facet normal -0.743125 0.669152 0
    outer loop
      vertex 0.661738 19.4863 10
      vertex 0.381966 19.1756 0
      vertex 0.381966 19.1756 10
    endloop
  endfacet
  facet normal 0.743211 0.669057 0
    outer loop
      vertex 39.618 19.1756 10
      vertex 39.3383 19.4863 0
      vertex 39.3383 19.4863 10
    endloop
  endfacet
  facet normal 0.743211 0.669057 0
    outer loop
      vertex 39.3383 19.4863 0
      vertex 39.618 19.1756 10
      vertex 39.618 19.1756 0
    endloop
  endfacet
  facet normal 0.587741 -0.809049 0
    outer loop
      vertex 39 0.267949 0
      vertex 39.3383 0.51371 10
      vertex 39 0.267949 10
    endloop
  endfacet
  facet normal 0.587741 -0.809049 0
    outer loop
      vertex 39.3383 0.51371 10
      vertex 39 0.267949 0
      vertex 39.3383 0.51371 0
    endloop
  endfacet
  facet normal -0.951056 -0.309018 0
    outer loop
      vertex 0.172909 1.18653 0
      vertex 0.043704 1.58418 10
      vertex 0.043704 1.58418 0
    endloop
  endfacet
  facet normal -0.951056 -0.309018 0
    outer loop
      vertex 0.043704 1.58418 10
      vertex 0.172909 1.18653 0
      vertex 0.172909 1.18653 10
    endloop
  endfacet
  facet normal -0.951067 0.308983 0
    outer loop
      vertex 0.043704 18.4158 0
      vertex 0.172909 18.8135 10
      vertex 0.172909 18.8135 0
    endloop
  endfacet
  facet normal -0.951067 0.308983 0
    outer loop
      vertex 0.172909 18.8135 10
      vertex 0.043704 18.4158 0
      vertex 0.043704 18.4158 10
    endloop
  endfacet
  facet normal 0.865982 0.500074 0
    outer loop
      vertex 39.8271 18.8135 10
      vertex 39.618 19.1756 0
      vertex 39.618 19.1756 10
    endloop
  endfacet
  facet normal 0.865982 0.500074 0
    outer loop
      vertex 39.618 19.1756 0
      vertex 39.8271 18.8135 10
      vertex 39.8271 18.8135 0
    endloop
  endfacet
  facet normal -0.994521 0.104532 0
    outer loop
      vertex 0 18 0
      vertex 0.043704 18.4158 10
      vertex 0.043704 18.4158 0
    endloop
  endfacet
  facet normal -0.994521 0.104532 0
    outer loop
      vertex 0.043704 18.4158 10
      vertex 0 18 0
      vertex 0 18 10
    endloop
  endfacet
  facet normal 0.951071 0.308973 0
    outer loop
      vertex 39.9563 18.4158 10
      vertex 39.8271 18.8135 0
      vertex 39.8271 18.8135 10
    endloop
  endfacet
  facet normal 0.951071 0.308973 0
    outer loop
      vertex 39.8271 18.8135 0
      vertex 39.9563 18.4158 10
      vertex 39.9563 18.4158 0
    endloop
  endfacet
  facet normal -0.866028 -0.499996 0
    outer loop
      vertex 0.381966 0.824429 0
      vertex 0.172909 1.18653 10
      vertex 0.172909 1.18653 0
    endloop
  endfacet
  facet normal -0.866028 -0.499996 0
    outer loop
      vertex 0.172909 1.18653 10
      vertex 0.381966 0.824429 0
      vertex 0.381966 0.824429 10
    endloop
  endfacet
  facet normal 0 0 1
    outer loop
      vertex 38.6271 17.6135 10
      vertex 40 18 10
      vertex 39.9563 18.4158 10
    endloop
  endfacet
  facet normal 0 0 1
    outer loop
      vertex 40 18 10
      vertex 38.8 16.8 10
      vertex 40 2 10
    endloop
  endfacet
  facet normal 0 0 1
    outer loop
      vertex 38.418 17.9756 10
      vertex 39.9563 18.4158 10
      vertex 39.8271 18.8135 10
    endloop
  endfacet
  facet normal -0 0 1
    outer loop
      vertex 38.8 3.2 10
      vertex 40 2 10
      vertex 38.8 16.8 10
    endloop
  endfacet
  facet normal 0 0 1
    outer loop
      vertex 38.418 17.9756 10
      vertex 39.8271 18.8135 10
      vertex 39.618 19.1756 10
    endloop
  endfacet
  facet normal -0 0 1
    outer loop
      vertex 38.7563 2.78418 10
      vertex 40 2 10
      vertex 38.8 3.2 10
    endloop
  endfacet
  facet normal 0 0 1
    outer loop
      vertex 38.1383 18.2863 10
      vertex 39.618 19.1756 10
      vertex 39.3383 19.4863 10
    endloop
  endfacet
  facet normal -0 0 1
    outer loop
      vertex 38.6271 2.38653 10
      vertex 40 2 10
      vertex 38.7563 2.78418 10
    endloop
  endfacet
  facet normal 0 0 1
    outer loop
      vertex 38.1383 18.2863 10
      vertex 39.3383 19.4863 10
      vertex 39 19.732 10
    endloop
  endfacet
  facet normal 0 0 1
    outer loop
      vertex 40 2 10
      vertex 38.6271 2.38653 10
      vertex 39.9563 1.58418 10
    endloop
  endfacet
  facet normal -0 0 1
    outer loop
      vertex 38.418 2.02443 10
      vertex 39.9563 1.58418 10
      vertex 38.6271 2.38653 10
    endloop
  endfacet
  facet normal 0 0 1
    outer loop
      vertex 40 18 10
      vertex 38.7563 17.2158 10
      vertex 38.8 16.8 10
    endloop
  endfacet
  facet normal 0 0 1
    outer loop
      vertex 40 18 10
      vertex 38.6271 17.6135 10
      vertex 38.7563 17.2158 10
    endloop
  endfacet
  facet normal 0 0 1
    outer loop
      vertex 38.1383 18.2863 10
      vertex 39 19.732 10
      vertex 38.618 19.9021 10
    endloop
  endfacet
  facet normal 0 0 1
    outer loop
      vertex 39.9563 18.4158 10
      vertex 38.418 17.9756 10
      vertex 38.6271 17.6135 10
    endloop
  endfacet
  facet normal 0 0 1
    outer loop
      vertex 37.8 18.5321 10
      vertex 38.618 19.9021 10
      vertex 38.2091 19.989 10
    endloop
  endfacet
  facet normal 0 0 1
    outer loop
      vertex 39.618 19.1756 10
      vertex 38.1383 18.2863 10
      vertex 38.418 17.9756 10
    endloop
  endfacet
  facet normal 0 0 1
    outer loop
      vertex 38.618 19.9021 10
      vertex 37.8 18.5321 10
      vertex 38.1383 18.2863 10
    endloop
  endfacet
  facet normal 0 0 1
    outer loop
      vertex 38.2091 19.989 10
      vertex 37.418 18.7021 10
      vertex 37.8 18.5321 10
    endloop
  endfacet
  facet normal 0 0 1
    outer loop
      vertex 38.2091 19.989 10
      vertex 37.0091 18.789 10
      vertex 37.418 18.7021 10
    endloop
  endfacet
  facet normal 0 0 1
    outer loop
      vertex 38.2091 19.989 10
      vertex 2.99094 18.789 10
      vertex 37.0091 18.789 10
    endloop
  endfacet
  facet normal -0 0 1
    outer loop
      vertex 1.79094 19.989 10
      vertex 2.99094 18.789 10
      vertex 38.2091 19.989 10
    endloop
  endfacet
  facet normal 0 0 1
    outer loop
      vertex 1.79094 19.989 10
      vertex 2.58197 18.7021 10
      vertex 2.99094 18.789 10
    endloop
  endfacet
  facet normal 0 0 1
    outer loop
      vertex 1.79094 19.989 10
      vertex 2.2 18.5321 10
      vertex 2.58197 18.7021 10
    endloop
  endfacet
  facet normal -0 0 1
    outer loop
      vertex 1.38197 19.9021 10
      vertex 2.2 18.5321 10
      vertex 1.79094 19.989 10
    endloop
  endfacet
  facet normal 0 0 1
    outer loop
      vertex 2.2 18.5321 10
      vertex 1.38197 19.9021 10
      vertex 1.86174 18.2863 10
    endloop
  endfacet
  facet normal -0 0 1
    outer loop
      vertex 1 19.732 10
      vertex 1.86174 18.2863 10
      vertex 1.38197 19.9021 10
    endloop
  endfacet
  facet normal -0 0 1
    outer loop
      vertex 0.661738 19.4863 10
      vertex 1.86174 18.2863 10
      vertex 1 19.732 10
    endloop
  endfacet
  facet normal -0 0 1
    outer loop
      vertex 0.381966 19.1756 10
      vertex 1.86174 18.2863 10
      vertex 0.661738 19.4863 10
    endloop
  endfacet
  facet normal 0 0 1
    outer loop
      vertex 1.86174 18.2863 10
      vertex 0.381966 19.1756 10
      vertex 1.58197 17.9756 10
    endloop
  endfacet
  facet normal -0 0 1
    outer loop
      vertex 0.043704 18.4158 10
      vertex 1.58197 17.9756 10
      vertex 0.172909 18.8135 10
    endloop
  endfacet
  facet normal -0 0 1
    outer loop
      vertex 0.172909 18.8135 10
      vertex 1.58197 17.9756 10
      vertex 0.381966 19.1756 10
    endloop
  endfacet
  facet normal 0 0 1
    outer loop
      vertex 39.9563 1.58418 10
      vertex 38.418 2.02443 10
      vertex 39.8271 1.18653 10
    endloop
  endfacet
  facet normal 0 0 1
    outer loop
      vertex 39.8271 1.18653 10
      vertex 38.418 2.02443 10
      vertex 39.618 0.824429 10
    endloop
  endfacet
  facet normal -0 0 1
    outer loop
      vertex 38.1383 1.71371 10
      vertex 39.618 0.824429 10
      vertex 38.418 2.02443 10
    endloop
  endfacet
  facet normal 0 0 1
    outer loop
      vertex 39.618 0.824429 10
      vertex 38.1383 1.71371 10
      vertex 39.3383 0.51371 10
    endloop
  endfacet
  facet normal 0 0 1
    outer loop
      vertex 39.3383 0.51371 10
      vertex 38.1383 1.71371 10
      vertex 39 0.267949 10
    endloop
  endfacet
  facet normal 0 0 1
    outer loop
      vertex 39 0.267949 10
      vertex 38.1383 1.71371 10
      vertex 38.618 0.0978861 10
    endloop
  endfacet
  facet normal -0 0 1
    outer loop
      vertex 37.8 1.46795 10
      vertex 38.618 0.0978861 10
      vertex 38.1383 1.71371 10
    endloop
  endfacet
  facet normal 0 0 1
    outer loop
      vertex 38.618 0.0978861 10
      vertex 37.8 1.46795 10
      vertex 38.2091 0.0109558 10
    endloop
  endfacet
  facet normal -0 0 1
    outer loop
      vertex 37.418 1.29789 10
      vertex 38.2091 0.0109558 10
      vertex 37.8 1.46795 10
    endloop
  endfacet
  facet normal -0 0 1
    outer loop
      vertex 37.0091 1.21096 10
      vertex 38.2091 0.0109558 10
      vertex 37.418 1.29789 10
    endloop
  endfacet
  facet normal -0 0 1
    outer loop
      vertex 2.99094 1.21096 10
      vertex 38.2091 0.0109558 10
      vertex 37.0091 1.21096 10
    endloop
  endfacet
  facet normal 0 0 1
    outer loop
      vertex 2.99094 1.21096 10
      vertex 1.79094 0.0109558 10
      vertex 38.2091 0.0109558 10
    endloop
  endfacet
  facet normal 0 0 1
    outer loop
      vertex 2.58197 1.29789 10
      vertex 1.79094 0.0109558 10
      vertex 2.99094 1.21096 10
    endloop
  endfacet
  facet normal 0 0 1
    outer loop
      vertex 2.2 1.46795 10
      vertex 1.79094 0.0109558 10
      vertex 2.58197 1.29789 10
    endloop
  endfacet
  facet normal 0 0 1
    outer loop
      vertex 1.38197 0.0978861 10
      vertex 2.2 1.46795 10
      vertex 1.86174 1.71371 10
    endloop
  endfacet
  facet normal 0 0 1
    outer loop
      vertex 0.381966 0.824429 10
      vertex 1.86174 1.71371 10
      vertex 1.58197 2.02443 10
    endloop
  endfacet
  facet normal 0 0 1
    outer loop
      vertex 2.2 1.46795 10
      vertex 1.38197 0.0978861 10
      vertex 1.79094 0.0109558 10
    endloop
  endfacet
  facet normal 0 0 1
    outer loop
      vertex 0.043704 1.58418 10
      vertex 1.58197 2.02443 10
      vertex 1.37291 2.38653 10
    endloop
  endfacet
  facet normal 0 0 1
    outer loop
      vertex 0 2 10
      vertex 1.37291 2.38653 10
      vertex 1.2437 2.78418 10
    endloop
  endfacet
  facet normal 0 0 1
    outer loop
      vertex 0 2 10
      vertex 1.2437 2.78418 10
      vertex 1.2 3.2 10
    endloop
  endfacet
  facet normal 0 0 1
    outer loop
      vertex 1.86174 1.71371 10
      vertex 1 0.267949 10
      vertex 1.38197 0.0978861 10
    endloop
  endfacet
  facet normal 0 0 1
    outer loop
      vertex 1.2 16.8 10
      vertex 0 18 10
      vertex 1.2 3.2 10
    endloop
  endfacet
  facet normal 0 0 1
    outer loop
      vertex 1.58197 17.9756 10
      vertex 0.043704 18.4158 10
      vertex 1.37291 17.6135 10
    endloop
  endfacet
  facet normal 0 0 1
    outer loop
      vertex 0 2 10
      vertex 1.2 3.2 10
      vertex 0 18 10
    endloop
  endfacet
  facet normal -0 0 1
    outer loop
      vertex 0 18 10
      vertex 1.37291 17.6135 10
      vertex 0.043704 18.4158 10
    endloop
  endfacet
  facet normal 0 0 1
    outer loop
      vertex 1.37291 2.38653 10
      vertex 0 2 10
      vertex 0.043704 1.58418 10
    endloop
  endfacet
  facet normal 0 0 1
    outer loop
      vertex 1.37291 17.6135 10
      vertex 0 18 10
      vertex 1.2437 17.2158 10
    endloop
  endfacet
  facet normal 0 0 1
    outer loop
      vertex 1.86174 1.71371 10
      vertex 0.661738 0.51371 10
      vertex 1 0.267949 10
    endloop
  endfacet
  facet normal 0 0 1
    outer loop
      vertex 1.2437 17.2158 10
      vertex 0 18 10
      vertex 1.2 16.8 10
    endloop
  endfacet
  facet normal 0 0 1
    outer loop
      vertex 1.86174 1.71371 10
      vertex 0.381966 0.824429 10
      vertex 0.661738 0.51371 10
    endloop
  endfacet
  facet normal 0 0 1
    outer loop
      vertex 1.58197 2.02443 10
      vertex 0.172909 1.18653 10
      vertex 0.381966 0.824429 10
    endloop
  endfacet
  facet normal 0 0 1
    outer loop
      vertex 1.58197 2.02443 10
      vertex 0.043704 1.58418 10
      vertex 0.172909 1.18653 10
    endloop
  endfacet
  facet normal -0.207879 -0.978155 0
    outer loop
      vertex 37.0091 18.789 2.7
      vertex 37.418 18.7021 10
      vertex 37.0091 18.789 10
    endloop
  endfacet
  facet normal -0.207879 -0.978155 -0
    outer loop
      vertex 37.418 18.7021 10
      vertex 37.0091 18.789 2.7
      vertex 37.418 18.7021 2.7
    endloop
  endfacet
  facet normal 0.207845 -0.978162 0
    outer loop
      vertex 2.58197 18.7021 2.7
      vertex 2.99094 18.789 10
      vertex 2.58197 18.7021 10
    endloop
  endfacet
  facet normal 0.207845 -0.978162 0
    outer loop
      vertex 2.99094 18.789 10
      vertex 2.58197 18.7021 2.7
      vertex 2.99094 18.789 2.7
    endloop
  endfacet
  facet normal -1 0 0
    outer loop
      vertex 38.8 3.2 2.7
      vertex 38.8 16.8 10
      vertex 38.8 16.8 2.7
    endloop
  endfacet
  facet normal -1 -0 0
    outer loop
      vertex 38.8 16.8 10
      vertex 38.8 3.2 2.7
      vertex 38.8 3.2 10
    endloop
  endfacet
  facet normal 0.207913 0.978147 -0
    outer loop
      vertex 2.99094 1.21096 2.7
      vertex 2.58197 1.29789 10
      vertex 2.99094 1.21096 10
    endloop
  endfacet
  facet normal 0.207913 0.978147 0
    outer loop
      vertex 2.58197 1.29789 10
      vertex 2.99094 1.21096 2.7
      vertex 2.58197 1.29789 2.7
    endloop
  endfacet
  facet normal -0.951071 -0.308973 0
    outer loop
      vertex 38.7563 17.2158 2.7
      vertex 38.6271 17.6135 10
      vertex 38.6271 17.6135 2.7
    endloop
  endfacet
  facet normal -0.951071 -0.308973 0
    outer loop
      vertex 38.6271 17.6135 10
      vertex 38.7563 17.2158 2.7
      vertex 38.7563 17.2158 10
    endloop
  endfacet
  facet normal -0.865982 -0.500074 0
    outer loop
      vertex 38.6271 17.6135 2.7
      vertex 38.418 17.9756 10
      vertex 38.418 17.9756 2.7
    endloop
  endfacet
  facet normal -0.865982 -0.500074 0
    outer loop
      vertex 38.418 17.9756 10
      vertex 38.6271 17.6135 2.7
      vertex 38.6271 17.6135 10
    endloop
  endfacet
  facet normal 0.587847 -0.808972 0
    outer loop
      vertex 1.86174 18.2863 2.7
      vertex 2.2 18.5321 10
      vertex 1.86174 18.2863 10
    endloop
  endfacet
  facet normal 0.587847 -0.808972 0
    outer loop
      vertex 2.2 18.5321 10
      vertex 1.86174 18.2863 2.7
      vertex 2.2 18.5321 2.7
    endloop
  endfacet
  facet normal 0.406609 -0.913602 0
    outer loop
      vertex 2.2 18.5321 2.7
      vertex 2.58197 18.7021 10
      vertex 2.2 18.5321 10
    endloop
  endfacet
  facet normal 0.406609 -0.913602 0
    outer loop
      vertex 2.58197 18.7021 10
      vertex 2.2 18.5321 2.7
      vertex 2.58197 18.7021 2.7
    endloop
  endfacet
  facet normal 0 -1 0
    outer loop
      vertex 2.99094 18.789 2.7
      vertex 37.0091 18.789 10
      vertex 2.99094 18.789 10
    endloop
  endfacet
  facet normal 0 -1 -0
    outer loop
      vertex 37.0091 18.789 10
      vertex 2.99094 18.789 2.7
      vertex 37.0091 18.789 2.7
    endloop
  endfacet
  facet normal 0 1 -0
    outer loop
      vertex 37.0091 1.21096 2.7
      vertex 2.99094 1.21096 10
      vertex 37.0091 1.21096 10
    endloop
  endfacet
  facet normal 0 1 0
    outer loop
      vertex 2.99094 1.21096 10
      vertex 37.0091 1.21096 2.7
      vertex 2.99094 1.21096 2.7
    endloop
  endfacet
  facet normal 0.951064 -0.308994 0
    outer loop
      vertex 1.2437 17.2158 10
      vertex 1.37291 17.6135 2.7
      vertex 1.37291 17.6135 10
    endloop
  endfacet
  facet normal 0.951064 -0.308994 0
    outer loop
      vertex 1.37291 17.6135 2.7
      vertex 1.2437 17.2158 10
      vertex 1.2437 17.2158 2.7
    endloop
  endfacet
  facet normal 0.866024 0.500003 0
    outer loop
      vertex 1.58197 2.02443 10
      vertex 1.37291 2.38653 2.7
      vertex 1.37291 2.38653 10
    endloop
  endfacet
  facet normal 0.866024 0.500003 0
    outer loop
      vertex 1.37291 2.38653 2.7
      vertex 1.58197 2.02443 10
      vertex 1.58197 2.02443 2.7
    endloop
  endfacet
  facet normal -0.406702 0.913561 0
    outer loop
      vertex 37.8 1.46795 2.7
      vertex 37.418 1.29789 10
      vertex 37.8 1.46795 10
    endloop
  endfacet
  facet normal -0.406702 0.913561 0
    outer loop
      vertex 37.418 1.29789 10
      vertex 37.8 1.46795 2.7
      vertex 37.418 1.29789 2.7
    endloop
  endfacet
  facet normal 0.994522 -0.104523 0
    outer loop
      vertex 1.2437 17.2158 10
      vertex 1.2 16.8 2.7
      vertex 1.2437 17.2158 2.7
    endloop
  endfacet
  facet normal 0 0 0
    outer loop
      vertex 1.2 16.8 1.2
      vertex 1.2 16.8 2.7
      vertex 1.2 16.8 10
    endloop
  endfacet
  facet normal 0.994522 -0.104523 0
    outer loop
      vertex 1.2 16.8 10
      vertex 1.2 16.8 2.7
      vertex 1.2437 17.2158 10
    endloop
  endfacet
  facet normal 1 -0 0
    outer loop
      vertex 1.2 3.2 10
      vertex 1.2 16.8 1.2
      vertex 1.2 16.8 10
    endloop
  endfacet
  facet normal 1 0 0
    outer loop
      vertex 1.2 16.8 1.2
      vertex 1.2 3.2 10
      vertex 1.2 3.2 1.2
    endloop
  endfacet
  facet normal 0.587785 0.809017 -0
    outer loop
      vertex 2.2 1.46795 2.7
      vertex 1.86174 1.71371 10
      vertex 2.2 1.46795 10
    endloop
  endfacet
  facet normal 0.587785 0.809017 0
    outer loop
      vertex 1.86174 1.71371 10
      vertex 2.2 1.46795 2.7
      vertex 1.86174 1.71371 2.7
    endloop
  endfacet
  facet normal -0.406582 -0.913614 0
    outer loop
      vertex 37.418 18.7021 2.7
      vertex 37.8 18.5321 10
      vertex 37.418 18.7021 10
    endloop
  endfacet
  facet normal -0.406582 -0.913614 -0
    outer loop
      vertex 37.8 18.5321 10
      vertex 37.418 18.7021 2.7
      vertex 37.8 18.5321 2.7
    endloop
  endfacet
  facet normal 0.743149 0.669126 0
    outer loop
      vertex 1.86174 1.71371 10
      vertex 1.58197 2.02443 2.7
      vertex 1.58197 2.02443 10
    endloop
  endfacet
  facet normal 0.743149 0.669126 0
    outer loop
      vertex 1.58197 2.02443 2.7
      vertex 1.86174 1.71371 10
      vertex 1.86174 1.71371 2.7
    endloop
  endfacet
  facet normal -0.587739 0.80905 0
    outer loop
      vertex 38.1383 1.71371 2.7
      vertex 37.8 1.46795 10
      vertex 38.1383 1.71371 10
    endloop
  endfacet
  facet normal -0.587739 0.80905 0
    outer loop
      vertex 37.8 1.46795 10
      vertex 38.1383 1.71371 2.7
      vertex 37.8 1.46795 2.7
    endloop
  endfacet
  facet normal -0.743232 0.669033 0
    outer loop
      vertex 38.1383 1.71371 2.7
      vertex 38.418 2.02443 10
      vertex 38.418 2.02443 2.7
    endloop
  endfacet
  facet normal -0.743232 0.669033 0
    outer loop
      vertex 38.418 2.02443 10
      vertex 38.1383 1.71371 2.7
      vertex 38.1383 1.71371 10
    endloop
  endfacet
  facet normal -0.865982 0.500074 0
    outer loop
      vertex 38.418 2.02443 2.7
      vertex 38.6271 2.38653 10
      vertex 38.6271 2.38653 2.7
    endloop
  endfacet
  facet normal -0.865982 0.500074 0
    outer loop
      vertex 38.6271 2.38653 10
      vertex 38.418 2.02443 2.7
      vertex 38.418 2.02443 10
    endloop
  endfacet
  facet normal 0 0 0
    outer loop
      vertex 1.2 3.2 10
      vertex 1.2 3.2 2.7
      vertex 1.2 3.2 1.2
    endloop
  endfacet
  facet normal 0.994523 0.104518 0
    outer loop
      vertex 1.2437 2.78418 10
      vertex 1.2 3.2 2.7
      vertex 1.2 3.2 10
    endloop
  endfacet
  facet normal 0.994523 0.104518 0
    outer loop
      vertex 1.2 3.2 2.7
      vertex 1.2437 2.78418 10
      vertex 1.2437 2.78418 2.7
    endloop
  endfacet
  facet normal 0.743128 -0.66915 0
    outer loop
      vertex 1.58197 17.9756 10
      vertex 1.86174 18.2863 2.7
      vertex 1.86174 18.2863 10
    endloop
  endfacet
  facet normal 0.743128 -0.66915 0
    outer loop
      vertex 1.86174 18.2863 2.7
      vertex 1.58197 17.9756 10
      vertex 1.58197 17.9756 2.7
    endloop
  endfacet
  facet normal 0.406729 0.913549 -0
    outer loop
      vertex 2.58197 1.29789 2.7
      vertex 2.2 1.46795 10
      vertex 2.58197 1.29789 10
    endloop
  endfacet
  facet normal 0.406729 0.913549 0
    outer loop
      vertex 2.2 1.46795 10
      vertex 2.58197 1.29789 2.7
      vertex 2.2 1.46795 2.7
    endloop
  endfacet
  facet normal -0.207947 0.97814 0
    outer loop
      vertex 37.418 1.29789 2.7
      vertex 37.0091 1.21096 10
      vertex 37.418 1.29789 10
    endloop
  endfacet
  facet normal -0.207947 0.97814 0
    outer loop
      vertex 37.0091 1.21096 10
      vertex 37.418 1.29789 2.7
      vertex 37.0091 1.21096 2.7
    endloop
  endfacet
  facet normal -0.95106 0.309008 0
    outer loop
      vertex 38.6271 2.38653 2.7
      vertex 38.7563 2.78418 10
      vertex 38.7563 2.78418 2.7
    endloop
  endfacet
  facet normal -0.95106 0.309008 0
    outer loop
      vertex 38.7563 2.78418 10
      vertex 38.6271 2.38653 2.7
      vertex 38.6271 2.38653 10
    endloop
  endfacet
  facet normal 0 0 1
    outer loop
      vertex 37.0091 18.789 1.2
      vertex 38.8 16.8 1.2
      vertex 38.7563 17.2158 1.2
    endloop
  endfacet
  facet normal 0 0 1
    outer loop
      vertex 38.8 16.8 1.2
      vertex 32.75 16.75 1.2
      vertex 38.8 3.2 1.2
    endloop
  endfacet
  facet normal 0 0 1
    outer loop
      vertex 37.0091 18.789 1.2
      vertex 38.7563 17.2158 1.2
      vertex 38.6271 17.6135 1.2
    endloop
  endfacet
  facet normal -0 0 1
    outer loop
      vertex 32.75 3.25 1.2
      vertex 38.8 3.2 1.2
      vertex 32.75 16.75 1.2
    endloop
  endfacet
  facet normal 0 0 1
    outer loop
      vertex 37.0091 18.789 1.2
      vertex 38.6271 17.6135 1.2
      vertex 38.418 17.9756 1.2
    endloop
  endfacet
  facet normal 0 -0 1
    outer loop
      vertex 37.0091 1.21096 1.2
      vertex 38.8 3.2 1.2
      vertex 32.75 3.25 1.2
    endloop
  endfacet
  facet normal 0 0 1
    outer loop
      vertex 37.0091 18.789 1.2
      vertex 38.418 17.9756 1.2
      vertex 38.1383 18.2863 1.2
    endloop
  endfacet
  facet normal 0 0 1
    outer loop
      vertex 38.8 3.2 1.2
      vertex 37.0091 1.21096 1.2
      vertex 38.7563 2.78418 1.2
    endloop
  endfacet
  facet normal 0 0 1
    outer loop
      vertex 37.0091 18.789 1.2
      vertex 38.1383 18.2863 1.2
      vertex 37.8 18.5321 1.2
    endloop
  endfacet
  facet normal 0 0 1
    outer loop
      vertex 38.7563 2.78418 1.2
      vertex 37.0091 1.21096 1.2
      vertex 38.6271 2.38653 1.2
    endloop
  endfacet
  facet normal 0 0 1
    outer loop
      vertex 37.0091 18.789 1.2
      vertex 37.8 18.5321 1.2
      vertex 37.418 18.7021 1.2
    endloop
  endfacet
  facet normal 0 0 1
    outer loop
      vertex 38.6271 2.38653 1.2
      vertex 37.0091 1.21096 1.2
      vertex 38.418 2.02443 1.2
    endloop
  endfacet
  facet normal 0 0 1
    outer loop
      vertex 38.8 16.8 1.2
      vertex 37.0091 18.789 1.2
      vertex 32.75 16.75 1.2
    endloop
  endfacet
  facet normal 0 0 1
    outer loop
      vertex 38.418 2.02443 1.2
      vertex 37.0091 1.21096 1.2
      vertex 38.1383 1.71371 1.2
    endloop
  endfacet
  facet normal 0 0 1
    outer loop
      vertex 38.1383 1.71371 1.2
      vertex 37.0091 1.21096 1.2
      vertex 37.8 1.46795 1.2
    endloop
  endfacet
  facet normal 0 0 1
    outer loop
      vertex 37.0091 18.789 1.2
      vertex 7.25 16.75 1.2
      vertex 32.75 16.75 1.2
    endloop
  endfacet
  facet normal -0 0 1
    outer loop
      vertex 1.2 16.8 1.2
      vertex 7.25 16.75 1.2
      vertex 2.99094 18.789 1.2
    endloop
  endfacet
  facet normal -0 0 1
    outer loop
      vertex 2.99094 18.789 1.2
      vertex 7.25 16.75 1.2
      vertex 37.0091 18.789 1.2
    endloop
  endfacet
  facet normal 0 0 1
    outer loop
      vertex 37.8 1.46795 1.2
      vertex 37.0091 1.21096 1.2
      vertex 37.418 1.29789 1.2
    endloop
  endfacet
  facet normal -0 0 1
    outer loop
      vertex 7.25 3.25 1.2
      vertex 37.0091 1.21096 1.2
      vertex 32.75 3.25 1.2
    endloop
  endfacet
  facet normal 0 0 1
    outer loop
      vertex 7.25 3.25 1.2
      vertex 2.99094 1.21096 1.2
      vertex 37.0091 1.21096 1.2
    endloop
  endfacet
  facet normal 0 0 1
    outer loop
      vertex 7.25 16.75 1.2
      vertex 1.2 16.8 1.2
      vertex 7.25 3.25 1.2
    endloop
  endfacet
  facet normal 0 0 1
    outer loop
      vertex 1.2 16.8 1.2
      vertex 2.99094 18.789 1.2
      vertex 2.58197 18.7021 1.2
    endloop
  endfacet
  facet normal 0 0 1
    outer loop
      vertex 1.2 3.2 1.2
      vertex 7.25 3.25 1.2
      vertex 1.2 16.8 1.2
    endloop
  endfacet
  facet normal 0 0 1
    outer loop
      vertex 1.2 16.8 1.2
      vertex 2.58197 18.7021 1.2
      vertex 2.2 18.5321 1.2
    endloop
  endfacet
  facet normal 0 0 1
    outer loop
      vertex 7.25 3.25 1.2
      vertex 1.2 3.2 1.2
      vertex 2.99094 1.21096 1.2
    endloop
  endfacet
  facet normal 0 0 1
    outer loop
      vertex 1.2 16.8 1.2
      vertex 2.2 18.5321 1.2
      vertex 1.86174 18.2863 1.2
    endloop
  endfacet
  facet normal 0 0 1
    outer loop
      vertex 2.99094 1.21096 1.2
      vertex 1.2 3.2 1.2
      vertex 2.58197 1.29789 1.2
    endloop
  endfacet
  facet normal 0 0 1
    outer loop
      vertex 1.2 16.8 1.2
      vertex 1.86174 18.2863 1.2
      vertex 1.58197 17.9756 1.2
    endloop
  endfacet
  facet normal 0 0 1
    outer loop
      vertex 2.58197 1.29789 1.2
      vertex 1.2 3.2 1.2
      vertex 2.2 1.46795 1.2
    endloop
  endfacet
  facet normal 0 0 1
    outer loop
      vertex 1.2 16.8 1.2
      vertex 1.58197 17.9756 1.2
      vertex 1.37291 17.6135 1.2
    endloop
  endfacet
  facet normal 0 0 1
    outer loop
      vertex 2.2 1.46795 1.2
      vertex 1.2 3.2 1.2
      vertex 1.86174 1.71371 1.2
    endloop
  endfacet
  facet normal 0 0 1
    outer loop
      vertex 1.2 16.8 1.2
      vertex 1.37291 17.6135 1.2
      vertex 1.2437 17.2158 1.2
    endloop
  endfacet
  facet normal 0 0 1
    outer loop
      vertex 1.86174 1.71371 1.2
      vertex 1.2 3.2 1.2
      vertex 1.58197 2.02443 1.2
    endloop
  endfacet
  facet normal 0 0 1
    outer loop
      vertex 1.58197 2.02443 1.2
      vertex 1.2 3.2 1.2
      vertex 1.37291 2.38653 1.2
    endloop
  endfacet
  facet normal 0 0 1
    outer loop
      vertex 1.37291 2.38653 1.2
      vertex 1.2 3.2 1.2
      vertex 1.2437 2.78418 1.2
    endloop
  endfacet
  facet normal -0.587802 -0.809005 0
    outer loop
      vertex 37.8 18.5321 2.7
      vertex 38.1383 18.2863 10
      vertex 37.8 18.5321 10
    endloop
  endfacet
  facet normal -0.587802 -0.809005 -0
    outer loop
      vertex 38.1383 18.2863 10
      vertex 37.8 18.5321 2.7
      vertex 38.1383 18.2863 2.7
    endloop
  endfacet
  facet normal -0.743211 -0.669057 0
    outer loop
      vertex 38.418 17.9756 2.7
      vertex 38.1383 18.2863 10
      vertex 38.1383 18.2863 2.7
    endloop
  endfacet
  facet normal -0.743211 -0.669057 0
    outer loop
      vertex 38.1383 18.2863 10
      vertex 38.418 17.9756 2.7
      vertex 38.418 17.9756 10
    endloop
  endfacet
  facet normal 0.951053 0.309029 0
    outer loop
      vertex 1.37291 2.38653 10
      vertex 1.2437 2.78418 2.7
      vertex 1.2437 2.78418 10
    endloop
  endfacet
  facet normal 0.951053 0.309029 0
    outer loop
      vertex 1.2437 2.78418 2.7
      vertex 1.37291 2.38653 10
      vertex 1.37291 2.38653 2.7
    endloop
  endfacet
  facet normal 0.866024 -0.500003 0
    outer loop
      vertex 1.37291 17.6135 10
      vertex 1.58197 17.9756 2.7
      vertex 1.58197 17.9756 10
    endloop
  endfacet
  facet normal 0.866024 -0.500003 0
    outer loop
      vertex 1.58197 17.9756 2.7
      vertex 1.37291 17.6135 10
      vertex 1.37291 17.6135 2.7
    endloop
  endfacet
  facet normal -0.994523 0.104518 0
    outer loop
      vertex 38.7563 2.78418 2.7
      vertex 38.8 3.2 10
      vertex 38.8 3.2 2.7
    endloop
  endfacet
  facet normal -0.994523 0.104518 0
    outer loop
      vertex 38.8 3.2 10
      vertex 38.7563 2.78418 2.7
      vertex 38.7563 2.78418 10
    endloop
  endfacet
  facet normal -0.994522 -0.104523 0
    outer loop
      vertex 38.8 16.8 2.7
      vertex 38.7563 17.2158 10
      vertex 38.7563 17.2158 2.7
    endloop
  endfacet
  facet normal -0.994522 -0.104523 0
    outer loop
      vertex 38.7563 17.2158 10
      vertex 38.8 16.8 2.7
      vertex 38.8 16.8 10
    endloop
  endfacet
  facet normal -1 0 0
    outer loop
      vertex 32.75 3.25 0
      vertex 32.75 16.75 1.2
      vertex 32.75 16.75 0
    endloop
  endfacet
  facet normal -1 -0 0
    outer loop
      vertex 32.75 16.75 1.2
      vertex 32.75 3.25 0
      vertex 32.75 3.25 1.2
    endloop
  endfacet
  facet normal 1 -0 0
    outer loop
      vertex 7.25 3.25 1.2
      vertex 7.25 16.75 0
      vertex 7.25 16.75 1.2
    endloop
  endfacet
  facet normal 1 0 0
    outer loop
      vertex 7.25 16.75 0
      vertex 7.25 3.25 1.2
      vertex 7.25 3.25 0
    endloop
  endfacet
  facet normal 0 -1 0
    outer loop
      vertex 7.25 16.75 0
      vertex 32.75 16.75 1.2
      vertex 7.25 16.75 1.2
    endloop
  endfacet
  facet normal 0 -1 -0
    outer loop
      vertex 32.75 16.75 1.2
      vertex 7.25 16.75 0
      vertex 32.75 16.75 0
    endloop
  endfacet
  facet normal 0 1 -0
    outer loop
      vertex 32.75 3.25 0
      vertex 7.25 3.25 1.2
      vertex 32.75 3.25 1.2
    endloop
  endfacet
  facet normal 0 1 0
    outer loop
      vertex 7.25 3.25 1.2
      vertex 32.75 3.25 0
      vertex 7.25 3.25 0
    endloop
  endfacet
  facet normal 0 0 1
    outer loop
      vertex 38 18 2.7
      vertex 38.8 16.8 2.7
      vertex 38.7563 17.2158 2.7
    endloop
  endfacet
  facet normal 0 0 1
    outer loop
      vertex 38.8 16.8 2.7
      vertex 38 18 2.7
      vertex 38.8 3.2 2.7
    endloop
  endfacet
  facet normal 0 0 1
    outer loop
      vertex 38 18 2.7
      vertex 38.7563 17.2158 2.7
      vertex 38.6271 17.6135 2.7
    endloop
  endfacet
  facet normal 0 0 1
    outer loop
      vertex 38 2 2.7
      vertex 38.8 3.2 2.7
      vertex 38 18 2.7
    endloop
  endfacet
  facet normal 0 0 1
    outer loop
      vertex 38 18 2.7
      vertex 38.6271 17.6135 2.7
      vertex 38.418 17.9756 2.7
    endloop
  endfacet
  facet normal 0 0 1
    outer loop
      vertex 38.8 3.2 2.7
      vertex 38 2 2.7
      vertex 38.7563 2.78418 2.7
    endloop
  endfacet
  facet normal -0 0 1
    outer loop
      vertex 38 18 2.7
      vertex 38.418 17.9756 2.7
      vertex 38.1383 18.2863 2.7
    endloop
  endfacet
  facet normal 0 0 1
    outer loop
      vertex 38.7563 2.78418 2.7
      vertex 38 2 2.7
      vertex 38.6271 2.38653 2.7
    endloop
  endfacet
  facet normal 0 0 1
    outer loop
      vertex 38.6271 2.38653 2.7
      vertex 38 2 2.7
      vertex 38.418 2.02443 2.7
    endloop
  endfacet
  facet normal 0 0 1
    outer loop
      vertex 37.8 18.5321 2.7
      vertex 38 18 2.7
      vertex 38.1383 18.2863 2.7
    endloop
  endfacet
  facet normal 0 0 1
    outer loop
      vertex 37.418 18.7021 2.7
      vertex 38 18 2.7
      vertex 37.8 18.5321 2.7
    endloop
  endfacet
  facet normal 0 0 1
    outer loop
      vertex 37.0091 18.789 2.7
      vertex 38 18 2.7
      vertex 37.418 18.7021 2.7
    endloop
  endfacet
  facet normal -0 0 1
    outer loop
      vertex 2.99094 18.789 2.7
      vertex 38 18 2.7
      vertex 37.0091 18.789 2.7
    endloop
  endfacet
  facet normal 0 0 1
    outer loop
      vertex 2 18 2.7
      vertex 2.99094 18.789 2.7
      vertex 2.58197 18.7021 2.7
    endloop
  endfacet
  facet normal 0 0 1
    outer loop
      vertex 2 18 2.7
      vertex 2.58197 18.7021 2.7
      vertex 2.2 18.5321 2.7
    endloop
  endfacet
  facet normal 0 0 1
    outer loop
      vertex 2.99094 18.789 2.7
      vertex 2 18 2.7
      vertex 38 18 2.7
    endloop
  endfacet
  facet normal 0 0 1
    outer loop
      vertex 1.58197 17.9756 2.7
      vertex 2 18 2.7
      vertex 1.86174 18.2863 2.7
    endloop
  endfacet
  facet normal -0 0 1
    outer loop
      vertex 1.86174 18.2863 2.7
      vertex 2 18 2.7
      vertex 2.2 18.5321 2.7
    endloop
  endfacet
  facet normal 0 0 1
    outer loop
      vertex 38.418 2.02443 2.7
      vertex 38 2 2.7
      vertex 38.1383 1.71371 2.7
    endloop
  endfacet
  facet normal 0 0 1
    outer loop
      vertex 38 2 2.7
      vertex 37.8 1.46795 2.7
      vertex 38.1383 1.71371 2.7
    endloop
  endfacet
  facet normal 0 0 1
    outer loop
      vertex 38 2 2.7
      vertex 37.418 1.29789 2.7
      vertex 37.8 1.46795 2.7
    endloop
  endfacet
  facet normal 0 0 1
    outer loop
      vertex 38 2 2.7
      vertex 37.0091 1.21096 2.7
      vertex 37.418 1.29789 2.7
    endloop
  endfacet
  facet normal 0 0 1
    outer loop
      vertex 38 2 2.7
      vertex 2.99094 1.21096 2.7
      vertex 37.0091 1.21096 2.7
    endloop
  endfacet
  facet normal -0 0 1
    outer loop
      vertex 2 2 2.7
      vertex 2.99094 1.21096 2.7
      vertex 38 2 2.7
    endloop
  endfacet
  facet normal 0 0 1
    outer loop
      vertex 2.99094 1.21096 2.7
      vertex 2 2 2.7
      vertex 2.58197 1.29789 2.7
    endloop
  endfacet
  facet normal 0 0 1
    outer loop
      vertex 2.58197 1.29789 2.7
      vertex 2 2 2.7
      vertex 2.2 1.46795 2.7
    endloop
  endfacet
  facet normal 0 0 1
    outer loop
      vertex 2 2 2.7
      vertex 1.86174 1.71371 2.7
      vertex 2.2 1.46795 2.7
    endloop
  endfacet
  facet normal 0 0 1
    outer loop
      vertex 2 18 2.7
      vertex 1.2 16.8 2.7
      vertex 2 2 2.7
    endloop
  endfacet
  facet normal 0 0 1
    outer loop
      vertex 1.37291 17.6135 2.7
      vertex 2 18 2.7
      vertex 1.58197 17.9756 2.7
    endloop
  endfacet
  facet normal -0 0 1
    outer loop
      vertex 1.2 3.2 2.7
      vertex 2 2 2.7
      vertex 1.2 16.8 2.7
    endloop
  endfacet
  facet normal 0 0 1
    outer loop
      vertex 1.2437 17.2158 2.7
      vertex 2 18 2.7
      vertex 1.37291 17.6135 2.7
    endloop
  endfacet
  facet normal -0 -0 1
    outer loop
      vertex 1.2437 2.78418 2.7
      vertex 2 2 2.7
      vertex 1.2 3.2 2.7
    endloop
  endfacet
  facet normal 0 0 1
    outer loop
      vertex 2 18 2.7
      vertex 1.2437 17.2158 2.7
      vertex 1.2 16.8 2.7
    endloop
  endfacet
  facet normal 0 0 1
    outer loop
      vertex 2 2 2.7
      vertex 1.58197 2.02443 2.7
      vertex 1.86174 1.71371 2.7
    endloop
  endfacet
  facet normal 0 0 1
    outer loop
      vertex 2 2 2.7
      vertex 1.37291 2.38653 2.7
      vertex 1.58197 2.02443 2.7
    endloop
  endfacet
  facet normal 0 0 1
    outer loop
      vertex 2 2 2.7
      vertex 1.2437 2.78418 2.7
      vertex 1.37291 2.38653 2.7
    endloop
  endfacet
  facet normal 0 0 -1
    outer loop
      vertex 38 2 1.2
      vertex 38.8 3.2 1.2
      vertex 38.7563 2.78418 1.2
    endloop
  endfacet
  facet normal -0 0 -1
    outer loop
      vertex 38.8 3.2 1.2
      vertex 38 2 1.2
      vertex 38.8 16.8 1.2
    endloop
  endfacet
  facet normal 0 0 -1
    outer loop
      vertex 38 2 1.2
      vertex 38.7563 2.78418 1.2
      vertex 38.6271 2.38653 1.2
    endloop
  endfacet
  facet normal 0 0 -1
    outer loop
      vertex 38 18 1.2
      vertex 38.8 16.8 1.2
      vertex 38 2 1.2
    endloop
  endfacet
  facet normal 0 0 -1
    outer loop
      vertex 38 2 1.2
      vertex 38.6271 2.38653 1.2
      vertex 38.418 2.02443 1.2
    endloop
  endfacet
  facet normal 0 0 -1
    outer loop
      vertex 38.8 16.8 1.2
      vertex 38 18 1.2
      vertex 38.7563 17.2158 1.2
    endloop
  endfacet
  facet normal 0 0 -1
    outer loop
      vertex 38 2 1.2
      vertex 38.418 2.02443 1.2
      vertex 38.1383 1.71371 1.2
    endloop
  endfacet
  facet normal 0 0 -1
    outer loop
      vertex 38.7563 17.2158 1.2
      vertex 38 18 1.2
      vertex 38.6271 17.6135 1.2
    endloop
  endfacet
  facet normal 0 0 -1
    outer loop
      vertex 38.6271 17.6135 1.2
      vertex 38 18 1.2
      vertex 38.418 17.9756 1.2
    endloop
  endfacet
  facet normal 0 0 -1
    outer loop
      vertex 37.8 1.46795 1.2
      vertex 38 2 1.2
      vertex 38.1383 1.71371 1.2
    endloop
  endfacet
  facet normal 0 0 -1
    outer loop
      vertex 37.418 1.29789 1.2
      vertex 38 2 1.2
      vertex 37.8 1.46795 1.2
    endloop
  endfacet
  facet normal 0 0 -1
    outer loop
      vertex 37.0091 1.21096 1.2
      vertex 38 2 1.2
      vertex 37.418 1.29789 1.2
    endloop
  endfacet
  facet normal 0 0 -1
    outer loop
      vertex 2.99094 1.21096 1.2
      vertex 38 2 1.2
      vertex 37.0091 1.21096 1.2
    endloop
  endfacet
  facet normal 0 0 -1
    outer loop
      vertex 2 2 1.2
      vertex 2.99094 1.21096 1.2
      vertex 2.58197 1.29789 1.2
    endloop
  endfacet
  facet normal 0 0 -1
    outer loop
      vertex 2 2 1.2
      vertex 2.58197 1.29789 1.2
      vertex 2.2 1.46795 1.2
    endloop
  endfacet
  facet normal 0 0 -1
    outer loop
      vertex 2.99094 1.21096 1.2
      vertex 2 2 1.2
      vertex 38 2 1.2
    endloop
  endfacet
  facet normal 0 0 -1
    outer loop
      vertex 1.58197 2.02443 1.2
      vertex 2 2 1.2
      vertex 1.86174 1.71371 1.2
    endloop
  endfacet
  facet normal 0 0 -1
    outer loop
      vertex 1.86174 1.71371 1.2
      vertex 2 2 1.2
      vertex 2.2 1.46795 1.2
    endloop
  endfacet
  facet normal 0 0 -1
    outer loop
      vertex 38.418 17.9756 1.2
      vertex 38 18 1.2
      vertex 38.1383 18.2863 1.2
    endloop
  endfacet
  facet normal 0 0 -1
    outer loop
      vertex 38 18 1.2
      vertex 37.8 18.5321 1.2
      vertex 38.1383 18.2863 1.2
    endloop
  endfacet
  facet normal 0 0 -1
    outer loop
      vertex 38 18 1.2
      vertex 37.418 18.7021 1.2
      vertex 37.8 18.5321 1.2
    endloop
  endfacet
  facet normal 0 0 -1
    outer loop
      vertex 38 18 1.2
      vertex 37.0091 18.789 1.2
      vertex 37.418 18.7021 1.2
    endloop
  endfacet
  facet normal 0 0 -1
    outer loop
      vertex 38 18 1.2
      vertex 2.99094 18.789 1.2
      vertex 37.0091 18.789 1.2
    endloop
  endfacet
  facet normal 0 0 -1
    outer loop
      vertex 2 18 1.2
      vertex 2.99094 18.789 1.2
      vertex 38 18 1.2
    endloop
  endfacet
  facet normal 0 0 -1
    outer loop
      vertex 2.99094 18.789 1.2
      vertex 2 18 1.2
      vertex 2.58197 18.7021 1.2
    endloop
  endfacet
  facet normal 0 0 -1
    outer loop
      vertex 2.58197 18.7021 1.2
      vertex 2 18 1.2
      vertex 2.2 18.5321 1.2
    endloop
  endfacet
  facet normal 0 0 -1
    outer loop
      vertex 2 18 1.2
      vertex 1.86174 18.2863 1.2
      vertex 2.2 18.5321 1.2
    endloop
  endfacet
  facet normal 0 0 -1
    outer loop
      vertex 2 2 1.2
      vertex 1.2 3.2 1.2
      vertex 2 18 1.2
    endloop
  endfacet
  facet normal 0 0 -1
    outer loop
      vertex 1.37291 2.38653 1.2
      vertex 2 2 1.2
      vertex 1.58197 2.02443 1.2
    endloop
  endfacet
  facet normal 0 0 -1
    outer loop
      vertex 1.2 16.8 1.2
      vertex 2 18 1.2
      vertex 1.2 3.2 1.2
    endloop
  endfacet
  facet normal 0 0 -1
    outer loop
      vertex 1.2437 2.78418 1.2
      vertex 2 2 1.2
      vertex 1.37291 2.38653 1.2
    endloop
  endfacet
  facet normal 0 -0 -1
    outer loop
      vertex 1.2437 17.2158 1.2
      vertex 2 18 1.2
      vertex 1.2 16.8 1.2
    endloop
  endfacet
  facet normal 0 0 -1
    outer loop
      vertex 2 2 1.2
      vertex 1.2437 2.78418 1.2
      vertex 1.2 3.2 1.2
    endloop
  endfacet
  facet normal -0 0 -1
    outer loop
      vertex 2 18 1.2
      vertex 1.58197 17.9756 1.2
      vertex 1.86174 18.2863 1.2
    endloop
  endfacet
  facet normal 0 0 -1
    outer loop
      vertex 2 18 1.2
      vertex 1.37291 17.6135 1.2
      vertex 1.58197 17.9756 1.2
    endloop
  endfacet
  facet normal 0 0 -1
    outer loop
      vertex 2 18 1.2
      vertex 1.2437 17.2158 1.2
      vertex 1.37291 17.6135 1.2
    endloop
  endfacet
  facet normal -1 0 0
    outer loop
      vertex 1.2 3.2 1.2
      vertex 1.2 16.8 2.7
      vertex 1.2 16.8 1.2
    endloop
  endfacet
  facet normal -1 -0 0
    outer loop
      vertex 1.2 16.8 2.7
      vertex 1.2 3.2 1.2
      vertex 1.2 3.2 2.7
    endloop
  endfacet
  facet normal -1 0 0
    outer loop
      vertex 38 2 1.2
      vertex 38 18 2.7
      vertex 38 18 1.2
    endloop
  endfacet
  facet normal -1 -0 0
    outer loop
      vertex 38 18 2.7
      vertex 38 2 1.2
      vertex 38 2 2.7
    endloop
  endfacet
  facet normal 1 -0 0
    outer loop
      vertex 2 2 2.7
      vertex 2 18 1.2
      vertex 2 18 2.7
    endloop
  endfacet
  facet normal 1 0 0
    outer loop
      vertex 2 18 1.2
      vertex 2 2 2.7
      vertex 2 2 1.2
    endloop
  endfacet
  facet normal 0 -1 0
    outer loop
      vertex 2 18 1.2
      vertex 38 18 2.7
      vertex 2 18 2.7
    endloop
  endfacet
  facet normal 0 -1 -0
    outer loop
      vertex 38 18 2.7
      vertex 2 18 1.2
      vertex 38 18 1.2
    endloop
  endfacet
  facet normal 0 1 -0
    outer loop
      vertex 38 2 1.2
      vertex 2 2 2.7
      vertex 38 2 2.7
    endloop
  endfacet
  facet normal 0 1 0
    outer loop
      vertex 2 2 2.7
      vertex 38 2 1.2
      vertex 2 2 1.2
    endloop
  endfacet
endsolid OpenSCAD_Model
