solid OpenSCAD_Model
  facet normal -1 0 0
    outer loop
      vertex 12.1 0 4.1
      vertex 12.1 1.5 8
      vertex 12.1 1.5 4.1
    endloop
  endfacet
  facet normal -1 -0 0
    outer loop
      vertex 12.1 1.5 8
      vertex 12.1 0 4.1
      vertex 12.1 0 8
    endloop
  endfacet
  facet normal -0 0 1
    outer loop
      vertex 4.5 1.5 4.1
      vertex 12.1 0 4.1
      vertex 12.1 1.5 4.1
    endloop
  endfacet
  facet normal 0 0 1
    outer loop
      vertex 12.1 0 4.1
      vertex 4.5 1.5 4.1
      vertex 4.5 0 4.1
    endloop
  endfacet
  facet normal 1 -0 0
    outer loop
      vertex 4.5 0 8
      vertex 4.5 1.5 4.1
      vertex 4.5 1.5 8
    endloop
  endfacet
  facet normal 1 0 0
    outer loop
      vertex 4.5 1.5 4.1
      vertex 4.5 0 8
      vertex 4.5 0 4.1
    endloop
  endfacet
  facet normal -1 0 0
    outer loop
      vertex 21.1 0 4.1
      vertex 21.1 1.5 8
      vertex 21.1 1.5 4.1
    endloop
  endfacet
  facet normal -1 -0 0
    outer loop
      vertex 21.1 1.5 8
      vertex 21.1 0 4.1
      vertex 21.1 0 8
    endloop
  endfacet
  facet normal -0 0 1
    outer loop
      vertex 13.5 1.5 4.1
      vertex 21.1 0 4.1
      vertex 21.1 1.5 4.1
    endloop
  endfacet
  facet normal 0 0 1
    outer loop
      vertex 21.1 0 4.1
      vertex 13.5 1.5 4.1
      vertex 13.5 0 4.1
    endloop
  endfacet
  facet normal 1 -0 0
    outer loop
      vertex 13.5 0 8
      vertex 13.5 1.5 4.1
      vertex 13.5 1.5 8
    endloop
  endfacet
  facet normal 1 0 0
    outer loop
      vertex 13.5 1.5 4.1
      vertex 13.5 0 8
      vertex 13.5 0 4.1
    endloop
  endfacet
  facet normal -1 0 0
    outer loop
      vertex 30.1 0 4.1
      vertex 30.1 1.5 8
      vertex 30.1 1.5 4.1
    endloop
  endfacet
  facet normal -1 -0 0
    outer loop
      vertex 30.1 1.5 8
      vertex 30.1 0 4.1
      vertex 30.1 0 8
    endloop
  endfacet
  facet normal -0 0 1
    outer loop
      vertex 22.5 1.5 4.1
      vertex 30.1 0 4.1
      vertex 30.1 1.5 4.1
    endloop
  endfacet
  facet normal 0 0 1
    outer loop
      vertex 30.1 0 4.1
      vertex 22.5 1.5 4.1
      vertex 22.5 0 4.1
    endloop
  endfacet
  facet normal 1 -0 0
    outer loop
      vertex 22.5 0 8
      vertex 22.5 1.5 4.1
      vertex 22.5 1.5 8
    endloop
  endfacet
  facet normal 1 0 0
    outer loop
      vertex 22.5 1.5 4.1
      vertex 22.5 0 8
      vertex 22.5 0 4.1
    endloop
  endfacet
  facet normal -1 0 0
    outer loop
      vertex 39.1 0 4.1
      vertex 39.1 1.5 8
      vertex 39.1 1.5 4.1
    endloop
  endfacet
  facet normal -1 -0 0
    outer loop
      vertex 39.1 1.5 8
      vertex 39.1 0 4.1
      vertex 39.1 0 8
    endloop
  endfacet
  facet normal -0 0 1
    outer loop
      vertex 31.5 1.5 4.1
      vertex 39.1 0 4.1
      vertex 39.1 1.5 4.1
    endloop
  endfacet
  facet normal 0 0 1
    outer loop
      vertex 39.1 0 4.1
      vertex 31.5 1.5 4.1
      vertex 31.5 0 4.1
    endloop
  endfacet
  facet normal 1 -0 0
    outer loop
      vertex 31.5 0 8
      vertex 31.5 1.5 4.1
      vertex 31.5 1.5 8
    endloop
  endfacet
  facet normal 1 0 0
    outer loop
      vertex 31.5 1.5 4.1
      vertex 31.5 0 8
      vertex 31.5 0 4.1
    endloop
  endfacet
  facet normal 1 0 0
    outer loop
      vertex 43 16.5 1.5
      vertex 43 23 8
      vertex 43 16.5 7.5
    endloop
  endfacet
  facet normal 1 0 0
    outer loop
      vertex 43 23 8
      vertex 43 7.5 7.5
      vertex 43 16.5 7.5
    endloop
  endfacet
  facet normal 1 0 0
    outer loop
      vertex 43 7.5 7.5
      vertex 43 0 8
      vertex 43 7.5 1.5
    endloop
  endfacet
  facet normal 1 -0 0
    outer loop
      vertex 43 0 8
      vertex 43 7.5 7.5
      vertex 43 23 8
    endloop
  endfacet
  facet normal 1 0 0
    outer loop
      vertex 43 23 8
      vertex 43 16.5 1.5
      vertex 43 23 0
    endloop
  endfacet
  facet normal 1 -0 0
    outer loop
      vertex 43 7.5 1.5
      vertex 43 23 0
      vertex 43 16.5 1.5
    endloop
  endfacet
  facet normal 1 0 0
    outer loop
      vertex 43 7.5 1.5
      vertex 43 0 0
      vertex 43 23 0
    endloop
  endfacet
  facet normal 1 0 0
    outer loop
      vertex 43 0 0
      vertex 43 7.5 1.5
      vertex 43 0 8
    endloop
  endfacet
  facet normal 0 0 1
    outer loop
      vertex 43 23 8
      vertex 41.5 21.5 8
      vertex 43 0 8
    endloop
  endfacet
  facet normal 0 0 1
    outer loop
      vertex 43 23 8
      vertex 1.5 21.5 8
      vertex 41.5 21.5 8
    endloop
  endfacet
  facet normal 0 0 1
    outer loop
      vertex 1.5 21.5 8
      vertex 0 23 8
      vertex 1.5 1.5 8
    endloop
  endfacet
  facet normal -0 0 1
    outer loop
      vertex 0 23 8
      vertex 1.5 21.5 8
      vertex 43 23 8
    endloop
  endfacet
  facet normal -0 0 1
    outer loop
      vertex 41.5 1.5 8
      vertex 43 0 8
      vertex 41.5 21.5 8
    endloop
  endfacet
  facet normal 0 0 1
    outer loop
      vertex 39.1 0 8
      vertex 41.5 1.5 8
      vertex 39.1 1.5 8
    endloop
  endfacet
  facet normal 0 0 1
    outer loop
      vertex 41.5 1.5 8
      vertex 39.1 0 8
      vertex 43 0 8
    endloop
  endfacet
  facet normal -0 0 1
    outer loop
      vertex 1.5 1.5 8
      vertex 4.5 0 8
      vertex 4.5 1.5 8
    endloop
  endfacet
  facet normal 0 0 1
    outer loop
      vertex 1.5 1.5 8
      vertex 0 0 8
      vertex 4.5 0 8
    endloop
  endfacet
  facet normal 0 0 1
    outer loop
      vertex 0 0 8
      vertex 1.5 1.5 8
      vertex 0 23 8
    endloop
  endfacet
  facet normal -0 0 1
    outer loop
      vertex 12.1 1.5 8
      vertex 13.5 0 8
      vertex 13.5 1.5 8
    endloop
  endfacet
  facet normal 0 0 1
    outer loop
      vertex 13.5 0 8
      vertex 12.1 1.5 8
      vertex 12.1 0 8
    endloop
  endfacet
  facet normal -0 0 1
    outer loop
      vertex 21.1 1.5 8
      vertex 22.5 0 8
      vertex 22.5 1.5 8
    endloop
  endfacet
  facet normal 0 0 1
    outer loop
      vertex 22.5 0 8
      vertex 21.1 1.5 8
      vertex 21.1 0 8
    endloop
  endfacet
  facet normal -0 0 1
    outer loop
      vertex 30.1 1.5 8
      vertex 31.5 0 8
      vertex 31.5 1.5 8
    endloop
  endfacet
  facet normal 0 0 1
    outer loop
      vertex 31.5 0 8
      vertex 30.1 1.5 8
      vertex 30.1 0 8
    endloop
  endfacet
  facet normal 0 0 -1
    outer loop
      vertex 0 0 0
      vertex 43 23 0
      vertex 43 0 0
    endloop
  endfacet
  facet normal -0 0 -1
    outer loop
      vertex 43 23 0
      vertex 0 0 0
      vertex 0 23 0
    endloop
  endfacet
  facet normal -1 0 0
    outer loop
      vertex 0 0 0
      vertex 0 23 8
      vertex 0 23 0
    endloop
  endfacet
  facet normal -1 -0 0
    outer loop
      vertex 0 23 8
      vertex 0 0 0
      vertex 0 0 8
    endloop
  endfacet
  facet normal 0 1 0
    outer loop
      vertex 43 23 8
      vertex 29.5 23 7.5
      vertex 0 23 8
    endloop
  endfacet
  facet normal 0 1 0
    outer loop
      vertex 43 23 8
      vertex 29.5 23 1.5
      vertex 29.5 23 7.5
    endloop
  endfacet
  facet normal 0 1 0
    outer loop
      vertex 29.5 23 1.5
      vertex 43 23 0
      vertex 13.5 23 1.5
    endloop
  endfacet
  facet normal 0 1 -0
    outer loop
      vertex 43 23 0
      vertex 29.5 23 1.5
      vertex 43 23 8
    endloop
  endfacet
  facet normal 0 1 -0
    outer loop
      vertex 13.5 23 7.5
      vertex 0 23 8
      vertex 29.5 23 7.5
    endloop
  endfacet
  facet normal 0 1 -0
    outer loop
      vertex 13.5 23 1.5
      vertex 0 23 8
      vertex 13.5 23 7.5
    endloop
  endfacet
  facet normal 0 1 0
    outer loop
      vertex 13.5 23 1.5
      vertex 0 23 0
      vertex 0 23 8
    endloop
  endfacet
  facet normal 0 1 0
    outer loop
      vertex 0 23 0
      vertex 13.5 23 1.5
      vertex 43 23 0
    endloop
  endfacet
  facet normal 0 -1 0
    outer loop
      vertex 0 0 8
      vertex 4.5 0 4.1
      vertex 4.5 0 8
    endloop
  endfacet
  facet normal 0 -1 0
    outer loop
      vertex 0 0 0
      vertex 12.1 0 4.1
      vertex 4.5 0 4.1
    endloop
  endfacet
  facet normal 0 -1 -0
    outer loop
      vertex 12.1 0 4.1
      vertex 0 0 0
      vertex 13.5 0 4.1
    endloop
  endfacet
  facet normal 0 -1 -0
    outer loop
      vertex 13.5 0 4.1
      vertex 0 0 0
      vertex 21.1 0 4.1
    endloop
  endfacet
  facet normal 0 -1 -0
    outer loop
      vertex 21.1 0 4.1
      vertex 0 0 0
      vertex 22.5 0 4.1
    endloop
  endfacet
  facet normal 0 -1 0
    outer loop
      vertex 43 0 0
      vertex 22.5 0 4.1
      vertex 0 0 0
    endloop
  endfacet
  facet normal 0 -1 0
    outer loop
      vertex 22.5 0 4.1
      vertex 43 0 0
      vertex 30.1 0 4.1
    endloop
  endfacet
  facet normal 0 -1 0
    outer loop
      vertex 30.1 0 4.1
      vertex 43 0 0
      vertex 31.5 0 4.1
    endloop
  endfacet
  facet normal 0 -1 0
    outer loop
      vertex 0 0 0
      vertex 4.5 0 4.1
      vertex 0 0 8
    endloop
  endfacet
  facet normal 0 -1 0
    outer loop
      vertex 12.1 0 4.1
      vertex 13.5 0 8
      vertex 12.1 0 8
    endloop
  endfacet
  facet normal 0 -1 -0
    outer loop
      vertex 13.5 0 8
      vertex 12.1 0 4.1
      vertex 13.5 0 4.1
    endloop
  endfacet
  facet normal 0 -1 0
    outer loop
      vertex 21.1 0 4.1
      vertex 22.5 0 8
      vertex 21.1 0 8
    endloop
  endfacet
  facet normal 0 -1 -0
    outer loop
      vertex 22.5 0 8
      vertex 21.1 0 4.1
      vertex 22.5 0 4.1
    endloop
  endfacet
  facet normal 0 -1 0
    outer loop
      vertex 30.1 0 4.1
      vertex 31.5 0 8
      vertex 30.1 0 8
    endloop
  endfacet
  facet normal 0 -1 -0
    outer loop
      vertex 31.5 0 8
      vertex 30.1 0 4.1
      vertex 31.5 0 4.1
    endloop
  endfacet
  facet normal 0 -1 0
    outer loop
      vertex 39.1 0 4.1
      vertex 43 0 8
      vertex 39.1 0 8
    endloop
  endfacet
  facet normal 0 -1 0
    outer loop
      vertex 39.1 0 4.1
      vertex 43 0 0
      vertex 43 0 8
    endloop
  endfacet
  facet normal 0 -1 0
    outer loop
      vertex 31.5 0 4.1
      vertex 43 0 0
      vertex 39.1 0 4.1
    endloop
  endfacet
  facet normal -1 0 0
    outer loop
      vertex 41.5 2.5 3.1
      vertex 41.5 7.5 1.5
      vertex 41.5 2.5 1.5
    endloop
  endfacet
  facet normal -1 0 0
    outer loop
      vertex 41.5 20.5 1.5
      vertex 41.5 16.5 1.5
      vertex 41.5 20.5 3.1
    endloop
  endfacet
  facet normal -1 0 0
    outer loop
      vertex 41.5 20.5 3.1
      vertex 41.5 21.5 8
      vertex 41.5 21.5 3.1
    endloop
  endfacet
  facet normal -1 0 0
    outer loop
      vertex 41.5 16.5 7.5
      vertex 41.5 20.5 3.1
      vertex 41.5 16.5 1.5
    endloop
  endfacet
  facet normal -1 0 0
    outer loop
      vertex 41.5 20.5 3.1
      vertex 41.5 16.5 7.5
      vertex 41.5 21.5 8
    endloop
  endfacet
  facet normal -1 0 0
    outer loop
      vertex 41.5 7.5 7.5
      vertex 41.5 21.5 8
      vertex 41.5 16.5 7.5
    endloop
  endfacet
  facet normal -1 0 0
    outer loop
      vertex 41.5 7.5 1.5
      vertex 41.5 2.5 3.1
      vertex 41.5 7.5 7.5
    endloop
  endfacet
  facet normal -1 0 0
    outer loop
      vertex 41.5 1.5 8
      vertex 41.5 2.5 3.1
      vertex 41.5 1.5 3.1
    endloop
  endfacet
  facet normal -1 0 0
    outer loop
      vertex 41.5 7.5 7.5
      vertex 41.5 1.5 8
      vertex 41.5 21.5 8
    endloop
  endfacet
  facet normal -1 0 0
    outer loop
      vertex 41.5 2.5 3.1
      vertex 41.5 1.5 8
      vertex 41.5 7.5 7.5
    endloop
  endfacet
  facet normal -0 0 1
    outer loop
      vertex 1.5 20.5 1.5
      vertex 41.5 16.5 1.5
      vertex 41.5 20.5 1.5
    endloop
  endfacet
  facet normal 0 0 1
    outer loop
      vertex 41.5 16.5 1.5
      vertex 1.5 20.5 1.5
      vertex 41.5 7.5 1.5
    endloop
  endfacet
  facet normal 0 0 1
    outer loop
      vertex 1.5 2.5 1.5
      vertex 41.5 7.5 1.5
      vertex 1.5 20.5 1.5
    endloop
  endfacet
  facet normal 0 0 1
    outer loop
      vertex 41.5 7.5 1.5
      vertex 1.5 2.5 1.5
      vertex 41.5 2.5 1.5
    endloop
  endfacet
  facet normal -0 0 1
    outer loop
      vertex 41.5 16.5 1.5
      vertex 43 7.5 1.5
      vertex 43 16.5 1.5
    endloop
  endfacet
  facet normal 0 0 1
    outer loop
      vertex 43 7.5 1.5
      vertex 41.5 16.5 1.5
      vertex 41.5 7.5 1.5
    endloop
  endfacet
  facet normal -0 0 1
    outer loop
      vertex 13.5 23 1.5
      vertex 29.5 21.5 1.5
      vertex 29.5 23 1.5
    endloop
  endfacet
  facet normal 0 0 1
    outer loop
      vertex 29.5 21.5 1.5
      vertex 13.5 23 1.5
      vertex 13.5 21.5 1.5
    endloop
  endfacet
  facet normal 1 0 0
    outer loop
      vertex 1.5 21.5 8
      vertex 1.5 20.5 3.1
      vertex 1.5 21.5 3.1
    endloop
  endfacet
  facet normal 1 0 0
    outer loop
      vertex 1.5 20.5 3.1
      vertex 1.5 2.5 3.1
      vertex 1.5 20.5 1.5
    endloop
  endfacet
  facet normal 1 0 0
    outer loop
      vertex 1.5 21.5 8
      vertex 1.5 2.5 3.1
      vertex 1.5 20.5 3.1
    endloop
  endfacet
  facet normal 1 -0 0
    outer loop
      vertex 1.5 1.5 8
      vertex 1.5 2.5 3.1
      vertex 1.5 21.5 8
    endloop
  endfacet
  facet normal 1 0 0
    outer loop
      vertex 1.5 2.5 3.1
      vertex 1.5 1.5 8
      vertex 1.5 1.5 3.1
    endloop
  endfacet
  facet normal 1 0 0
    outer loop
      vertex 1.5 20.5 1.5
      vertex 1.5 2.5 3.1
      vertex 1.5 2.5 1.5
    endloop
  endfacet
  facet normal 0 -1 0
    outer loop
      vertex 1.5 21.5 8
      vertex 13.5 21.5 7.5
      vertex 41.5 21.5 8
    endloop
  endfacet
  facet normal 0 -1 0
    outer loop
      vertex 1.5 21.5 3.1
      vertex 13.5 21.5 7.5
      vertex 1.5 21.5 8
    endloop
  endfacet
  facet normal 0 -1 -0
    outer loop
      vertex 13.5 21.5 7.5
      vertex 1.5 21.5 3.1
      vertex 13.5 21.5 3.1
    endloop
  endfacet
  facet normal 0 -1 0
    outer loop
      vertex 29.5 21.5 7.5
      vertex 41.5 21.5 8
      vertex 13.5 21.5 7.5
    endloop
  endfacet
  facet normal 0 -1 0
    outer loop
      vertex 41.5 21.5 3.1
      vertex 29.5 21.5 7.5
      vertex 29.5 21.5 3.1
    endloop
  endfacet
  facet normal 0 -1 0
    outer loop
      vertex 29.5 21.5 7.5
      vertex 41.5 21.5 3.1
      vertex 41.5 21.5 8
    endloop
  endfacet
  facet normal 0 1 -0
    outer loop
      vertex 29.5 21.5 1.5
      vertex 13.5 21.5 3.1
      vertex 29.5 21.5 3.1
    endloop
  endfacet
  facet normal 0 1 0
    outer loop
      vertex 13.5 21.5 3.1
      vertex 29.5 21.5 1.5
      vertex 13.5 21.5 1.5
    endloop
  endfacet
  facet normal 0 1 0
    outer loop
      vertex 41.5 1.5 8
      vertex 39.1 1.5 4.1
      vertex 39.1 1.5 8
    endloop
  endfacet
  facet normal 0 1 0
    outer loop
      vertex 41.5 1.5 3.1
      vertex 31.5 1.5 4.1
      vertex 39.1 1.5 4.1
    endloop
  endfacet
  facet normal 0 1 0
    outer loop
      vertex 31.5 1.5 4.1
      vertex 41.5 1.5 3.1
      vertex 30.1 1.5 4.1
    endloop
  endfacet
  facet normal 0 1 0
    outer loop
      vertex 30.1 1.5 4.1
      vertex 41.5 1.5 3.1
      vertex 22.5 1.5 4.1
    endloop
  endfacet
  facet normal 0 1 0
    outer loop
      vertex 22.5 1.5 4.1
      vertex 41.5 1.5 3.1
      vertex 21.1 1.5 4.1
    endloop
  endfacet
  facet normal 0 1 0
    outer loop
      vertex 1.5 1.5 3.1
      vertex 21.1 1.5 4.1
      vertex 41.5 1.5 3.1
    endloop
  endfacet
  facet normal 0 1 0
    outer loop
      vertex 21.1 1.5 4.1
      vertex 1.5 1.5 3.1
      vertex 13.5 1.5 4.1
    endloop
  endfacet
  facet normal 0 1 0
    outer loop
      vertex 13.5 1.5 4.1
      vertex 1.5 1.5 3.1
      vertex 12.1 1.5 4.1
    endloop
  endfacet
  facet normal 0 1 -0
    outer loop
      vertex 41.5 1.5 3.1
      vertex 39.1 1.5 4.1
      vertex 41.5 1.5 8
    endloop
  endfacet
  facet normal 0 1 -0
    outer loop
      vertex 31.5 1.5 4.1
      vertex 30.1 1.5 8
      vertex 31.5 1.5 8
    endloop
  endfacet
  facet normal 0 1 0
    outer loop
      vertex 30.1 1.5 8
      vertex 31.5 1.5 4.1
      vertex 30.1 1.5 4.1
    endloop
  endfacet
  facet normal 0 1 -0
    outer loop
      vertex 22.5 1.5 4.1
      vertex 21.1 1.5 8
      vertex 22.5 1.5 8
    endloop
  endfacet
  facet normal 0 1 0
    outer loop
      vertex 21.1 1.5 8
      vertex 22.5 1.5 4.1
      vertex 21.1 1.5 4.1
    endloop
  endfacet
  facet normal 0 1 -0
    outer loop
      vertex 13.5 1.5 4.1
      vertex 12.1 1.5 8
      vertex 13.5 1.5 8
    endloop
  endfacet
  facet normal 0 1 0
    outer loop
      vertex 12.1 1.5 8
      vertex 13.5 1.5 4.1
      vertex 12.1 1.5 4.1
    endloop
  endfacet
  facet normal 0 1 -0
    outer loop
      vertex 4.5 1.5 4.1
      vertex 1.5 1.5 8
      vertex 4.5 1.5 8
    endloop
  endfacet
  facet normal 0 1 0
    outer loop
      vertex 4.5 1.5 4.1
      vertex 1.5 1.5 3.1
      vertex 1.5 1.5 8
    endloop
  endfacet
  facet normal 0 1 0
    outer loop
      vertex 12.1 1.5 4.1
      vertex 1.5 1.5 3.1
      vertex 4.5 1.5 4.1
    endloop
  endfacet
  facet normal 0 0 -1
    outer loop
      vertex 41.5 7.5 7.5
      vertex 43 16.5 7.5
      vertex 43 7.5 7.5
    endloop
  endfacet
  facet normal -0 0 -1
    outer loop
      vertex 43 16.5 7.5
      vertex 41.5 7.5 7.5
      vertex 41.5 16.5 7.5
    endloop
  endfacet
  facet normal 0 -1 0
    outer loop
      vertex 41.5 16.5 1.5
      vertex 43 16.5 7.5
      vertex 41.5 16.5 7.5
    endloop
  endfacet
  facet normal 0 -1 -0
    outer loop
      vertex 43 16.5 7.5
      vertex 41.5 16.5 1.5
      vertex 43 16.5 1.5
    endloop
  endfacet
  facet normal 0 1 -0
    outer loop
      vertex 43 7.5 1.5
      vertex 41.5 7.5 7.5
      vertex 43 7.5 7.5
    endloop
  endfacet
  facet normal 0 1 0
    outer loop
      vertex 41.5 7.5 7.5
      vertex 43 7.5 1.5
      vertex 41.5 7.5 1.5
    endloop
  endfacet
  facet normal -1 0 0
    outer loop
      vertex 29.5 21.5 3.1
      vertex 29.5 23 1.5
      vertex 29.5 21.5 1.5
    endloop
  endfacet
  facet normal -1 0 0
    outer loop
      vertex 29.5 23 1.5
      vertex 29.5 21.5 3.1
      vertex 29.5 23 7.5
    endloop
  endfacet
  facet normal -1 -0 0
    outer loop
      vertex 29.5 23 7.5
      vertex 29.5 21.5 3.1
      vertex 29.5 21.5 7.5
    endloop
  endfacet
  facet normal 0 0 -1
    outer loop
      vertex 13.5 21.5 7.5
      vertex 29.5 23 7.5
      vertex 29.5 21.5 7.5
    endloop
  endfacet
  facet normal -0 0 -1
    outer loop
      vertex 29.5 23 7.5
      vertex 13.5 21.5 7.5
      vertex 13.5 23 7.5
    endloop
  endfacet
  facet normal 1 0 0
    outer loop
      vertex 13.5 21.5 3.1
      vertex 13.5 23 7.5
      vertex 13.5 21.5 7.5
    endloop
  endfacet
  facet normal 1 0 0
    outer loop
      vertex 13.5 23 7.5
      vertex 13.5 21.5 3.1
      vertex 13.5 23 1.5
    endloop
  endfacet
  facet normal 1 0 0
    outer loop
      vertex 13.5 23 1.5
      vertex 13.5 21.5 3.1
      vertex 13.5 21.5 1.5
    endloop
  endfacet
  facet normal -0 0 1
    outer loop
      vertex 1.5 2.5 3.1
      vertex 41.5 1.5 3.1
      vertex 41.5 2.5 3.1
    endloop
  endfacet
  facet normal 0 0 1
    outer loop
      vertex 41.5 1.5 3.1
      vertex 1.5 2.5 3.1
      vertex 1.5 1.5 3.1
    endloop
  endfacet
  facet normal 0 1 -0
    outer loop
      vertex 41.5 2.5 1.5
      vertex 1.5 2.5 3.1
      vertex 41.5 2.5 3.1
    endloop
  endfacet
  facet normal 0 1 0
    outer loop
      vertex 1.5 2.5 3.1
      vertex 41.5 2.5 1.5
      vertex 1.5 2.5 1.5
    endloop
  endfacet
  facet normal -0 0 1
    outer loop
      vertex 29.5 21.5 3.1
      vertex 41.5 20.5 3.1
      vertex 41.5 21.5 3.1
    endloop
  endfacet
  facet normal -0 0 1
    outer loop
      vertex 13.5 21.5 3.1
      vertex 41.5 20.5 3.1
      vertex 29.5 21.5 3.1
    endloop
  endfacet
  facet normal 0 0 1
    outer loop
      vertex 1.5 20.5 3.1
      vertex 13.5 21.5 3.1
      vertex 1.5 21.5 3.1
    endloop
  endfacet
  facet normal 0 0 1
    outer loop
      vertex 13.5 21.5 3.1
      vertex 1.5 20.5 3.1
      vertex 41.5 20.5 3.1
    endloop
  endfacet
  facet normal 0 -1 0
    outer loop
      vertex 1.5 20.5 1.5
      vertex 41.5 20.5 3.1
      vertex 1.5 20.5 3.1
    endloop
  endfacet
  facet normal 0 -1 -0
    outer loop
      vertex 41.5 20.5 3.1
      vertex 1.5 20.5 1.5
      vertex 41.5 20.5 1.5
    endloop
  endfacet
  facet normal 1 -0 0
    outer loop
      vertex 43 0 11.5
      vertex 43 23 10
      vertex 43 23 11.5
    endloop
  endfacet
  facet normal 1 0 0
    outer loop
      vertex 43 23 10
      vertex 43 0 11.5
      vertex 43 0 10
    endloop
  endfacet
  facet normal -0 0 1
    outer loop
      vertex 0 23 11.5
      vertex 43 0 11.5
      vertex 43 23 11.5
    endloop
  endfacet
  facet normal 0 0 1
    outer loop
      vertex 43 0 11.5
      vertex 0 23 11.5
      vertex 0 0 11.5
    endloop
  endfacet
  facet normal 0 0 -1
    outer loop
      vertex 43 0 10
      vertex 41.2 1.8 10
      vertex 43 23 10
    endloop
  endfacet
  facet normal 0 0 -1
    outer loop
      vertex 43 0 10
      vertex 1.8 1.8 10
      vertex 41.2 1.8 10
    endloop
  endfacet
  facet normal -0 0 -1
    outer loop
      vertex 1.8 1.8 10
      vertex 0 0 10
      vertex 1.8 21.2 10
    endloop
  endfacet
  facet normal 0 0 -1
    outer loop
      vertex 0 0 10
      vertex 1.8 1.8 10
      vertex 43 0 10
    endloop
  endfacet
  facet normal 0 0 -1
    outer loop
      vertex 41.2 21.2 10
      vertex 43 23 10
      vertex 41.2 1.8 10
    endloop
  endfacet
  facet normal 0 0 -1
    outer loop
      vertex 1.8 21.2 10
      vertex 43 23 10
      vertex 41.2 21.2 10
    endloop
  endfacet
  facet normal 0 0 -1
    outer loop
      vertex 1.8 21.2 10
      vertex 0 23 10
      vertex 43 23 10
    endloop
  endfacet
  facet normal 0 0 -1
    outer loop
      vertex 0 23 10
      vertex 1.8 21.2 10
      vertex 0 0 10
    endloop
  endfacet
  facet normal -1 0 0
    outer loop
      vertex 0 0 10
      vertex 0 23 11.5
      vertex 0 23 10
    endloop
  endfacet
  facet normal -1 -0 0
    outer loop
      vertex 0 23 11.5
      vertex 0 0 10
      vertex 0 0 11.5
    endloop
  endfacet
  facet normal 0 1 -0
    outer loop
      vertex 43 23 10
      vertex 0 23 11.5
      vertex 43 23 11.5
    endloop
  endfacet
  facet normal 0 1 0
    outer loop
      vertex 0 23 11.5
      vertex 43 23 10
      vertex 0 23 10
    endloop
  endfacet
  facet normal 0 -1 0
    outer loop
      vertex 0 0 10
      vertex 43 0 11.5
      vertex 0 0 11.5
    endloop
  endfacet
  facet normal 0 -1 -0
    outer loop
      vertex 43 0 11.5
      vertex 0 0 10
      vertex 43 0 10
    endloop
  endfacet
  facet normal -1 0 0
    outer loop
      vertex 41.2 1.8 10
      vertex 41.2 21.2 10.7
      vertex 41.2 21.2 10
    endloop
  endfacet
  facet normal -1 -0 0
    outer loop
      vertex 41.2 21.2 10.7
      vertex 41.2 1.8 10
      vertex 41.2 1.8 10.7
    endloop
  endfacet
  facet normal 0 0 -1
    outer loop
      vertex 1.8 1.8 10.7
      vertex 41.2 21.2 10.7
      vertex 41.2 1.8 10.7
    endloop
  endfacet
  facet normal -0 0 -1
    outer loop
      vertex 41.2 21.2 10.7
      vertex 1.8 1.8 10.7
      vertex 1.8 21.2 10.7
    endloop
  endfacet
  facet normal 1 -0 0
    outer loop
      vertex 1.8 1.8 10.7
      vertex 1.8 21.2 10
      vertex 1.8 21.2 10.7
    endloop
  endfacet
  facet normal 1 0 0
    outer loop
      vertex 1.8 21.2 10
      vertex 1.8 1.8 10.7
      vertex 1.8 1.8 10
    endloop
  endfacet
  facet normal 0 -1 0
    outer loop
      vertex 1.8 21.2 10
      vertex 41.2 21.2 10.7
      vertex 1.8 21.2 10.7
    endloop
  endfacet
  facet normal 0 -1 -0
    outer loop
      vertex 41.2 21.2 10.7
      vertex 1.8 21.2 10
      vertex 41.2 21.2 10
    endloop
  endfacet
  facet normal 0 1 -0
    outer loop
      vertex 41.2 1.8 10
      vertex 1.8 1.8 10.7
      vertex 41.2 1.8 10.7
    endloop
  endfacet
  facet normal 0 1 0
    outer loop
      vertex 1.8 1.8 10.7
      vertex 41.2 1.8 10
      vertex 1.8 1.8 10
    endloop
  endfacet
  facet normal 1 -0 0
    outer loop
      vertex 41.2 1.8 10.1
      vertex 41.2 21.2 9.3
      vertex 41.2 21.2 10.1
    endloop
  endfacet
  facet normal 1 0 0
    outer loop
      vertex 41.2 21.2 9.3
      vertex 41.2 1.8 10.1
      vertex 41.2 1.8 9.3
    endloop
  endfacet
  facet normal 0 0 1
    outer loop
      vertex 41.2 21.2 10.1
      vertex 40.4 20.4 10.1
      vertex 41.2 1.8 10.1
    endloop
  endfacet
  facet normal 0 0 1
    outer loop
      vertex 41.2 21.2 10.1
      vertex 2.6 20.4 10.1
      vertex 40.4 20.4 10.1
    endloop
  endfacet
  facet normal 0 0 1
    outer loop
      vertex 2.6 20.4 10.1
      vertex 1.8 21.2 10.1
      vertex 2.6 2.6 10.1
    endloop
  endfacet
  facet normal -0 0 1
    outer loop
      vertex 1.8 21.2 10.1
      vertex 2.6 20.4 10.1
      vertex 41.2 21.2 10.1
    endloop
  endfacet
  facet normal -0 0 1
    outer loop
      vertex 40.4 2.6 10.1
      vertex 41.2 1.8 10.1
      vertex 40.4 20.4 10.1
    endloop
  endfacet
  facet normal -0 0 1
    outer loop
      vertex 2.6 2.6 10.1
      vertex 41.2 1.8 10.1
      vertex 40.4 2.6 10.1
    endloop
  endfacet
  facet normal 0 0 1
    outer loop
      vertex 2.6 2.6 10.1
      vertex 1.8 1.8 10.1
      vertex 41.2 1.8 10.1
    endloop
  endfacet
  facet normal 0 0 1
    outer loop
      vertex 1.8 1.8 10.1
      vertex 2.6 2.6 10.1
      vertex 1.8 21.2 10.1
    endloop
  endfacet
  facet normal 0 0 -1
    outer loop
      vertex 41.2 1.8 9.3
      vertex 40.4 2.6 9.3
      vertex 41.2 21.2 9.3
    endloop
  endfacet
  facet normal 0 0 -1
    outer loop
      vertex 41.2 1.8 9.3
      vertex 2.6 2.6 9.3
      vertex 40.4 2.6 9.3
    endloop
  endfacet
  facet normal -0 0 -1
    outer loop
      vertex 2.6 2.6 9.3
      vertex 1.8 1.8 9.3
      vertex 2.6 20.4 9.3
    endloop
  endfacet
  facet normal 0 0 -1
    outer loop
      vertex 1.8 1.8 9.3
      vertex 2.6 2.6 9.3
      vertex 41.2 1.8 9.3
    endloop
  endfacet
  facet normal 0 0 -1
    outer loop
      vertex 40.4 20.4 9.3
      vertex 41.2 21.2 9.3
      vertex 40.4 2.6 9.3
    endloop
  endfacet
  facet normal 0 0 -1
    outer loop
      vertex 2.6 20.4 9.3
      vertex 41.2 21.2 9.3
      vertex 40.4 20.4 9.3
    endloop
  endfacet
  facet normal 0 0 -1
    outer loop
      vertex 2.6 20.4 9.3
      vertex 1.8 21.2 9.3
      vertex 41.2 21.2 9.3
    endloop
  endfacet
  facet normal 0 0 -1
    outer loop
      vertex 1.8 21.2 9.3
      vertex 2.6 20.4 9.3
      vertex 1.8 1.8 9.3
    endloop
  endfacet
  facet normal -1 0 0
    outer loop
      vertex 1.8 1.8 9.3
      vertex 1.8 21.2 10.1
      vertex 1.8 21.2 9.3
    endloop
  endfacet
  facet normal -1 -0 0
    outer loop
      vertex 1.8 21.2 10.1
      vertex 1.8 1.8 9.3
      vertex 1.8 1.8 10.1
    endloop
  endfacet
  facet normal 0 1 -0
    outer loop
      vertex 41.2 21.2 9.3
      vertex 1.8 21.2 10.1
      vertex 41.2 21.2 10.1
    endloop
  endfacet
  facet normal 0 1 0
    outer loop
      vertex 1.8 21.2 10.1
      vertex 41.2 21.2 9.3
      vertex 1.8 21.2 9.3
    endloop
  endfacet
  facet normal 0 -1 0
    outer loop
      vertex 1.8 1.8 9.3
      vertex 41.2 1.8 10.1
      vertex 1.8 1.8 10.1
    endloop
  endfacet
  facet normal 0 -1 -0
    outer loop
      vertex 41.2 1.8 10.1
      vertex 1.8 1.8 9.3
      vertex 41.2 1.8 9.3
    endloop
  endfacet
  facet normal -1 0 0
    outer loop
      vertex 40.4 2.6 9.3
      vertex 40.4 20.4 10.1
      vertex 40.4 20.4 9.3
    endloop
  endfacet
  facet normal -1 -0 0
    outer loop
      vertex 40.4 20.4 10.1
      vertex 40.4 2.6 9.3
      vertex 40.4 2.6 10.1
    endloop
  endfacet
  facet normal 1 -0 0
    outer loop
      vertex 2.6 2.6 10.1
      vertex 2.6 20.4 9.3
      vertex 2.6 20.4 10.1
    endloop
  endfacet
  facet normal 1 0 0
    outer loop
      vertex 2.6 20.4 9.3
      vertex 2.6 2.6 10.1
      vertex 2.6 2.6 9.3
    endloop
  endfacet
  facet normal 0 -1 0
    outer loop
      vertex 2.6 20.4 9.3
      vertex 40.4 20.4 10.1
      vertex 2.6 20.4 10.1
    endloop
  endfacet
  facet normal 0 -1 -0
    outer loop
      vertex 40.4 20.4 10.1
      vertex 2.6 20.4 9.3
      vertex 40.4 20.4 9.3
    endloop
  endfacet
  facet normal 0 1 -0
    outer loop
      vertex 40.4 2.6 9.3
      vertex 2.6 2.6 10.1
      vertex 40.4 2.6 10.1
    endloop
  endfacet
  facet normal 0 1 0
    outer loop
      vertex 2.6 2.6 10.1
      vertex 40.4 2.6 9.3
      vertex 2.6 2.6 9.3
    endloop
  endfacet
endsolid OpenSCAD_Model
