solid OpenSCAD_Model
  facet normal 0.104602 -0.994514 0
    outer loop
      vertex 24.5 -27.5 0
      vertex 25.1237 -27.4344 7
      vertex 24.5 -27.5 7
    endloop
  endfacet
  facet normal 0.104602 -0.994514 0
    outer loop
      vertex 25.1237 -27.4344 7
      vertex 24.5 -27.5 0
      vertex 25.1237 -27.4344 0
    endloop
  endfacet
  facet normal 0.156411 0.987692 -0
    outer loop
      vertex 25.427 27.3532 0
      vertex 24.5 27.5 7
      vertex 25.427 27.3532 7
    endloop
  endfacet
  facet normal 0.156411 0.987692 0
    outer loop
      vertex 24.5 27.5 7
      vertex 25.427 27.3532 0
      vertex 24.5 27.5 0
    endloop
  endfacet
  facet normal -0.156411 -0.987692 0
    outer loop
      vertex -25.427 -27.3532 0
      vertex -24.5 -27.5 7
      vertex -25.427 -27.3532 7
    endloop
  endfacet
  facet normal -0.156411 -0.987692 -0
    outer loop
      vertex -24.5 -27.5 7
      vertex -25.427 -27.3532 0
      vertex -24.5 -27.5 0
    endloop
  endfacet
  facet normal 0 0 1
    outer loop
      vertex 25.5184 24.4541 7
      vertex 27.5 24.5 7
      vertex 27.4344 25.1237 7
    endloop
  endfacet
  facet normal 0 0 1
    outer loop
      vertex 27.5 24.5 7
      vertex 25.7 23.6 7
      vertex 27.5 -24.5 7
    endloop
  endfacet
  facet normal 0 0 1
    outer loop
      vertex 25.5184 24.4541 7
      vertex 27.4344 25.1237 7
      vertex 27.2406 25.7202 7
    endloop
  endfacet
  facet normal 0 0 1
    outer loop
      vertex 27.5 -24.5 7
      vertex 25.7 23.6 7
      vertex 25.7 -23.6 7
    endloop
  endfacet
  facet normal 0 0 1
    outer loop
      vertex 25.2989 24.8343 7
      vertex 27.2406 25.7202 7
      vertex 26.927 26.2634 7
    endloop
  endfacet
  facet normal -0 0 1
    outer loop
      vertex 25.5972 -24.2489 7
      vertex 27.5 -24.5 7
      vertex 25.7 -23.6 7
    endloop
  endfacet
  facet normal 0 0 1
    outer loop
      vertex 25.0052 25.1606 7
      vertex 26.927 26.2634 7
      vertex 26.5074 26.7294 7
    endloop
  endfacet
  facet normal 0 0 1
    outer loop
      vertex 27.5 -24.5 7
      vertex 25.5972 -24.2489 7
      vertex 27.3532 -25.427 7
    endloop
  endfacet
  facet normal 0 0 1
    outer loop
      vertex 25.0052 25.1606 7
      vertex 26.5074 26.7294 7
      vertex 26 27.0981 7
    endloop
  endfacet
  facet normal -0 0 1
    outer loop
      vertex 25.4186 -24.65 7
      vertex 27.3532 -25.427 7
      vertex 25.5972 -24.2489 7
    endloop
  endfacet
  facet normal 0 0 1
    outer loop
      vertex 27.3532 -25.427 7
      vertex 25.4186 -24.65 7
      vertex 27.0981 -26 7
    endloop
  endfacet
  facet normal 0 0 1
    outer loop
      vertex 27.5 24.5 7
      vertex 25.6541 24.0366 7
      vertex 25.7 23.6 7
    endloop
  endfacet
  facet normal 0 0 1
    outer loop
      vertex 27.5 24.5 7
      vertex 25.5184 24.4541 7
      vertex 25.6541 24.0366 7
    endloop
  endfacet
  facet normal 0 0 1
    outer loop
      vertex 24.65 25.4186 7
      vertex 26 27.0981 7
      vertex 25.427 27.3532 7
    endloop
  endfacet
  facet normal 0 0 1
    outer loop
      vertex 27.2406 25.7202 7
      vertex 25.2989 24.8343 7
      vertex 25.5184 24.4541 7
    endloop
  endfacet
  facet normal 0 0 1
    outer loop
      vertex 26.927 26.2634 7
      vertex 25.0052 25.1606 7
      vertex 25.2989 24.8343 7
    endloop
  endfacet
  facet normal 0 0 1
    outer loop
      vertex 26 27.0981 7
      vertex 24.65 25.4186 7
      vertex 25.0052 25.1606 7
    endloop
  endfacet
  facet normal 0 0 1
    outer loop
      vertex 24.2489 25.5972 7
      vertex 25.427 27.3532 7
      vertex 24.5 27.5 7
    endloop
  endfacet
  facet normal 0 0 1
    outer loop
      vertex 25.427 27.3532 7
      vertex 24.2489 25.5972 7
      vertex 24.65 25.4186 7
    endloop
  endfacet
  facet normal 0 0 1
    outer loop
      vertex 24.5 27.5 7
      vertex 23.6 25.7 7
      vertex 24.2489 25.5972 7
    endloop
  endfacet
  facet normal 0 0 1
    outer loop
      vertex 24.5 27.5 7
      vertex -23.6 25.7 7
      vertex 23.6 25.7 7
    endloop
  endfacet
  facet normal -0 0 1
    outer loop
      vertex -24.5 27.5 7
      vertex -23.6 25.7 7
      vertex 24.5 27.5 7
    endloop
  endfacet
  facet normal 0 0 1
    outer loop
      vertex -24.5 27.5 7
      vertex -24.0366 25.6541 7
      vertex -23.6 25.7 7
    endloop
  endfacet
  facet normal 0 0 1
    outer loop
      vertex -24.5 27.5 7
      vertex -24.4541 25.5184 7
      vertex -24.0366 25.6541 7
    endloop
  endfacet
  facet normal -0 0 1
    outer loop
      vertex -25.1237 27.4344 7
      vertex -24.4541 25.5184 7
      vertex -24.5 27.5 7
    endloop
  endfacet
  facet normal -0 0 1
    outer loop
      vertex -25.7202 27.2406 7
      vertex -24.4541 25.5184 7
      vertex -25.1237 27.4344 7
    endloop
  endfacet
  facet normal 0 0 1
    outer loop
      vertex -24.4541 25.5184 7
      vertex -25.7202 27.2406 7
      vertex -24.8343 25.2989 7
    endloop
  endfacet
  facet normal -0 0 1
    outer loop
      vertex -26.2634 26.927 7
      vertex -24.8343 25.2989 7
      vertex -25.7202 27.2406 7
    endloop
  endfacet
  facet normal 0 0 1
    outer loop
      vertex -24.8343 25.2989 7
      vertex -26.2634 26.927 7
      vertex -25.1606 25.0052 7
    endloop
  endfacet
  facet normal -0 0 1
    outer loop
      vertex -26.7294 26.5074 7
      vertex -25.1606 25.0052 7
      vertex -26.2634 26.927 7
    endloop
  endfacet
  facet normal 0 0 1
    outer loop
      vertex -25.1606 25.0052 7
      vertex -27.0981 26 7
      vertex -25.4186 24.65 7
    endloop
  endfacet
  facet normal -0 0 1
    outer loop
      vertex -27.0981 26 7
      vertex -25.1606 25.0052 7
      vertex -26.7294 26.5074 7
    endloop
  endfacet
  facet normal -0 0 1
    outer loop
      vertex 25.1606 -25.0052 7
      vertex 27.0981 -26 7
      vertex 25.4186 -24.65 7
    endloop
  endfacet
  facet normal 0 0 1
    outer loop
      vertex 27.0981 -26 7
      vertex 25.1606 -25.0052 7
      vertex 26.7294 -26.5074 7
    endloop
  endfacet
  facet normal 0 0 1
    outer loop
      vertex 26.7294 -26.5074 7
      vertex 25.1606 -25.0052 7
      vertex 26.2634 -26.927 7
    endloop
  endfacet
  facet normal -0 0 1
    outer loop
      vertex 24.8343 -25.2989 7
      vertex 26.2634 -26.927 7
      vertex 25.1606 -25.0052 7
    endloop
  endfacet
  facet normal 0 0 1
    outer loop
      vertex 26.2634 -26.927 7
      vertex 24.8343 -25.2989 7
      vertex 25.7202 -27.2406 7
    endloop
  endfacet
  facet normal -0 0 1
    outer loop
      vertex 24.4541 -25.5184 7
      vertex 25.7202 -27.2406 7
      vertex 24.8343 -25.2989 7
    endloop
  endfacet
  facet normal 0 0 1
    outer loop
      vertex 25.7202 -27.2406 7
      vertex 24.4541 -25.5184 7
      vertex 25.1237 -27.4344 7
    endloop
  endfacet
  facet normal 0 0 1
    outer loop
      vertex 25.1237 -27.4344 7
      vertex 24.4541 -25.5184 7
      vertex 24.5 -27.5 7
    endloop
  endfacet
  facet normal -0 0 1
    outer loop
      vertex 24.0366 -25.6541 7
      vertex 24.5 -27.5 7
      vertex 24.4541 -25.5184 7
    endloop
  endfacet
  facet normal -0 0 1
    outer loop
      vertex 23.6 -25.7 7
      vertex 24.5 -27.5 7
      vertex 24.0366 -25.6541 7
    endloop
  endfacet
  facet normal -0 0 1
    outer loop
      vertex -23.6 -25.7 7
      vertex 24.5 -27.5 7
      vertex 23.6 -25.7 7
    endloop
  endfacet
  facet normal 0 0 1
    outer loop
      vertex -23.6 -25.7 7
      vertex -24.5 -27.5 7
      vertex 24.5 -27.5 7
    endloop
  endfacet
  facet normal 0 0 1
    outer loop
      vertex -24.2489 -25.5972 7
      vertex -24.5 -27.5 7
      vertex -23.6 -25.7 7
    endloop
  endfacet
  facet normal 0 0 1
    outer loop
      vertex -25.427 -27.3532 7
      vertex -24.2489 -25.5972 7
      vertex -24.65 -25.4186 7
    endloop
  endfacet
  facet normal 0 0 1
    outer loop
      vertex -26 -27.0981 7
      vertex -24.65 -25.4186 7
      vertex -25.0052 -25.1606 7
    endloop
  endfacet
  facet normal 0 0 1
    outer loop
      vertex -26.927 -26.2634 7
      vertex -25.0052 -25.1606 7
      vertex -25.2989 -24.8343 7
    endloop
  endfacet
  facet normal 0 0 1
    outer loop
      vertex -24.2489 -25.5972 7
      vertex -25.427 -27.3532 7
      vertex -24.5 -27.5 7
    endloop
  endfacet
  facet normal 0 0 1
    outer loop
      vertex -27.2406 -25.7202 7
      vertex -25.2989 -24.8343 7
      vertex -25.5184 -24.4541 7
    endloop
  endfacet
  facet normal 0 0 1
    outer loop
      vertex -27.5 -24.5 7
      vertex -25.5184 -24.4541 7
      vertex -25.6541 -24.0366 7
    endloop
  endfacet
  facet normal 0 0 1
    outer loop
      vertex -27.5 -24.5 7
      vertex -25.6541 -24.0366 7
      vertex -25.7 -23.6 7
    endloop
  endfacet
  facet normal 0 0 1
    outer loop
      vertex -24.65 -25.4186 7
      vertex -26 -27.0981 7
      vertex -25.427 -27.3532 7
    endloop
  endfacet
  facet normal 0 0 1
    outer loop
      vertex -25.7 23.6 7
      vertex -27.5 24.5 7
      vertex -25.7 -23.6 7
    endloop
  endfacet
  facet normal -0 0 1
    outer loop
      vertex -27.3532 25.427 7
      vertex -25.4186 24.65 7
      vertex -27.0981 26 7
    endloop
  endfacet
  facet normal 0 0 1
    outer loop
      vertex -25.7 -23.6 7
      vertex -27.5 24.5 7
      vertex -27.5 -24.5 7
    endloop
  endfacet
  facet normal 0 0 1
    outer loop
      vertex -25.4186 24.65 7
      vertex -27.3532 25.427 7
      vertex -25.5972 24.2489 7
    endloop
  endfacet
  facet normal 0 0 1
    outer loop
      vertex -25.5184 -24.4541 7
      vertex -27.5 -24.5 7
      vertex -27.4344 -25.1237 7
    endloop
  endfacet
  facet normal -0 0 1
    outer loop
      vertex -27.5 24.5 7
      vertex -25.5972 24.2489 7
      vertex -27.3532 25.427 7
    endloop
  endfacet
  facet normal 0 0 1
    outer loop
      vertex -25.0052 -25.1606 7
      vertex -26.5074 -26.7294 7
      vertex -26 -27.0981 7
    endloop
  endfacet
  facet normal 0 0 1
    outer loop
      vertex -25.5972 24.2489 7
      vertex -27.5 24.5 7
      vertex -25.7 23.6 7
    endloop
  endfacet
  facet normal 0 0 1
    outer loop
      vertex -25.0052 -25.1606 7
      vertex -26.927 -26.2634 7
      vertex -26.5074 -26.7294 7
    endloop
  endfacet
  facet normal 0 0 1
    outer loop
      vertex -25.2989 -24.8343 7
      vertex -27.2406 -25.7202 7
      vertex -26.927 -26.2634 7
    endloop
  endfacet
  facet normal 0 0 1
    outer loop
      vertex -25.5184 -24.4541 7
      vertex -27.4344 -25.1237 7
      vertex -27.2406 -25.7202 7
    endloop
  endfacet
  facet normal -1 0 0
    outer loop
      vertex -27.5 -24.5 0
      vertex -27.5 24.5 7
      vertex -27.5 24.5 0
    endloop
  endfacet
  facet normal -1 -0 0
    outer loop
      vertex -27.5 24.5 7
      vertex -27.5 -24.5 0
      vertex -27.5 -24.5 7
    endloop
  endfacet
  facet normal 0.994514 0.104602 0
    outer loop
      vertex 27.5 24.5 7
      vertex 27.4344 25.1237 0
      vertex 27.4344 25.1237 7
    endloop
  endfacet
  facet normal 0.994514 0.104602 0
    outer loop
      vertex 27.4344 25.1237 0
      vertex 27.5 24.5 7
      vertex 27.5 24.5 0
    endloop
  endfacet
  facet normal 0 0 -1
    outer loop
      vertex 17.5 0 0
      vertex 27.5 24.5 0
      vertex 27.5 -24.5 0
    endloop
  endfacet
  facet normal 0 0 -1
    outer loop
      vertex 24.5 -27.5 0
      vertex 27.5 -24.5 0
      vertex 27.3532 -25.427 0
    endloop
  endfacet
  facet normal 0 0 -1
    outer loop
      vertex 17.1176 3.63845 0
      vertex 27.5 24.5 0
      vertex 17.5 0 0
    endloop
  endfacet
  facet normal 0 0 -1
    outer loop
      vertex 24.5 -27.5 0
      vertex 27.3532 -25.427 0
      vertex 27.0981 -26 0
    endloop
  endfacet
  facet normal 0 0 -1
    outer loop
      vertex 15.987 7.11789 0
      vertex 27.5 24.5 0
      vertex 17.1176 3.63845 0
    endloop
  endfacet
  facet normal 0 0 -1
    outer loop
      vertex 24.5 -27.5 0
      vertex 27.0981 -26 0
      vertex 26.7294 -26.5074 0
    endloop
  endfacet
  facet normal 0 0 -1
    outer loop
      vertex 14.1578 10.2862 0
      vertex 27.5 24.5 0
      vertex 15.987 7.11789 0
    endloop
  endfacet
  facet normal 0 0 -1
    outer loop
      vertex 24.5 -27.5 0
      vertex 26.7294 -26.5074 0
      vertex 26.2634 -26.927 0
    endloop
  endfacet
  facet normal 0 0 -1
    outer loop
      vertex 11.7098 13.005 0
      vertex 27.5 24.5 0
      vertex 14.1578 10.2862 0
    endloop
  endfacet
  facet normal 0 0 -1
    outer loop
      vertex 24.5 -27.5 0
      vertex 26.2634 -26.927 0
      vertex 25.7202 -27.2406 0
    endloop
  endfacet
  facet normal 0 -0 -1
    outer loop
      vertex 24.5 27.5 0
      vertex 27.5 24.5 0
      vertex 11.7098 13.005 0
    endloop
  endfacet
  facet normal 0 0 -1
    outer loop
      vertex 24.5 -27.5 0
      vertex 25.7202 -27.2406 0
      vertex 25.1237 -27.4344 0
    endloop
  endfacet
  facet normal -0 0 -1
    outer loop
      vertex 27.5 -24.5 0
      vertex 24.5 -27.5 0
      vertex 11.7098 -13.005 0
    endloop
  endfacet
  facet normal 0 0 -1
    outer loop
      vertex 27.4344 25.1237 0
      vertex 24.5 27.5 0
      vertex 27.2406 25.7202 0
    endloop
  endfacet
  facet normal 0 0 -1
    outer loop
      vertex 27.2406 25.7202 0
      vertex 24.5 27.5 0
      vertex 26.927 26.2634 0
    endloop
  endfacet
  facet normal 0 0 -1
    outer loop
      vertex 27.5 -24.5 0
      vertex 17.1176 -3.63845 0
      vertex 17.5 0 0
    endloop
  endfacet
  facet normal 0 0 -1
    outer loop
      vertex 27.5 -24.5 0
      vertex 15.987 -7.11789 0
      vertex 17.1176 -3.63845 0
    endloop
  endfacet
  facet normal 0 0 -1
    outer loop
      vertex 27.5 -24.5 0
      vertex 14.1578 -10.2862 0
      vertex 15.987 -7.11789 0
    endloop
  endfacet
  facet normal 0 0 -1
    outer loop
      vertex 27.5 -24.5 0
      vertex 11.7098 -13.005 0
      vertex 14.1578 -10.2862 0
    endloop
  endfacet
  facet normal 0 0 -1
    outer loop
      vertex 24.5 -27.5 0
      vertex 8.75 -15.1554 0
      vertex 11.7098 -13.005 0
    endloop
  endfacet
  facet normal 0 0 -1
    outer loop
      vertex 24.5 -27.5 0
      vertex 5.4078 -16.6435 0
      vertex 8.75 -15.1554 0
    endloop
  endfacet
  facet normal 0 0 -1
    outer loop
      vertex 24.5 -27.5 0
      vertex 1.82925 -17.4041 0
      vertex 5.4078 -16.6435 0
    endloop
  endfacet
  facet normal 0 0 -1
    outer loop
      vertex 24.5 -27.5 0
      vertex -1.82925 -17.4041 0
      vertex 1.82925 -17.4041 0
    endloop
  endfacet
  facet normal 0 0 -1
    outer loop
      vertex -24.5 -27.5 0
      vertex -1.82925 -17.4041 0
      vertex 24.5 -27.5 0
    endloop
  endfacet
  facet normal -0 0 -1
    outer loop
      vertex -15.987 -7.11789 0
      vertex -27.5 -24.5 0
      vertex -17.1176 -3.63845 0
    endloop
  endfacet
  facet normal -0 0 -1
    outer loop
      vertex -14.1578 -10.2862 0
      vertex -27.5 -24.5 0
      vertex -15.987 -7.11789 0
    endloop
  endfacet
  facet normal -0 0 -1
    outer loop
      vertex -11.7098 -13.005 0
      vertex -27.5 -24.5 0
      vertex -14.1578 -10.2862 0
    endloop
  endfacet
  facet normal 0 0 -1
    outer loop
      vertex -27.5 -24.5 0
      vertex -11.7098 -13.005 0
      vertex -24.5 -27.5 0
    endloop
  endfacet
  facet normal -0 0 -1
    outer loop
      vertex -8.75 -15.1554 0
      vertex -24.5 -27.5 0
      vertex -11.7098 -13.005 0
    endloop
  endfacet
  facet normal -0 0 -1
    outer loop
      vertex -5.4078 -16.6435 0
      vertex -24.5 -27.5 0
      vertex -8.75 -15.1554 0
    endloop
  endfacet
  facet normal -0 0 -1
    outer loop
      vertex -1.82925 -17.4041 0
      vertex -24.5 -27.5 0
      vertex -5.4078 -16.6435 0
    endloop
  endfacet
  facet normal 0 0 -1
    outer loop
      vertex 26.927 26.2634 0
      vertex 24.5 27.5 0
      vertex 26.5074 26.7294 0
    endloop
  endfacet
  facet normal 0 0 -1
    outer loop
      vertex 26.5074 26.7294 0
      vertex 24.5 27.5 0
      vertex 26 27.0981 0
    endloop
  endfacet
  facet normal 0 0 -1
    outer loop
      vertex 26 27.0981 0
      vertex 24.5 27.5 0
      vertex 25.427 27.3532 0
    endloop
  endfacet
  facet normal 0 0 -1
    outer loop
      vertex 27.5 24.5 0
      vertex 24.5 27.5 0
      vertex 27.4344 25.1237 0
    endloop
  endfacet
  facet normal 0 0 -1
    outer loop
      vertex 8.75 15.1554 0
      vertex 24.5 27.5 0
      vertex 11.7098 13.005 0
    endloop
  endfacet
  facet normal 0 0 -1
    outer loop
      vertex 5.4078 16.6435 0
      vertex 24.5 27.5 0
      vertex 8.75 15.1554 0
    endloop
  endfacet
  facet normal 0 0 -1
    outer loop
      vertex 1.82925 17.4041 0
      vertex 24.5 27.5 0
      vertex 5.4078 16.6435 0
    endloop
  endfacet
  facet normal 0 0 -1
    outer loop
      vertex -1.82925 17.4041 0
      vertex 24.5 27.5 0
      vertex 1.82925 17.4041 0
    endloop
  endfacet
  facet normal 0 0 -1
    outer loop
      vertex -24.5 27.5 0
      vertex -1.82925 17.4041 0
      vertex -5.4078 16.6435 0
    endloop
  endfacet
  facet normal -0 0 -1
    outer loop
      vertex -17.1176 -3.63845 0
      vertex -27.5 -24.5 0
      vertex -17.5 0 0
    endloop
  endfacet
  facet normal 0 0 -1
    outer loop
      vertex -1.82925 17.4041 0
      vertex -24.5 27.5 0
      vertex 24.5 27.5 0
    endloop
  endfacet
  facet normal 0 0 -1
    outer loop
      vertex -8.75 15.1554 0
      vertex -24.5 27.5 0
      vertex -5.4078 16.6435 0
    endloop
  endfacet
  facet normal 0 0 -1
    outer loop
      vertex -11.7098 13.005 0
      vertex -24.5 27.5 0
      vertex -8.75 15.1554 0
    endloop
  endfacet
  facet normal 0 0 -1
    outer loop
      vertex -27.5 24.5 0
      vertex -11.7098 13.005 0
      vertex -14.1578 10.2862 0
    endloop
  endfacet
  facet normal 0 0 -1
    outer loop
      vertex -27.5 24.5 0
      vertex -14.1578 10.2862 0
      vertex -15.987 7.11789 0
    endloop
  endfacet
  facet normal 0 0 -1
    outer loop
      vertex -27.5 24.5 0
      vertex -15.987 7.11789 0
      vertex -17.1176 3.63845 0
    endloop
  endfacet
  facet normal 0 0 -1
    outer loop
      vertex -27.5 24.5 0
      vertex -17.5 0 0
      vertex -27.5 -24.5 0
    endloop
  endfacet
  facet normal 0 0 -1
    outer loop
      vertex -11.7098 13.005 0
      vertex -27.5 24.5 0
      vertex -24.5 27.5 0
    endloop
  endfacet
  facet normal 0 0 -1
    outer loop
      vertex -27.5 -24.5 0
      vertex -24.5 -27.5 0
      vertex -25.427 -27.3532 0
    endloop
  endfacet
  facet normal 0 0 -1
    outer loop
      vertex -17.5 0 0
      vertex -27.5 24.5 0
      vertex -17.1176 3.63845 0
    endloop
  endfacet
  facet normal 0 0 -1
    outer loop
      vertex -27.5 -24.5 0
      vertex -25.427 -27.3532 0
      vertex -26 -27.0981 0
    endloop
  endfacet
  facet normal 0 0 -1
    outer loop
      vertex -24.5 27.5 0
      vertex -27.5 24.5 0
      vertex -25.1237 27.4344 0
    endloop
  endfacet
  facet normal 0 0 -1
    outer loop
      vertex -27.5 -24.5 0
      vertex -26 -27.0981 0
      vertex -26.5074 -26.7294 0
    endloop
  endfacet
  facet normal 0 0 -1
    outer loop
      vertex -25.1237 27.4344 0
      vertex -27.5 24.5 0
      vertex -25.7202 27.2406 0
    endloop
  endfacet
  facet normal 0 0 -1
    outer loop
      vertex -27.5 -24.5 0
      vertex -26.5074 -26.7294 0
      vertex -26.927 -26.2634 0
    endloop
  endfacet
  facet normal 0 0 -1
    outer loop
      vertex -25.7202 27.2406 0
      vertex -27.5 24.5 0
      vertex -26.2634 26.927 0
    endloop
  endfacet
  facet normal 0 0 -1
    outer loop
      vertex -27.5 -24.5 0
      vertex -26.927 -26.2634 0
      vertex -27.2406 -25.7202 0
    endloop
  endfacet
  facet normal 0 0 -1
    outer loop
      vertex -26.2634 26.927 0
      vertex -27.5 24.5 0
      vertex -26.7294 26.5074 0
    endloop
  endfacet
  facet normal 0 0 -1
    outer loop
      vertex -27.5 -24.5 0
      vertex -27.2406 -25.7202 0
      vertex -27.4344 -25.1237 0
    endloop
  endfacet
  facet normal 0 0 -1
    outer loop
      vertex -26.7294 26.5074 0
      vertex -27.5 24.5 0
      vertex -27.0981 26 0
    endloop
  endfacet
  facet normal 0 0 -1
    outer loop
      vertex -27.0981 26 0
      vertex -27.5 24.5 0
      vertex -27.3532 25.427 0
    endloop
  endfacet
  facet normal -0.58784 -0.808977 0
    outer loop
      vertex -26.5074 -26.7294 0
      vertex -26 -27.0981 7
      vertex -26.5074 -26.7294 7
    endloop
  endfacet
  facet normal -0.58784 -0.808977 -0
    outer loop
      vertex -26 -27.0981 7
      vertex -26.5074 -26.7294 0
      vertex -26 -27.0981 0
    endloop
  endfacet
  facet normal 0.951063 0.308996 0
    outer loop
      vertex 27.4344 25.1237 7
      vertex 27.2406 25.7202 0
      vertex 27.2406 25.7202 7
    endloop
  endfacet
  facet normal 0.951063 0.308996 0
    outer loop
      vertex 27.2406 25.7202 0
      vertex 27.4344 25.1237 7
      vertex 27.4344 25.1237 0
    endloop
  endfacet
  facet normal 0 1 -0
    outer loop
      vertex 24.5 27.5 0
      vertex -24.5 27.5 7
      vertex 24.5 27.5 7
    endloop
  endfacet
  facet normal 0 1 0
    outer loop
      vertex -24.5 27.5 7
      vertex 24.5 27.5 0
      vertex -24.5 27.5 0
    endloop
  endfacet
  facet normal 0.987692 -0.156411 0
    outer loop
      vertex 27.3532 -25.427 7
      vertex 27.5 -24.5 0
      vertex 27.5 -24.5 7
    endloop
  endfacet
  facet normal 0.987692 -0.156411 0
    outer loop
      vertex 27.5 -24.5 0
      vertex 27.3532 -25.427 7
      vertex 27.3532 -25.427 0
    endloop
  endfacet
  facet normal 1 -0 0
    outer loop
      vertex 27.5 -24.5 7
      vertex 27.5 24.5 0
      vertex 27.5 24.5 7
    endloop
  endfacet
  facet normal 1 0 0
    outer loop
      vertex 27.5 24.5 0
      vertex 27.5 -24.5 7
      vertex 27.5 -24.5 0
    endloop
  endfacet
  facet normal -0.808977 0.58784 0
    outer loop
      vertex -27.0981 26 0
      vertex -26.7294 26.5074 7
      vertex -26.7294 26.5074 0
    endloop
  endfacet
  facet normal -0.808977 0.58784 0
    outer loop
      vertex -26.7294 26.5074 7
      vertex -27.0981 26 0
      vertex -27.0981 26 7
    endloop
  endfacet
  facet normal 0 -1 0
    outer loop
      vertex -24.5 -27.5 7
      vertex -4.5 -27.5 6
      vertex 24.5 -27.5 7
    endloop
  endfacet
  facet normal 0 -1 0
    outer loop
      vertex -24.5 -27.5 7
      vertex -4.5 -27.5 2.5
      vertex -4.5 -27.5 6
    endloop
  endfacet
  facet normal 0 -1 0
    outer loop
      vertex 24.5 -27.5 0
      vertex -4.5 -27.5 2.5
      vertex -24.5 -27.5 0
    endloop
  endfacet
  facet normal 0 -1 0
    outer loop
      vertex -24.5 -27.5 0
      vertex -4.5 -27.5 2.5
      vertex -24.5 -27.5 7
    endloop
  endfacet
  facet normal 0 -1 0
    outer loop
      vertex 9 -27.5 6
      vertex 24.5 -27.5 7
      vertex -4.5 -27.5 6
    endloop
  endfacet
  facet normal 0 -1 0
    outer loop
      vertex 9 -27.5 2.5
      vertex 24.5 -27.5 7
      vertex 9 -27.5 6
    endloop
  endfacet
  facet normal 0 -1 0
    outer loop
      vertex 9 -27.5 2.5
      vertex 24.5 -27.5 0
      vertex 24.5 -27.5 7
    endloop
  endfacet
  facet normal 0 -1 0
    outer loop
      vertex -4.5 -27.5 2.5
      vertex 24.5 -27.5 0
      vertex 9 -27.5 2.5
    endloop
  endfacet
  facet normal -0.994514 -0.104602 0
    outer loop
      vertex -27.4344 -25.1237 0
      vertex -27.5 -24.5 7
      vertex -27.5 -24.5 0
    endloop
  endfacet
  facet normal -0.994514 -0.104602 0
    outer loop
      vertex -27.5 -24.5 7
      vertex -27.4344 -25.1237 0
      vertex -27.4344 -25.1237 7
    endloop
  endfacet
  facet normal -0.308996 0.951063 0
    outer loop
      vertex -25.1237 27.4344 0
      vertex -25.7202 27.2406 7
      vertex -25.1237 27.4344 7
    endloop
  endfacet
  facet normal -0.308996 0.951063 0
    outer loop
      vertex -25.7202 27.2406 7
      vertex -25.1237 27.4344 0
      vertex -25.7202 27.2406 0
    endloop
  endfacet
  facet normal -0.406715 -0.913555 0
    outer loop
      vertex -26 -27.0981 0
      vertex -25.427 -27.3532 7
      vertex -26 -27.0981 7
    endloop
  endfacet
  facet normal -0.406715 -0.913555 -0
    outer loop
      vertex -25.427 -27.3532 7
      vertex -26 -27.0981 0
      vertex -25.427 -27.3532 0
    endloop
  endfacet
  facet normal 0.808977 -0.58784 0
    outer loop
      vertex 26.7294 -26.5074 7
      vertex 27.0981 -26 0
      vertex 27.0981 -26 7
    endloop
  endfacet
  facet normal 0.808977 -0.58784 0
    outer loop
      vertex 27.0981 -26 0
      vertex 26.7294 -26.5074 7
      vertex 26.7294 -26.5074 0
    endloop
  endfacet
  facet normal -0.987692 0.156411 0
    outer loop
      vertex -27.5 24.5 0
      vertex -27.3532 25.427 7
      vertex -27.3532 25.427 0
    endloop
  endfacet
  facet normal -0.987692 0.156411 0
    outer loop
      vertex -27.3532 25.427 7
      vertex -27.5 24.5 0
      vertex -27.5 24.5 7
    endloop
  endfacet
  facet normal -0.104602 0.994514 0
    outer loop
      vertex -24.5 27.5 0
      vertex -25.1237 27.4344 7
      vertex -24.5 27.5 7
    endloop
  endfacet
  facet normal -0.104602 0.994514 0
    outer loop
      vertex -25.1237 27.4344 7
      vertex -24.5 27.5 0
      vertex -25.1237 27.4344 0
    endloop
  endfacet
  facet normal 0.406715 0.913555 -0
    outer loop
      vertex 26 27.0981 0
      vertex 25.427 27.3532 7
      vertex 26 27.0981 7
    endloop
  endfacet
  facet normal 0.406715 0.913555 0
    outer loop
      vertex 25.427 27.3532 7
      vertex 26 27.0981 0
      vertex 25.427 27.3532 0
    endloop
  endfacet
  facet normal -0.866037 -0.49998 0
    outer loop
      vertex -26.927 -26.2634 0
      vertex -27.2406 -25.7202 7
      vertex -27.2406 -25.7202 0
    endloop
  endfacet
  facet normal -0.866037 -0.49998 0
    outer loop
      vertex -27.2406 -25.7202 7
      vertex -26.927 -26.2634 0
      vertex -26.927 -26.2634 7
    endloop
  endfacet
  facet normal 0.58784 0.808977 -0
    outer loop
      vertex 26.5074 26.7294 0
      vertex 26 27.0981 7
      vertex 26.5074 26.7294 7
    endloop
  endfacet
  facet normal 0.58784 0.808977 0
    outer loop
      vertex 26 27.0981 7
      vertex 26.5074 26.7294 0
      vertex 26 27.0981 0
    endloop
  endfacet
  facet normal 0.49998 -0.866037 0
    outer loop
      vertex 25.7202 -27.2406 0
      vertex 26.2634 -26.927 7
      vertex 25.7202 -27.2406 7
    endloop
  endfacet
  facet normal 0.49998 -0.866037 0
    outer loop
      vertex 26.2634 -26.927 7
      vertex 25.7202 -27.2406 0
      vertex 26.2634 -26.927 0
    endloop
  endfacet
  facet normal -0.743136 -0.669141 0
    outer loop
      vertex -26.5074 -26.7294 0
      vertex -26.927 -26.2634 7
      vertex -26.927 -26.2634 0
    endloop
  endfacet
  facet normal -0.743136 -0.669141 0
    outer loop
      vertex -26.927 -26.2634 7
      vertex -26.5074 -26.7294 0
      vertex -26.5074 -26.7294 7
    endloop
  endfacet
  facet normal -0.669141 0.743136 0
    outer loop
      vertex -26.2634 26.927 0
      vertex -26.7294 26.5074 7
      vertex -26.2634 26.927 7
    endloop
  endfacet
  facet normal -0.669141 0.743136 0
    outer loop
      vertex -26.7294 26.5074 7
      vertex -26.2634 26.927 0
      vertex -26.7294 26.5074 0
    endloop
  endfacet
  facet normal -0.49998 0.866037 0
    outer loop
      vertex -25.7202 27.2406 0
      vertex -26.2634 26.927 7
      vertex -25.7202 27.2406 7
    endloop
  endfacet
  facet normal -0.49998 0.866037 0
    outer loop
      vertex -26.2634 26.927 7
      vertex -25.7202 27.2406 0
      vertex -26.2634 26.927 0
    endloop
  endfacet
  facet normal 0.308996 -0.951063 0
    outer loop
      vertex 25.1237 -27.4344 0
      vertex 25.7202 -27.2406 7
      vertex 25.1237 -27.4344 7
    endloop
  endfacet
  facet normal 0.308996 -0.951063 0
    outer loop
      vertex 25.7202 -27.2406 7
      vertex 25.1237 -27.4344 0
      vertex 25.7202 -27.2406 0
    endloop
  endfacet
  facet normal -0.951063 -0.308996 0
    outer loop
      vertex -27.2406 -25.7202 0
      vertex -27.4344 -25.1237 7
      vertex -27.4344 -25.1237 0
    endloop
  endfacet
  facet normal -0.951063 -0.308996 0
    outer loop
      vertex -27.4344 -25.1237 7
      vertex -27.2406 -25.7202 0
      vertex -27.2406 -25.7202 7
    endloop
  endfacet
  facet normal 0.913555 -0.406715 0
    outer loop
      vertex 27.0981 -26 7
      vertex 27.3532 -25.427 0
      vertex 27.3532 -25.427 7
    endloop
  endfacet
  facet normal 0.913555 -0.406715 0
    outer loop
      vertex 27.3532 -25.427 0
      vertex 27.0981 -26 7
      vertex 27.0981 -26 0
    endloop
  endfacet
  facet normal -0.913555 0.406715 0
    outer loop
      vertex -27.3532 25.427 0
      vertex -27.0981 26 7
      vertex -27.0981 26 0
    endloop
  endfacet
  facet normal -0.913555 0.406715 0
    outer loop
      vertex -27.0981 26 7
      vertex -27.3532 25.427 0
      vertex -27.3532 25.427 7
    endloop
  endfacet
  facet normal 0.669141 -0.743136 0
    outer loop
      vertex 26.2634 -26.927 0
      vertex 26.7294 -26.5074 7
      vertex 26.2634 -26.927 7
    endloop
  endfacet
  facet normal 0.669141 -0.743136 0
    outer loop
      vertex 26.7294 -26.5074 7
      vertex 26.2634 -26.927 0
      vertex 26.7294 -26.5074 0
    endloop
  endfacet
  facet normal 0.743136 0.669141 0
    outer loop
      vertex 26.927 26.2634 7
      vertex 26.5074 26.7294 0
      vertex 26.5074 26.7294 7
    endloop
  endfacet
  facet normal 0.743136 0.669141 0
    outer loop
      vertex 26.5074 26.7294 0
      vertex 26.927 26.2634 7
      vertex 26.927 26.2634 0
    endloop
  endfacet
  facet normal 0.866037 0.49998 0
    outer loop
      vertex 27.2406 25.7202 7
      vertex 26.927 26.2634 0
      vertex 26.927 26.2634 7
    endloop
  endfacet
  facet normal 0.866037 0.49998 0
    outer loop
      vertex 26.927 26.2634 0
      vertex 27.2406 25.7202 7
      vertex 27.2406 25.7202 0
    endloop
  endfacet
  facet normal -0.499985 0.866034 0
    outer loop
      vertex 24.8343 -25.2989 1.8
      vertex 24.4541 -25.5184 7
      vertex 24.8343 -25.2989 7
    endloop
  endfacet
  facet normal -0.499985 0.866034 0
    outer loop
      vertex 24.4541 -25.5184 7
      vertex 24.8343 -25.2989 1.8
      vertex 24.4541 -25.5184 1.8
    endloop
  endfacet
  facet normal -0.406772 -0.91353 0
    outer loop
      vertex 24.2489 25.5972 1.8
      vertex 24.65 25.4186 7
      vertex 24.2489 25.5972 7
    endloop
  endfacet
  facet normal -0.406772 -0.91353 -0
    outer loop
      vertex 24.65 25.4186 7
      vertex 24.2489 25.5972 1.8
      vertex 24.65 25.4186 1.8
    endloop
  endfacet
  facet normal 0 1 0
    outer loop
      vertex -4.5 -25.7 6
      vertex 23.6 -25.7 7
      vertex 9 -25.7 6
    endloop
  endfacet
  facet normal 0 1 -0
    outer loop
      vertex 23.6 -25.7 1.8
      vertex 9 -25.7 6
      vertex 23.6 -25.7 7
    endloop
  endfacet
  facet normal 0 1 0
    outer loop
      vertex 9 -25.7 2.5
      vertex 23.6 -25.7 1.8
      vertex -4.5 -25.7 2.5
    endloop
  endfacet
  facet normal 0 1 0
    outer loop
      vertex 9 -25.7 6
      vertex 23.6 -25.7 1.8
      vertex 9 -25.7 2.5
    endloop
  endfacet
  facet normal 0 1 0
    outer loop
      vertex 23.6 -25.7 7
      vertex -4.5 -25.7 6
      vertex -23.6 -25.7 7
    endloop
  endfacet
  facet normal 0 1 0
    outer loop
      vertex -23.6 -25.7 1.8
      vertex -4.5 -25.7 6
      vertex -4.5 -25.7 2.5
    endloop
  endfacet
  facet normal 0 1 0
    outer loop
      vertex -4.5 -25.7 6
      vertex -23.6 -25.7 1.8
      vertex -23.6 -25.7 7
    endloop
  endfacet
  facet normal 0 1 0
    outer loop
      vertex -23.6 -25.7 1.8
      vertex -4.5 -25.7 2.5
      vertex 23.6 -25.7 1.8
    endloop
  endfacet
  facet normal -0.309112 0.951026 0
    outer loop
      vertex 24.4541 -25.5184 1.8
      vertex 24.0366 -25.6541 7
      vertex 24.4541 -25.5184 7
    endloop
  endfacet
  facet normal -0.309112 0.951026 0
    outer loop
      vertex 24.0366 -25.6541 7
      vertex 24.4541 -25.5184 1.8
      vertex 24.0366 -25.6541 1.8
    endloop
  endfacet
  facet normal 0.156471 0.987683 -0
    outer loop
      vertex -23.6 -25.7 1.8
      vertex -24.2489 -25.5972 7
      vertex -23.6 -25.7 7
    endloop
  endfacet
  facet normal 0.156471 0.987683 0
    outer loop
      vertex -24.2489 -25.5972 7
      vertex -23.6 -25.7 1.8
      vertex -24.2489 -25.5972 1.8
    endloop
  endfacet
  facet normal -0.104554 0.994519 0
    outer loop
      vertex 24.0366 -25.6541 1.8
      vertex 23.6 -25.7 7
      vertex 24.0366 -25.6541 7
    endloop
  endfacet
  facet normal -0.104554 0.994519 0
    outer loop
      vertex 23.6 -25.7 7
      vertex 24.0366 -25.6541 1.8
      vertex 23.6 -25.7 1.8
    endloop
  endfacet
  facet normal 0.406772 0.91353 -0
    outer loop
      vertex -24.2489 -25.5972 1.8
      vertex -24.65 -25.4186 7
      vertex -24.2489 -25.5972 7
    endloop
  endfacet
  facet normal 0.406772 0.91353 0
    outer loop
      vertex -24.65 -25.4186 7
      vertex -24.2489 -25.5972 1.8
      vertex -24.65 -25.4186 1.8
    endloop
  endfacet
  facet normal -0.987683 0.156471 0
    outer loop
      vertex 25.5972 -24.2489 1.8
      vertex 25.7 -23.6 7
      vertex 25.7 -23.6 1.8
    endloop
  endfacet
  facet normal -0.987683 0.156471 0
    outer loop
      vertex 25.7 -23.6 7
      vertex 25.5972 -24.2489 1.8
      vertex 25.5972 -24.2489 7
    endloop
  endfacet
  facet normal 0.987683 -0.156471 0
    outer loop
      vertex -25.7 23.6 7
      vertex -25.5972 24.2489 1.8
      vertex -25.5972 24.2489 7
    endloop
  endfacet
  facet normal 0.987683 -0.156471 0
    outer loop
      vertex -25.5972 24.2489 1.8
      vertex -25.7 23.6 7
      vertex -25.7 23.6 1.8
    endloop
  endfacet
  facet normal 0.809091 -0.587684 0
    outer loop
      vertex -25.4186 24.65 7
      vertex -25.1606 25.0052 1.8
      vertex -25.1606 25.0052 7
    endloop
  endfacet
  facet normal 0.809091 -0.587684 0
    outer loop
      vertex -25.1606 25.0052 1.8
      vertex -25.4186 24.65 7
      vertex -25.4186 24.65 1.8
    endloop
  endfacet
  facet normal 0.104554 -0.994519 0
    outer loop
      vertex -24.0366 25.6541 1.8
      vertex -23.6 25.7 7
      vertex -24.0366 25.6541 7
    endloop
  endfacet
  facet normal 0.104554 -0.994519 0
    outer loop
      vertex -23.6 25.7 7
      vertex -24.0366 25.6541 1.8
      vertex -23.6 25.7 1.8
    endloop
  endfacet
  facet normal -0.587684 -0.809091 0
    outer loop
      vertex 24.65 25.4186 1.8
      vertex 25.0052 25.1606 7
      vertex 24.65 25.4186 7
    endloop
  endfacet
  facet normal -0.587684 -0.809091 -0
    outer loop
      vertex 25.0052 25.1606 7
      vertex 24.65 25.4186 1.8
      vertex 25.0052 25.1606 1.8
    endloop
  endfacet
  facet normal -0.669002 0.74326 0
    outer loop
      vertex 25.1606 -25.0052 1.8
      vertex 24.8343 -25.2989 7
      vertex 25.1606 -25.0052 7
    endloop
  endfacet
  facet normal -0.669002 0.74326 0
    outer loop
      vertex 24.8343 -25.2989 7
      vertex 25.1606 -25.0052 1.8
      vertex 24.8343 -25.2989 1.8
    endloop
  endfacet
  facet normal -1 0 0
    outer loop
      vertex 25.7 -23.6 1.8
      vertex 25.7 23.6 7
      vertex 25.7 23.6 1.8
    endloop
  endfacet
  facet normal -1 -0 0
    outer loop
      vertex 25.7 23.6 7
      vertex 25.7 -23.6 1.8
      vertex 25.7 -23.6 7
    endloop
  endfacet
  facet normal -0.951026 -0.309112 0
    outer loop
      vertex 25.6541 24.0366 1.8
      vertex 25.5184 24.4541 7
      vertex 25.5184 24.4541 1.8
    endloop
  endfacet
  facet normal -0.951026 -0.309112 0
    outer loop
      vertex 25.5184 24.4541 7
      vertex 25.6541 24.0366 1.8
      vertex 25.6541 24.0366 7
    endloop
  endfacet
  facet normal 1 -0 0
    outer loop
      vertex -25.7 -23.6 7
      vertex -25.7 23.6 1.8
      vertex -25.7 23.6 7
    endloop
  endfacet
  facet normal 1 0 0
    outer loop
      vertex -25.7 23.6 1.8
      vertex -25.7 -23.6 7
      vertex -25.7 -23.6 1.8
    endloop
  endfacet
  facet normal -0.994519 -0.104554 0
    outer loop
      vertex 25.7 23.6 1.8
      vertex 25.6541 24.0366 7
      vertex 25.6541 24.0366 1.8
    endloop
  endfacet
  facet normal -0.994519 -0.104554 0
    outer loop
      vertex 25.6541 24.0366 7
      vertex 25.7 23.6 1.8
      vertex 25.7 23.6 7
    endloop
  endfacet
  facet normal 0 -1 0
    outer loop
      vertex -23.6 25.7 1.8
      vertex 23.6 25.7 7
      vertex -23.6 25.7 7
    endloop
  endfacet
  facet normal 0 -1 -0
    outer loop
      vertex 23.6 25.7 7
      vertex -23.6 25.7 1.8
      vertex 23.6 25.7 1.8
    endloop
  endfacet
  facet normal 0.669002 -0.74326 0
    outer loop
      vertex -25.1606 25.0052 1.8
      vertex -24.8343 25.2989 7
      vertex -25.1606 25.0052 7
    endloop
  endfacet
  facet normal 0.669002 -0.74326 0
    outer loop
      vertex -24.8343 25.2989 7
      vertex -25.1606 25.0052 1.8
      vertex -24.8343 25.2989 1.8
    endloop
  endfacet
  facet normal 0.587684 0.809091 -0
    outer loop
      vertex -24.65 -25.4186 1.8
      vertex -25.0052 -25.1606 7
      vertex -24.65 -25.4186 7
    endloop
  endfacet
  facet normal 0.587684 0.809091 0
    outer loop
      vertex -25.0052 -25.1606 7
      vertex -24.65 -25.4186 1.8
      vertex -25.0052 -25.1606 1.8
    endloop
  endfacet
  facet normal 0.91353 -0.406772 0
    outer loop
      vertex -25.5972 24.2489 7
      vertex -25.4186 24.65 1.8
      vertex -25.4186 24.65 7
    endloop
  endfacet
  facet normal 0.91353 -0.406772 0
    outer loop
      vertex -25.4186 24.65 1.8
      vertex -25.5972 24.2489 7
      vertex -25.5972 24.2489 1.8
    endloop
  endfacet
  facet normal 0.499985 -0.866034 0
    outer loop
      vertex -24.8343 25.2989 1.8
      vertex -24.4541 25.5184 7
      vertex -24.8343 25.2989 7
    endloop
  endfacet
  facet normal 0.499985 -0.866034 0
    outer loop
      vertex -24.4541 25.5184 7
      vertex -24.8343 25.2989 1.8
      vertex -24.4541 25.5184 1.8
    endloop
  endfacet
  facet normal 0.951026 0.309112 0
    outer loop
      vertex -25.5184 -24.4541 7
      vertex -25.6541 -24.0366 1.8
      vertex -25.6541 -24.0366 7
    endloop
  endfacet
  facet normal 0.951026 0.309112 0
    outer loop
      vertex -25.6541 -24.0366 1.8
      vertex -25.5184 -24.4541 7
      vertex -25.5184 -24.4541 1.8
    endloop
  endfacet
  facet normal 0.74326 0.669002 0
    outer loop
      vertex -25.0052 -25.1606 7
      vertex -25.2989 -24.8343 1.8
      vertex -25.2989 -24.8343 7
    endloop
  endfacet
  facet normal 0.74326 0.669002 0
    outer loop
      vertex -25.2989 -24.8343 1.8
      vertex -25.0052 -25.1606 7
      vertex -25.0052 -25.1606 1.8
    endloop
  endfacet
  facet normal 0.309112 -0.951026 0
    outer loop
      vertex -24.4541 25.5184 1.8
      vertex -24.0366 25.6541 7
      vertex -24.4541 25.5184 7
    endloop
  endfacet
  facet normal 0.309112 -0.951026 0
    outer loop
      vertex -24.0366 25.6541 7
      vertex -24.4541 25.5184 1.8
      vertex -24.0366 25.6541 1.8
    endloop
  endfacet
  facet normal 0.866034 0.499985 0
    outer loop
      vertex -25.2989 -24.8343 7
      vertex -25.5184 -24.4541 1.8
      vertex -25.5184 -24.4541 7
    endloop
  endfacet
  facet normal 0.866034 0.499985 0
    outer loop
      vertex -25.5184 -24.4541 1.8
      vertex -25.2989 -24.8343 7
      vertex -25.2989 -24.8343 1.8
    endloop
  endfacet
  facet normal -0.156471 -0.987683 0
    outer loop
      vertex 23.6 25.7 1.8
      vertex 24.2489 25.5972 7
      vertex 23.6 25.7 7
    endloop
  endfacet
  facet normal -0.156471 -0.987683 -0
    outer loop
      vertex 24.2489 25.5972 7
      vertex 23.6 25.7 1.8
      vertex 24.2489 25.5972 1.8
    endloop
  endfacet
  facet normal 0.994519 0.104554 0
    outer loop
      vertex -25.6541 -24.0366 7
      vertex -25.7 -23.6 1.8
      vertex -25.7 -23.6 7
    endloop
  endfacet
  facet normal 0.994519 0.104554 0
    outer loop
      vertex -25.7 -23.6 1.8
      vertex -25.6541 -24.0366 7
      vertex -25.6541 -24.0366 1.8
    endloop
  endfacet
  facet normal -0.866034 -0.499985 0
    outer loop
      vertex 25.5184 24.4541 1.8
      vertex 25.2989 24.8343 7
      vertex 25.2989 24.8343 1.8
    endloop
  endfacet
  facet normal -0.866034 -0.499985 0
    outer loop
      vertex 25.2989 24.8343 7
      vertex 25.5184 24.4541 1.8
      vertex 25.5184 24.4541 7
    endloop
  endfacet
  facet normal 0 0 1
    outer loop
      vertex 23.6 25.7 1.8
      vertex 25.7 23.6 1.8
      vertex 25.6541 24.0366 1.8
    endloop
  endfacet
  facet normal 0 0 1
    outer loop
      vertex 25.7 23.6 1.8
      vertex 16.5 0 1.8
      vertex 25.7 -23.6 1.8
    endloop
  endfacet
  facet normal 0 0 1
    outer loop
      vertex 23.6 25.7 1.8
      vertex 25.6541 24.0366 1.8
      vertex 25.5184 24.4541 1.8
    endloop
  endfacet
  facet normal -0 0 1
    outer loop
      vertex 16.1394 -3.43054 1.8
      vertex 25.7 -23.6 1.8
      vertex 16.5 0 1.8
    endloop
  endfacet
  facet normal 0 0 1
    outer loop
      vertex 23.6 25.7 1.8
      vertex 25.5184 24.4541 1.8
      vertex 25.2989 24.8343 1.8
    endloop
  endfacet
  facet normal -0 0 1
    outer loop
      vertex 15.0735 -6.71115 1.8
      vertex 25.7 -23.6 1.8
      vertex 16.1394 -3.43054 1.8
    endloop
  endfacet
  facet normal 0 0 1
    outer loop
      vertex 23.6 25.7 1.8
      vertex 25.2989 24.8343 1.8
      vertex 25.0052 25.1606 1.8
    endloop
  endfacet
  facet normal -0 0 1
    outer loop
      vertex 13.3488 -9.69846 1.8
      vertex 25.7 -23.6 1.8
      vertex 15.0735 -6.71115 1.8
    endloop
  endfacet
  facet normal 0 0 1
    outer loop
      vertex 23.6 25.7 1.8
      vertex 25.0052 25.1606 1.8
      vertex 24.65 25.4186 1.8
    endloop
  endfacet
  facet normal -0 0 1
    outer loop
      vertex 11.0407 -12.2619 1.8
      vertex 25.7 -23.6 1.8
      vertex 13.3488 -9.69846 1.8
    endloop
  endfacet
  facet normal 0 0 1
    outer loop
      vertex 23.6 25.7 1.8
      vertex 24.65 25.4186 1.8
      vertex 24.2489 25.5972 1.8
    endloop
  endfacet
  facet normal 0 -0 1
    outer loop
      vertex 23.6 -25.7 1.8
      vertex 25.7 -23.6 1.8
      vertex 11.0407 -12.2619 1.8
    endloop
  endfacet
  facet normal 0 0 1
    outer loop
      vertex 25.7 23.6 1.8
      vertex 23.6 25.7 1.8
      vertex 11.0407 12.2619 1.8
    endloop
  endfacet
  facet normal 0 0 1
    outer loop
      vertex 25.5972 -24.2489 1.8
      vertex 23.6 -25.7 1.8
      vertex 25.4186 -24.65 1.8
    endloop
  endfacet
  facet normal 0 0 1
    outer loop
      vertex 25.4186 -24.65 1.8
      vertex 23.6 -25.7 1.8
      vertex 25.1606 -25.0052 1.8
    endloop
  endfacet
  facet normal 0 0 1
    outer loop
      vertex 25.7 23.6 1.8
      vertex 16.1394 3.43054 1.8
      vertex 16.5 0 1.8
    endloop
  endfacet
  facet normal 0 0 1
    outer loop
      vertex 25.7 23.6 1.8
      vertex 15.0735 6.71115 1.8
      vertex 16.1394 3.43054 1.8
    endloop
  endfacet
  facet normal 0 0 1
    outer loop
      vertex 25.7 23.6 1.8
      vertex 13.3488 9.69846 1.8
      vertex 15.0735 6.71115 1.8
    endloop
  endfacet
  facet normal 0 0 1
    outer loop
      vertex 25.7 23.6 1.8
      vertex 11.0407 12.2619 1.8
      vertex 13.3488 9.69846 1.8
    endloop
  endfacet
  facet normal 0 0 1
    outer loop
      vertex 23.6 25.7 1.8
      vertex 8.25 14.2894 1.8
      vertex 11.0407 12.2619 1.8
    endloop
  endfacet
  facet normal 0 0 1
    outer loop
      vertex 23.6 25.7 1.8
      vertex 5.09878 15.6924 1.8
      vertex 8.25 14.2894 1.8
    endloop
  endfacet
  facet normal 0 0 1
    outer loop
      vertex 23.6 25.7 1.8
      vertex 1.72472 16.4096 1.8
      vertex 5.09878 15.6924 1.8
    endloop
  endfacet
  facet normal 0 0 1
    outer loop
      vertex 23.6 25.7 1.8
      vertex -1.72472 16.4096 1.8
      vertex 1.72472 16.4096 1.8
    endloop
  endfacet
  facet normal -0 0 1
    outer loop
      vertex -23.6 25.7 1.8
      vertex -1.72472 16.4096 1.8
      vertex 23.6 25.7 1.8
    endloop
  endfacet
  facet normal 0 0 1
    outer loop
      vertex -15.0735 6.71115 1.8
      vertex -25.7 23.6 1.8
      vertex -16.1394 3.43054 1.8
    endloop
  endfacet
  facet normal 0 0 1
    outer loop
      vertex -13.3488 9.69846 1.8
      vertex -25.7 23.6 1.8
      vertex -15.0735 6.71115 1.8
    endloop
  endfacet
  facet normal 0 0 1
    outer loop
      vertex -11.0407 12.2619 1.8
      vertex -25.7 23.6 1.8
      vertex -13.3488 9.69846 1.8
    endloop
  endfacet
  facet normal -0 0 1
    outer loop
      vertex -25.7 23.6 1.8
      vertex -11.0407 12.2619 1.8
      vertex -23.6 25.7 1.8
    endloop
  endfacet
  facet normal 0 0 1
    outer loop
      vertex -8.25 14.2894 1.8
      vertex -23.6 25.7 1.8
      vertex -11.0407 12.2619 1.8
    endloop
  endfacet
  facet normal 0 0 1
    outer loop
      vertex -5.09878 15.6924 1.8
      vertex -23.6 25.7 1.8
      vertex -8.25 14.2894 1.8
    endloop
  endfacet
  facet normal 0 0 1
    outer loop
      vertex -1.72472 16.4096 1.8
      vertex -23.6 25.7 1.8
      vertex -5.09878 15.6924 1.8
    endloop
  endfacet
  facet normal 0 0 1
    outer loop
      vertex 25.1606 -25.0052 1.8
      vertex 23.6 -25.7 1.8
      vertex 24.8343 -25.2989 1.8
    endloop
  endfacet
  facet normal 0 0 1
    outer loop
      vertex 24.8343 -25.2989 1.8
      vertex 23.6 -25.7 1.8
      vertex 24.4541 -25.5184 1.8
    endloop
  endfacet
  facet normal 0 0 1
    outer loop
      vertex 24.4541 -25.5184 1.8
      vertex 23.6 -25.7 1.8
      vertex 24.0366 -25.6541 1.8
    endloop
  endfacet
  facet normal 0 0 1
    outer loop
      vertex 25.7 -23.6 1.8
      vertex 23.6 -25.7 1.8
      vertex 25.5972 -24.2489 1.8
    endloop
  endfacet
  facet normal -0 0 1
    outer loop
      vertex 8.25 -14.2894 1.8
      vertex 23.6 -25.7 1.8
      vertex 11.0407 -12.2619 1.8
    endloop
  endfacet
  facet normal -0 0 1
    outer loop
      vertex 5.09878 -15.6924 1.8
      vertex 23.6 -25.7 1.8
      vertex 8.25 -14.2894 1.8
    endloop
  endfacet
  facet normal -0 0 1
    outer loop
      vertex 1.72472 -16.4096 1.8
      vertex 23.6 -25.7 1.8
      vertex 5.09878 -15.6924 1.8
    endloop
  endfacet
  facet normal -0 0 1
    outer loop
      vertex -1.72472 -16.4096 1.8
      vertex 23.6 -25.7 1.8
      vertex 1.72472 -16.4096 1.8
    endloop
  endfacet
  facet normal 0 0 1
    outer loop
      vertex -23.6 -25.7 1.8
      vertex -1.72472 -16.4096 1.8
      vertex -5.09878 -15.6924 1.8
    endloop
  endfacet
  facet normal 0 0 1
    outer loop
      vertex -16.1394 3.43054 1.8
      vertex -25.7 23.6 1.8
      vertex -16.5 0 1.8
    endloop
  endfacet
  facet normal 0 0 1
    outer loop
      vertex -1.72472 -16.4096 1.8
      vertex -23.6 -25.7 1.8
      vertex 23.6 -25.7 1.8
    endloop
  endfacet
  facet normal 0 0 1
    outer loop
      vertex -8.25 -14.2894 1.8
      vertex -23.6 -25.7 1.8
      vertex -5.09878 -15.6924 1.8
    endloop
  endfacet
  facet normal 0 0 1
    outer loop
      vertex -11.0407 -12.2619 1.8
      vertex -23.6 -25.7 1.8
      vertex -8.25 -14.2894 1.8
    endloop
  endfacet
  facet normal 0 0 1
    outer loop
      vertex -25.7 -23.6 1.8
      vertex -11.0407 -12.2619 1.8
      vertex -13.3488 -9.69846 1.8
    endloop
  endfacet
  facet normal 0 0 1
    outer loop
      vertex -25.7 -23.6 1.8
      vertex -13.3488 -9.69846 1.8
      vertex -15.0735 -6.71115 1.8
    endloop
  endfacet
  facet normal 0 0 1
    outer loop
      vertex -25.7 -23.6 1.8
      vertex -15.0735 -6.71115 1.8
      vertex -16.1394 -3.43054 1.8
    endloop
  endfacet
  facet normal 0 0 1
    outer loop
      vertex -25.7 -23.6 1.8
      vertex -16.5 0 1.8
      vertex -25.7 23.6 1.8
    endloop
  endfacet
  facet normal 0 0 1
    outer loop
      vertex -25.7 23.6 1.8
      vertex -23.6 25.7 1.8
      vertex -24.0366 25.6541 1.8
    endloop
  endfacet
  facet normal 0 0 1
    outer loop
      vertex -16.5 0 1.8
      vertex -25.7 -23.6 1.8
      vertex -16.1394 -3.43054 1.8
    endloop
  endfacet
  facet normal 0 0 1
    outer loop
      vertex -25.7 23.6 1.8
      vertex -24.0366 25.6541 1.8
      vertex -24.4541 25.5184 1.8
    endloop
  endfacet
  facet normal 0 0 1
    outer loop
      vertex -11.0407 -12.2619 1.8
      vertex -25.7 -23.6 1.8
      vertex -23.6 -25.7 1.8
    endloop
  endfacet
  facet normal 0 0 1
    outer loop
      vertex -25.7 23.6 1.8
      vertex -24.4541 25.5184 1.8
      vertex -24.8343 25.2989 1.8
    endloop
  endfacet
  facet normal 0 0 1
    outer loop
      vertex -23.6 -25.7 1.8
      vertex -25.7 -23.6 1.8
      vertex -24.2489 -25.5972 1.8
    endloop
  endfacet
  facet normal 0 0 1
    outer loop
      vertex -25.7 23.6 1.8
      vertex -24.8343 25.2989 1.8
      vertex -25.1606 25.0052 1.8
    endloop
  endfacet
  facet normal 0 0 1
    outer loop
      vertex -24.2489 -25.5972 1.8
      vertex -25.7 -23.6 1.8
      vertex -24.65 -25.4186 1.8
    endloop
  endfacet
  facet normal 0 0 1
    outer loop
      vertex -25.7 23.6 1.8
      vertex -25.1606 25.0052 1.8
      vertex -25.4186 24.65 1.8
    endloop
  endfacet
  facet normal 0 0 1
    outer loop
      vertex -24.65 -25.4186 1.8
      vertex -25.7 -23.6 1.8
      vertex -25.0052 -25.1606 1.8
    endloop
  endfacet
  facet normal 0 0 1
    outer loop
      vertex -25.7 23.6 1.8
      vertex -25.4186 24.65 1.8
      vertex -25.5972 24.2489 1.8
    endloop
  endfacet
  facet normal 0 0 1
    outer loop
      vertex -25.0052 -25.1606 1.8
      vertex -25.7 -23.6 1.8
      vertex -25.2989 -24.8343 1.8
    endloop
  endfacet
  facet normal 0 0 1
    outer loop
      vertex -25.2989 -24.8343 1.8
      vertex -25.7 -23.6 1.8
      vertex -25.5184 -24.4541 1.8
    endloop
  endfacet
  facet normal 0 0 1
    outer loop
      vertex -25.5184 -24.4541 1.8
      vertex -25.7 -23.6 1.8
      vertex -25.6541 -24.0366 1.8
    endloop
  endfacet
  facet normal -0.91353 0.406772 0
    outer loop
      vertex 25.4186 -24.65 1.8
      vertex 25.5972 -24.2489 7
      vertex 25.5972 -24.2489 1.8
    endloop
  endfacet
  facet normal -0.91353 0.406772 0
    outer loop
      vertex 25.5972 -24.2489 7
      vertex 25.4186 -24.65 1.8
      vertex 25.4186 -24.65 7
    endloop
  endfacet
  facet normal -0.74326 -0.669002 0
    outer loop
      vertex 25.2989 24.8343 1.8
      vertex 25.0052 25.1606 7
      vertex 25.0052 25.1606 1.8
    endloop
  endfacet
  facet normal -0.74326 -0.669002 0
    outer loop
      vertex 25.0052 25.1606 7
      vertex 25.2989 24.8343 1.8
      vertex 25.2989 24.8343 7
    endloop
  endfacet
  facet normal -0.809091 0.587684 0
    outer loop
      vertex 25.1606 -25.0052 1.8
      vertex 25.4186 -24.65 7
      vertex 25.4186 -24.65 1.8
    endloop
  endfacet
  facet normal -0.809091 0.587684 0
    outer loop
      vertex 25.4186 -24.65 7
      vertex 25.1606 -25.0052 1.8
      vertex 25.1606 -25.0052 7
    endloop
  endfacet
  facet normal 0.994521 -0.104539 0
    outer loop
      vertex -16.5 0 1.8
      vertex -16.1394 3.43054 1.3
      vertex -16.1394 3.43054 1.8
    endloop
  endfacet
  facet normal 0.994521 -0.104539 0
    outer loop
      vertex -16.1394 3.43054 1.3
      vertex -16.5 0 1.8
      vertex -16.5 0 1.3
    endloop
  endfacet
  facet normal -0.866028 0.499995 0
    outer loop
      vertex 13.3488 -9.69846 1.3
      vertex 15.0735 -6.71115 1.8
      vertex 15.0735 -6.71115 1.3
    endloop
  endfacet
  facet normal -0.866028 0.499995 0
    outer loop
      vertex 15.0735 -6.71115 1.8
      vertex 13.3488 -9.69846 1.3
      vertex 13.3488 -9.69846 1.8
    endloop
  endfacet
  facet normal -0.207918 0.978146 0
    outer loop
      vertex 5.09878 -15.6924 1.3
      vertex 1.72472 -16.4096 1.8
      vertex 5.09878 -15.6924 1.8
    endloop
  endfacet
  facet normal -0.207918 0.978146 0
    outer loop
      vertex 1.72472 -16.4096 1.8
      vertex 5.09878 -15.6924 1.3
      vertex 1.72472 -16.4096 1.3
    endloop
  endfacet
  facet normal -0.951059 -0.309008 0
    outer loop
      vertex 16.1394 3.43054 1.3
      vertex 15.0735 6.71115 1.8
      vertex 15.0735 6.71115 1.3
    endloop
  endfacet
  facet normal -0.951059 -0.309008 0
    outer loop
      vertex 15.0735 6.71115 1.8
      vertex 16.1394 3.43054 1.3
      vertex 16.1394 3.43054 1.8
    endloop
  endfacet
  facet normal -0.406733 -0.913547 0
    outer loop
      vertex 5.09878 15.6924 1.3
      vertex 8.25 14.2894 1.8
      vertex 5.09878 15.6924 1.8
    endloop
  endfacet
  facet normal -0.406733 -0.913547 -0
    outer loop
      vertex 8.25 14.2894 1.8
      vertex 5.09878 15.6924 1.3
      vertex 8.25 14.2894 1.3
    endloop
  endfacet
  facet normal 0.207918 -0.978146 0
    outer loop
      vertex -5.09878 15.6924 1.3
      vertex -1.72472 16.4096 1.8
      vertex -5.09878 15.6924 1.8
    endloop
  endfacet
  facet normal 0.207918 -0.978146 0
    outer loop
      vertex -1.72472 16.4096 1.8
      vertex -5.09878 15.6924 1.3
      vertex -1.72472 16.4096 1.3
    endloop
  endfacet
  facet normal 0.587773 -0.809026 0
    outer loop
      vertex -11.0407 12.2619 1.3
      vertex -8.25 14.2894 1.8
      vertex -11.0407 12.2619 1.8
    endloop
  endfacet
  facet normal 0.587773 -0.809026 0
    outer loop
      vertex -8.25 14.2894 1.8
      vertex -11.0407 12.2619 1.3
      vertex -8.25 14.2894 1.3
    endloop
  endfacet
  facet normal -0.994521 0.104539 0
    outer loop
      vertex 16.1394 -3.43054 1.3
      vertex 16.5 0 1.8
      vertex 16.5 0 1.3
    endloop
  endfacet
  facet normal -0.994521 0.104539 0
    outer loop
      vertex 16.5 0 1.8
      vertex 16.1394 -3.43054 1.3
      vertex 16.1394 -3.43054 1.8
    endloop
  endfacet
  facet normal -0.994521 -0.104539 0
    outer loop
      vertex 16.5 0 1.3
      vertex 16.1394 3.43054 1.8
      vertex 16.1394 3.43054 1.3
    endloop
  endfacet
  facet normal -0.994521 -0.104539 0
    outer loop
      vertex 16.1394 3.43054 1.8
      vertex 16.5 0 1.3
      vertex 16.5 0 1.8
    endloop
  endfacet
  facet normal -0.207918 -0.978146 0
    outer loop
      vertex 1.72472 16.4096 1.3
      vertex 5.09878 15.6924 1.8
      vertex 1.72472 16.4096 1.8
    endloop
  endfacet
  facet normal -0.207918 -0.978146 -0
    outer loop
      vertex 5.09878 15.6924 1.8
      vertex 1.72472 16.4096 1.3
      vertex 5.09878 15.6924 1.3
    endloop
  endfacet
  facet normal 0.951059 -0.309008 0
    outer loop
      vertex -16.1394 3.43054 1.8
      vertex -15.0735 6.71115 1.3
      vertex -15.0735 6.71115 1.8
    endloop
  endfacet
  facet normal 0.951059 -0.309008 0
    outer loop
      vertex -15.0735 6.71115 1.3
      vertex -16.1394 3.43054 1.8
      vertex -16.1394 3.43054 1.3
    endloop
  endfacet
  facet normal 0.951059 0.309008 0
    outer loop
      vertex -15.0735 -6.71115 1.8
      vertex -16.1394 -3.43054 1.3
      vertex -16.1394 -3.43054 1.8
    endloop
  endfacet
  facet normal 0.951059 0.309008 0
    outer loop
      vertex -16.1394 -3.43054 1.3
      vertex -15.0735 -6.71115 1.8
      vertex -15.0735 -6.71115 1.3
    endloop
  endfacet
  facet normal 0.866028 -0.499995 0
    outer loop
      vertex -15.0735 6.71115 1.8
      vertex -13.3488 9.69846 1.3
      vertex -13.3488 9.69846 1.8
    endloop
  endfacet
  facet normal 0.866028 -0.499995 0
    outer loop
      vertex -13.3488 9.69846 1.3
      vertex -15.0735 6.71115 1.8
      vertex -15.0735 6.71115 1.3
    endloop
  endfacet
  facet normal 0.207918 0.978146 -0
    outer loop
      vertex -1.72472 -16.4096 1.3
      vertex -5.09878 -15.6924 1.8
      vertex -1.72472 -16.4096 1.8
    endloop
  endfacet
  facet normal 0.207918 0.978146 0
    outer loop
      vertex -5.09878 -15.6924 1.8
      vertex -1.72472 -16.4096 1.3
      vertex -5.09878 -15.6924 1.3
    endloop
  endfacet
  facet normal -0.743149 -0.669126 0
    outer loop
      vertex 13.3488 9.69846 1.3
      vertex 11.0407 12.2619 1.8
      vertex 11.0407 12.2619 1.3
    endloop
  endfacet
  facet normal -0.743149 -0.669126 0
    outer loop
      vertex 11.0407 12.2619 1.8
      vertex 13.3488 9.69846 1.3
      vertex 13.3488 9.69846 1.8
    endloop
  endfacet
  facet normal 0 1 -0
    outer loop
      vertex 1.72472 -16.4096 1.3
      vertex -1.72472 -16.4096 1.8
      vertex 1.72472 -16.4096 1.8
    endloop
  endfacet
  facet normal 0 1 0
    outer loop
      vertex -1.72472 -16.4096 1.8
      vertex 1.72472 -16.4096 1.3
      vertex -1.72472 -16.4096 1.3
    endloop
  endfacet
  facet normal -0.866028 -0.499995 0
    outer loop
      vertex 15.0735 6.71115 1.3
      vertex 13.3488 9.69846 1.8
      vertex 13.3488 9.69846 1.3
    endloop
  endfacet
  facet normal -0.866028 -0.499995 0
    outer loop
      vertex 13.3488 9.69846 1.8
      vertex 15.0735 6.71115 1.3
      vertex 15.0735 6.71115 1.8
    endloop
  endfacet
  facet normal -0.406733 0.913547 0
    outer loop
      vertex 8.25 -14.2894 1.3
      vertex 5.09878 -15.6924 1.8
      vertex 8.25 -14.2894 1.8
    endloop
  endfacet
  facet normal -0.406733 0.913547 0
    outer loop
      vertex 5.09878 -15.6924 1.8
      vertex 8.25 -14.2894 1.3
      vertex 5.09878 -15.6924 1.3
    endloop
  endfacet
  facet normal 0.406733 0.913547 -0
    outer loop
      vertex -5.09878 -15.6924 1.3
      vertex -8.25 -14.2894 1.8
      vertex -5.09878 -15.6924 1.8
    endloop
  endfacet
  facet normal 0.406733 0.913547 0
    outer loop
      vertex -8.25 -14.2894 1.8
      vertex -5.09878 -15.6924 1.3
      vertex -8.25 -14.2894 1.3
    endloop
  endfacet
  facet normal 0.743149 -0.669126 0
    outer loop
      vertex -13.3488 9.69846 1.8
      vertex -11.0407 12.2619 1.3
      vertex -11.0407 12.2619 1.8
    endloop
  endfacet
  facet normal 0.743149 -0.669126 0
    outer loop
      vertex -11.0407 12.2619 1.3
      vertex -13.3488 9.69846 1.8
      vertex -13.3488 9.69846 1.3
    endloop
  endfacet
  facet normal -0.587773 0.809026 0
    outer loop
      vertex 11.0407 -12.2619 1.3
      vertex 8.25 -14.2894 1.8
      vertex 11.0407 -12.2619 1.8
    endloop
  endfacet
  facet normal -0.587773 0.809026 0
    outer loop
      vertex 8.25 -14.2894 1.8
      vertex 11.0407 -12.2619 1.3
      vertex 8.25 -14.2894 1.3
    endloop
  endfacet
  facet normal 0.587773 0.809026 -0
    outer loop
      vertex -8.25 -14.2894 1.3
      vertex -11.0407 -12.2619 1.8
      vertex -8.25 -14.2894 1.8
    endloop
  endfacet
  facet normal 0.587773 0.809026 0
    outer loop
      vertex -11.0407 -12.2619 1.8
      vertex -8.25 -14.2894 1.3
      vertex -11.0407 -12.2619 1.3
    endloop
  endfacet
  facet normal 0 -1 0
    outer loop
      vertex -1.72472 16.4096 1.3
      vertex 1.72472 16.4096 1.8
      vertex -1.72472 16.4096 1.8
    endloop
  endfacet
  facet normal 0 -1 -0
    outer loop
      vertex 1.72472 16.4096 1.8
      vertex -1.72472 16.4096 1.3
      vertex 1.72472 16.4096 1.3
    endloop
  endfacet
  facet normal -0.587773 -0.809026 0
    outer loop
      vertex 8.25 14.2894 1.3
      vertex 11.0407 12.2619 1.8
      vertex 8.25 14.2894 1.8
    endloop
  endfacet
  facet normal -0.587773 -0.809026 -0
    outer loop
      vertex 11.0407 12.2619 1.8
      vertex 8.25 14.2894 1.3
      vertex 11.0407 12.2619 1.3
    endloop
  endfacet
  facet normal -0.743149 0.669126 0
    outer loop
      vertex 11.0407 -12.2619 1.3
      vertex 13.3488 -9.69846 1.8
      vertex 13.3488 -9.69846 1.3
    endloop
  endfacet
  facet normal -0.743149 0.669126 0
    outer loop
      vertex 13.3488 -9.69846 1.8
      vertex 11.0407 -12.2619 1.3
      vertex 11.0407 -12.2619 1.8
    endloop
  endfacet
  facet normal 0.406733 -0.913547 0
    outer loop
      vertex -8.25 14.2894 1.3
      vertex -5.09878 15.6924 1.8
      vertex -8.25 14.2894 1.8
    endloop
  endfacet
  facet normal 0.406733 -0.913547 0
    outer loop
      vertex -5.09878 15.6924 1.8
      vertex -8.25 14.2894 1.3
      vertex -5.09878 15.6924 1.3
    endloop
  endfacet
  facet normal 0.866028 0.499995 0
    outer loop
      vertex -13.3488 -9.69846 1.8
      vertex -15.0735 -6.71115 1.3
      vertex -15.0735 -6.71115 1.8
    endloop
  endfacet
  facet normal 0.866028 0.499995 0
    outer loop
      vertex -15.0735 -6.71115 1.3
      vertex -13.3488 -9.69846 1.8
      vertex -13.3488 -9.69846 1.3
    endloop
  endfacet
  facet normal 0.743149 0.669126 0
    outer loop
      vertex -11.0407 -12.2619 1.8
      vertex -13.3488 -9.69846 1.3
      vertex -13.3488 -9.69846 1.8
    endloop
  endfacet
  facet normal 0.743149 0.669126 0
    outer loop
      vertex -13.3488 -9.69846 1.3
      vertex -11.0407 -12.2619 1.8
      vertex -11.0407 -12.2619 1.3
    endloop
  endfacet
  facet normal -0.951059 0.309008 0
    outer loop
      vertex 15.0735 -6.71115 1.3
      vertex 16.1394 -3.43054 1.8
      vertex 16.1394 -3.43054 1.3
    endloop
  endfacet
  facet normal -0.951059 0.309008 0
    outer loop
      vertex 16.1394 -3.43054 1.8
      vertex 15.0735 -6.71115 1.3
      vertex 15.0735 -6.71115 1.8
    endloop
  endfacet
  facet normal 0.994521 0.104539 0
    outer loop
      vertex -16.1394 -3.43054 1.8
      vertex -16.5 0 1.3
      vertex -16.5 0 1.8
    endloop
  endfacet
  facet normal 0.994521 0.104539 0
    outer loop
      vertex -16.5 0 1.3
      vertex -16.1394 -3.43054 1.8
      vertex -16.1394 -3.43054 1.3
    endloop
  endfacet
  facet normal 0.743147 -0.669128 0
    outer loop
      vertex -14.1578 10.2862 1.3
      vertex -11.7098 13.005 0
      vertex -11.7098 13.005 1.3
    endloop
  endfacet
  facet normal 0.743147 -0.669128 0
    outer loop
      vertex -11.7098 13.005 0
      vertex -14.1578 10.2862 1.3
      vertex -14.1578 10.2862 0
    endloop
  endfacet
  facet normal -0.951052 -0.309032 0
    outer loop
      vertex 17.1176 3.63845 0
      vertex 15.987 7.11789 1.3
      vertex 15.987 7.11789 0
    endloop
  endfacet
  facet normal -0.951052 -0.309032 0
    outer loop
      vertex 15.987 7.11789 1.3
      vertex 17.1176 3.63845 0
      vertex 17.1176 3.63845 1.3
    endloop
  endfacet
  facet normal -0.994522 -0.104524 0
    outer loop
      vertex 17.5 0 0
      vertex 17.1176 3.63845 1.3
      vertex 17.1176 3.63845 0
    endloop
  endfacet
  facet normal -0.994522 -0.104524 0
    outer loop
      vertex 17.1176 3.63845 1.3
      vertex 17.5 0 0
      vertex 17.5 0 1.3
    endloop
  endfacet
  facet normal -0.866028 -0.499995 0
    outer loop
      vertex 15.987 7.11789 0
      vertex 14.1578 10.2862 1.3
      vertex 14.1578 10.2862 0
    endloop
  endfacet
  facet normal -0.866028 -0.499995 0
    outer loop
      vertex 14.1578 10.2862 1.3
      vertex 15.987 7.11789 0
      vertex 15.987 7.11789 1.3
    endloop
  endfacet
  facet normal -0.951052 0.309032 0
    outer loop
      vertex 15.987 -7.11789 0
      vertex 17.1176 -3.63845 1.3
      vertex 17.1176 -3.63845 0
    endloop
  endfacet
  facet normal -0.951052 0.309032 0
    outer loop
      vertex 17.1176 -3.63845 1.3
      vertex 15.987 -7.11789 0
      vertex 15.987 -7.11789 1.3
    endloop
  endfacet
  facet normal 0.866028 0.499995 0
    outer loop
      vertex -14.1578 -10.2862 1.3
      vertex -15.987 -7.11789 0
      vertex -15.987 -7.11789 1.3
    endloop
  endfacet
  facet normal 0.866028 0.499995 0
    outer loop
      vertex -15.987 -7.11789 0
      vertex -14.1578 -10.2862 1.3
      vertex -14.1578 -10.2862 0
    endloop
  endfacet
  facet normal -0.994522 0.104524 0
    outer loop
      vertex 17.1176 -3.63845 0
      vertex 17.5 0 1.3
      vertex 17.5 0 0
    endloop
  endfacet
  facet normal -0.994522 0.104524 0
    outer loop
      vertex 17.5 0 1.3
      vertex 17.1176 -3.63845 0
      vertex 17.1176 -3.63845 1.3
    endloop
  endfacet
  facet normal 0.587782 -0.80902 0
    outer loop
      vertex -11.7098 13.005 0
      vertex -8.75 15.1554 1.3
      vertex -11.7098 13.005 1.3
    endloop
  endfacet
  facet normal 0.587782 -0.80902 0
    outer loop
      vertex -8.75 15.1554 1.3
      vertex -11.7098 13.005 0
      vertex -8.75 15.1554 0
    endloop
  endfacet
  facet normal -0.743147 -0.669128 0
    outer loop
      vertex 14.1578 10.2862 0
      vertex 11.7098 13.005 1.3
      vertex 11.7098 13.005 0
    endloop
  endfacet
  facet normal -0.743147 -0.669128 0
    outer loop
      vertex 11.7098 13.005 1.3
      vertex 14.1578 10.2862 0
      vertex 14.1578 10.2862 1.3
    endloop
  endfacet
  facet normal -0.40675 -0.91354 0
    outer loop
      vertex 5.4078 16.6435 0
      vertex 8.75 15.1554 1.3
      vertex 5.4078 16.6435 1.3
    endloop
  endfacet
  facet normal -0.40675 -0.91354 -0
    outer loop
      vertex 8.75 15.1554 1.3
      vertex 5.4078 16.6435 0
      vertex 8.75 15.1554 0
    endloop
  endfacet
  facet normal 0 -1 0
    outer loop
      vertex -1.82925 17.4041 0
      vertex 1.82925 17.4041 1.3
      vertex -1.82925 17.4041 1.3
    endloop
  endfacet
  facet normal 0 -1 -0
    outer loop
      vertex 1.82925 17.4041 1.3
      vertex -1.82925 17.4041 0
      vertex 1.82925 17.4041 0
    endloop
  endfacet
  facet normal -0.743147 0.669128 0
    outer loop
      vertex 11.7098 -13.005 0
      vertex 14.1578 -10.2862 1.3
      vertex 14.1578 -10.2862 0
    endloop
  endfacet
  facet normal -0.743147 0.669128 0
    outer loop
      vertex 14.1578 -10.2862 1.3
      vertex 11.7098 -13.005 0
      vertex 11.7098 -13.005 1.3
    endloop
  endfacet
  facet normal 0.2079 0.97815 -0
    outer loop
      vertex -1.82925 -17.4041 0
      vertex -5.4078 -16.6435 1.3
      vertex -1.82925 -17.4041 1.3
    endloop
  endfacet
  facet normal 0.2079 0.97815 0
    outer loop
      vertex -5.4078 -16.6435 1.3
      vertex -1.82925 -17.4041 0
      vertex -5.4078 -16.6435 0
    endloop
  endfacet
  facet normal -0.866028 0.499995 0
    outer loop
      vertex 14.1578 -10.2862 0
      vertex 15.987 -7.11789 1.3
      vertex 15.987 -7.11789 0
    endloop
  endfacet
  facet normal -0.866028 0.499995 0
    outer loop
      vertex 15.987 -7.11789 1.3
      vertex 14.1578 -10.2862 0
      vertex 14.1578 -10.2862 1.3
    endloop
  endfacet
  facet normal 0.40675 0.91354 -0
    outer loop
      vertex -5.4078 -16.6435 0
      vertex -8.75 -15.1554 1.3
      vertex -5.4078 -16.6435 1.3
    endloop
  endfacet
  facet normal 0.40675 0.91354 0
    outer loop
      vertex -8.75 -15.1554 1.3
      vertex -5.4078 -16.6435 0
      vertex -8.75 -15.1554 0
    endloop
  endfacet
  facet normal 0.40675 -0.91354 0
    outer loop
      vertex -8.75 15.1554 0
      vertex -5.4078 16.6435 1.3
      vertex -8.75 15.1554 1.3
    endloop
  endfacet
  facet normal 0.40675 -0.91354 0
    outer loop
      vertex -5.4078 16.6435 1.3
      vertex -8.75 15.1554 0
      vertex -5.4078 16.6435 0
    endloop
  endfacet
  facet normal 0.951052 -0.309032 0
    outer loop
      vertex -17.1176 3.63845 1.3
      vertex -15.987 7.11789 0
      vertex -15.987 7.11789 1.3
    endloop
  endfacet
  facet normal 0.951052 -0.309032 0
    outer loop
      vertex -15.987 7.11789 0
      vertex -17.1176 3.63845 1.3
      vertex -17.1176 3.63845 0
    endloop
  endfacet
  facet normal -0.2079 0.97815 0
    outer loop
      vertex 5.4078 -16.6435 0
      vertex 1.82925 -17.4041 1.3
      vertex 5.4078 -16.6435 1.3
    endloop
  endfacet
  facet normal -0.2079 0.97815 0
    outer loop
      vertex 1.82925 -17.4041 1.3
      vertex 5.4078 -16.6435 0
      vertex 1.82925 -17.4041 0
    endloop
  endfacet
  facet normal -0.2079 -0.97815 0
    outer loop
      vertex 1.82925 17.4041 0
      vertex 5.4078 16.6435 1.3
      vertex 1.82925 17.4041 1.3
    endloop
  endfacet
  facet normal -0.2079 -0.97815 -0
    outer loop
      vertex 5.4078 16.6435 1.3
      vertex 1.82925 17.4041 0
      vertex 5.4078 16.6435 0
    endloop
  endfacet
  facet normal -0.40675 0.91354 0
    outer loop
      vertex 8.75 -15.1554 0
      vertex 5.4078 -16.6435 1.3
      vertex 8.75 -15.1554 1.3
    endloop
  endfacet
  facet normal -0.40675 0.91354 0
    outer loop
      vertex 5.4078 -16.6435 1.3
      vertex 8.75 -15.1554 0
      vertex 5.4078 -16.6435 0
    endloop
  endfacet
  facet normal 0.951052 0.309032 0
    outer loop
      vertex -15.987 -7.11789 1.3
      vertex -17.1176 -3.63845 0
      vertex -17.1176 -3.63845 1.3
    endloop
  endfacet
  facet normal 0.951052 0.309032 0
    outer loop
      vertex -17.1176 -3.63845 0
      vertex -15.987 -7.11789 1.3
      vertex -15.987 -7.11789 0
    endloop
  endfacet
  facet normal 0.994522 -0.104524 0
    outer loop
      vertex -17.5 0 1.3
      vertex -17.1176 3.63845 0
      vertex -17.1176 3.63845 1.3
    endloop
  endfacet
  facet normal 0.994522 -0.104524 0
    outer loop
      vertex -17.1176 3.63845 0
      vertex -17.5 0 1.3
      vertex -17.5 0 0
    endloop
  endfacet
  facet normal 0.2079 -0.97815 0
    outer loop
      vertex -5.4078 16.6435 0
      vertex -1.82925 17.4041 1.3
      vertex -5.4078 16.6435 1.3
    endloop
  endfacet
  facet normal 0.2079 -0.97815 0
    outer loop
      vertex -1.82925 17.4041 1.3
      vertex -5.4078 16.6435 0
      vertex -1.82925 17.4041 0
    endloop
  endfacet
  facet normal -0.587782 -0.80902 0
    outer loop
      vertex 8.75 15.1554 0
      vertex 11.7098 13.005 1.3
      vertex 8.75 15.1554 1.3
    endloop
  endfacet
  facet normal -0.587782 -0.80902 -0
    outer loop
      vertex 11.7098 13.005 1.3
      vertex 8.75 15.1554 0
      vertex 11.7098 13.005 0
    endloop
  endfacet
  facet normal 0 0 -1
    outer loop
      vertex 16.5 0 1.3
      vertex 17.5 0 1.3
      vertex 17.1176 -3.63845 1.3
    endloop
  endfacet
  facet normal 0 0 -1
    outer loop
      vertex 17.5 0 1.3
      vertex 16.5 0 1.3
      vertex 17.1176 3.63845 1.3
    endloop
  endfacet
  facet normal 0 0 -1
    outer loop
      vertex 17.1176 -3.63845 1.3
      vertex 16.1394 -3.43054 1.3
      vertex 16.5 0 1.3
    endloop
  endfacet
  facet normal 0 0 -1
    outer loop
      vertex 15.987 -7.11789 1.3
      vertex 16.1394 -3.43054 1.3
      vertex 17.1176 -3.63845 1.3
    endloop
  endfacet
  facet normal 0 0 -1
    outer loop
      vertex 15.987 -7.11789 1.3
      vertex 15.0735 -6.71115 1.3
      vertex 16.1394 -3.43054 1.3
    endloop
  endfacet
  facet normal 0 0 -1
    outer loop
      vertex 14.1578 -10.2862 1.3
      vertex 15.0735 -6.71115 1.3
      vertex 15.987 -7.11789 1.3
    endloop
  endfacet
  facet normal 0 0 -1
    outer loop
      vertex 14.1578 -10.2862 1.3
      vertex 13.3488 -9.69846 1.3
      vertex 15.0735 -6.71115 1.3
    endloop
  endfacet
  facet normal 0 0 -1
    outer loop
      vertex 11.7098 -13.005 1.3
      vertex 13.3488 -9.69846 1.3
      vertex 14.1578 -10.2862 1.3
    endloop
  endfacet
  facet normal 0 0 -1
    outer loop
      vertex 11.7098 -13.005 1.3
      vertex 11.0407 -12.2619 1.3
      vertex 13.3488 -9.69846 1.3
    endloop
  endfacet
  facet normal 0 0 -1
    outer loop
      vertex 8.75 -15.1554 1.3
      vertex 11.0407 -12.2619 1.3
      vertex 11.7098 -13.005 1.3
    endloop
  endfacet
  facet normal 0 0 -1
    outer loop
      vertex 8.75 -15.1554 1.3
      vertex 8.25 -14.2894 1.3
      vertex 11.0407 -12.2619 1.3
    endloop
  endfacet
  facet normal 0 0 -1
    outer loop
      vertex 5.4078 -16.6435 1.3
      vertex 8.25 -14.2894 1.3
      vertex 8.75 -15.1554 1.3
    endloop
  endfacet
  facet normal 0 0 -1
    outer loop
      vertex 5.4078 -16.6435 1.3
      vertex 5.09878 -15.6924 1.3
      vertex 8.25 -14.2894 1.3
    endloop
  endfacet
  facet normal 0 0 -1
    outer loop
      vertex 1.82925 -17.4041 1.3
      vertex 5.09878 -15.6924 1.3
      vertex 5.4078 -16.6435 1.3
    endloop
  endfacet
  facet normal 0 0 -1
    outer loop
      vertex 1.82925 -17.4041 1.3
      vertex 1.72472 -16.4096 1.3
      vertex 5.09878 -15.6924 1.3
    endloop
  endfacet
  facet normal 0 0 -1
    outer loop
      vertex 1.82925 -17.4041 1.3
      vertex -1.72472 -16.4096 1.3
      vertex 1.72472 -16.4096 1.3
    endloop
  endfacet
  facet normal 0 0 -1
    outer loop
      vertex -1.82925 -17.4041 1.3
      vertex -1.72472 -16.4096 1.3
      vertex 1.82925 -17.4041 1.3
    endloop
  endfacet
  facet normal 0 0 -1
    outer loop
      vertex -1.82925 -17.4041 1.3
      vertex -5.09878 -15.6924 1.3
      vertex -1.72472 -16.4096 1.3
    endloop
  endfacet
  facet normal 0 0 -1
    outer loop
      vertex -5.4078 -16.6435 1.3
      vertex -5.09878 -15.6924 1.3
      vertex -1.82925 -17.4041 1.3
    endloop
  endfacet
  facet normal 0 0 -1
    outer loop
      vertex -5.4078 -16.6435 1.3
      vertex -8.25 -14.2894 1.3
      vertex -5.09878 -15.6924 1.3
    endloop
  endfacet
  facet normal 0 0 -1
    outer loop
      vertex -8.75 -15.1554 1.3
      vertex -8.25 -14.2894 1.3
      vertex -5.4078 -16.6435 1.3
    endloop
  endfacet
  facet normal 0 0 -1
    outer loop
      vertex -8.75 -15.1554 1.3
      vertex -11.0407 -12.2619 1.3
      vertex -8.25 -14.2894 1.3
    endloop
  endfacet
  facet normal 0 0 -1
    outer loop
      vertex -11.7098 -13.005 1.3
      vertex -11.0407 -12.2619 1.3
      vertex -8.75 -15.1554 1.3
    endloop
  endfacet
  facet normal 0 0 -1
    outer loop
      vertex -11.7098 -13.005 1.3
      vertex -13.3488 -9.69846 1.3
      vertex -11.0407 -12.2619 1.3
    endloop
  endfacet
  facet normal 0 0 -1
    outer loop
      vertex -14.1578 -10.2862 1.3
      vertex -13.3488 -9.69846 1.3
      vertex -11.7098 -13.005 1.3
    endloop
  endfacet
  facet normal 0 0 -1
    outer loop
      vertex -14.1578 -10.2862 1.3
      vertex -15.0735 -6.71115 1.3
      vertex -13.3488 -9.69846 1.3
    endloop
  endfacet
  facet normal 0 0 -1
    outer loop
      vertex -15.987 -7.11789 1.3
      vertex -15.0735 -6.71115 1.3
      vertex -14.1578 -10.2862 1.3
    endloop
  endfacet
  facet normal 0 0 -1
    outer loop
      vertex -15.987 -7.11789 1.3
      vertex -16.1394 -3.43054 1.3
      vertex -15.0735 -6.71115 1.3
    endloop
  endfacet
  facet normal 0 0 -1
    outer loop
      vertex -17.1176 -3.63845 1.3
      vertex -16.1394 -3.43054 1.3
      vertex -15.987 -7.11789 1.3
    endloop
  endfacet
  facet normal -0 0 -1
    outer loop
      vertex -16.1394 -3.43054 1.3
      vertex -17.1176 -3.63845 1.3
      vertex -16.5 0 1.3
    endloop
  endfacet
  facet normal 0 0 -1
    outer loop
      vertex 16.1394 3.43054 1.3
      vertex 17.1176 3.63845 1.3
      vertex 16.5 0 1.3
    endloop
  endfacet
  facet normal 0 0 -1
    outer loop
      vertex 16.1394 3.43054 1.3
      vertex 15.987 7.11789 1.3
      vertex 17.1176 3.63845 1.3
    endloop
  endfacet
  facet normal 0 0 -1
    outer loop
      vertex 15.0735 6.71115 1.3
      vertex 15.987 7.11789 1.3
      vertex 16.1394 3.43054 1.3
    endloop
  endfacet
  facet normal 0 0 -1
    outer loop
      vertex 15.0735 6.71115 1.3
      vertex 14.1578 10.2862 1.3
      vertex 15.987 7.11789 1.3
    endloop
  endfacet
  facet normal 0 0 -1
    outer loop
      vertex 13.3488 9.69846 1.3
      vertex 14.1578 10.2862 1.3
      vertex 15.0735 6.71115 1.3
    endloop
  endfacet
  facet normal 0 0 -1
    outer loop
      vertex 13.3488 9.69846 1.3
      vertex 11.7098 13.005 1.3
      vertex 14.1578 10.2862 1.3
    endloop
  endfacet
  facet normal 0 0 -1
    outer loop
      vertex 11.0407 12.2619 1.3
      vertex 11.7098 13.005 1.3
      vertex 13.3488 9.69846 1.3
    endloop
  endfacet
  facet normal 0 0 -1
    outer loop
      vertex 11.0407 12.2619 1.3
      vertex 8.75 15.1554 1.3
      vertex 11.7098 13.005 1.3
    endloop
  endfacet
  facet normal 0 0 -1
    outer loop
      vertex 8.25 14.2894 1.3
      vertex 8.75 15.1554 1.3
      vertex 11.0407 12.2619 1.3
    endloop
  endfacet
  facet normal 0 0 -1
    outer loop
      vertex 8.25 14.2894 1.3
      vertex 5.4078 16.6435 1.3
      vertex 8.75 15.1554 1.3
    endloop
  endfacet
  facet normal 0 0 -1
    outer loop
      vertex 5.09878 15.6924 1.3
      vertex 5.4078 16.6435 1.3
      vertex 8.25 14.2894 1.3
    endloop
  endfacet
  facet normal 0 0 -1
    outer loop
      vertex 5.09878 15.6924 1.3
      vertex 1.82925 17.4041 1.3
      vertex 5.4078 16.6435 1.3
    endloop
  endfacet
  facet normal 0 0 -1
    outer loop
      vertex 1.72472 16.4096 1.3
      vertex 1.82925 17.4041 1.3
      vertex 5.09878 15.6924 1.3
    endloop
  endfacet
  facet normal 0 0 -1
    outer loop
      vertex -1.72472 16.4096 1.3
      vertex 1.82925 17.4041 1.3
      vertex 1.72472 16.4096 1.3
    endloop
  endfacet
  facet normal 0 0 -1
    outer loop
      vertex -1.72472 16.4096 1.3
      vertex -1.82925 17.4041 1.3
      vertex 1.82925 17.4041 1.3
    endloop
  endfacet
  facet normal 0 0 -1
    outer loop
      vertex -5.09878 15.6924 1.3
      vertex -1.82925 17.4041 1.3
      vertex -1.72472 16.4096 1.3
    endloop
  endfacet
  facet normal 0 0 -1
    outer loop
      vertex -5.09878 15.6924 1.3
      vertex -5.4078 16.6435 1.3
      vertex -1.82925 17.4041 1.3
    endloop
  endfacet
  facet normal 0 0 -1
    outer loop
      vertex -8.25 14.2894 1.3
      vertex -5.4078 16.6435 1.3
      vertex -5.09878 15.6924 1.3
    endloop
  endfacet
  facet normal 0 0 -1
    outer loop
      vertex -8.25 14.2894 1.3
      vertex -8.75 15.1554 1.3
      vertex -5.4078 16.6435 1.3
    endloop
  endfacet
  facet normal 0 0 -1
    outer loop
      vertex -11.0407 12.2619 1.3
      vertex -8.75 15.1554 1.3
      vertex -8.25 14.2894 1.3
    endloop
  endfacet
  facet normal 0 0 -1
    outer loop
      vertex -11.0407 12.2619 1.3
      vertex -11.7098 13.005 1.3
      vertex -8.75 15.1554 1.3
    endloop
  endfacet
  facet normal 0 0 -1
    outer loop
      vertex -13.3488 9.69846 1.3
      vertex -11.7098 13.005 1.3
      vertex -11.0407 12.2619 1.3
    endloop
  endfacet
  facet normal 0 0 -1
    outer loop
      vertex -13.3488 9.69846 1.3
      vertex -14.1578 10.2862 1.3
      vertex -11.7098 13.005 1.3
    endloop
  endfacet
  facet normal 0 0 -1
    outer loop
      vertex -15.0735 6.71115 1.3
      vertex -14.1578 10.2862 1.3
      vertex -13.3488 9.69846 1.3
    endloop
  endfacet
  facet normal 0 0 -1
    outer loop
      vertex -15.0735 6.71115 1.3
      vertex -15.987 7.11789 1.3
      vertex -14.1578 10.2862 1.3
    endloop
  endfacet
  facet normal 0 0 -1
    outer loop
      vertex -16.1394 3.43054 1.3
      vertex -15.987 7.11789 1.3
      vertex -15.0735 6.71115 1.3
    endloop
  endfacet
  facet normal 0 0 -1
    outer loop
      vertex -17.1176 3.63845 1.3
      vertex -16.1394 3.43054 1.3
      vertex -16.5 0 1.3
    endloop
  endfacet
  facet normal 0 0 -1
    outer loop
      vertex -17.5 0 1.3
      vertex -16.5 0 1.3
      vertex -17.1176 -3.63845 1.3
    endloop
  endfacet
  facet normal 0 0 -1
    outer loop
      vertex -16.1394 3.43054 1.3
      vertex -17.1176 3.63845 1.3
      vertex -15.987 7.11789 1.3
    endloop
  endfacet
  facet normal 0 0 -1
    outer loop
      vertex -16.5 0 1.3
      vertex -17.5 0 1.3
      vertex -17.1176 3.63845 1.3
    endloop
  endfacet
  facet normal -0.587782 0.80902 0
    outer loop
      vertex 11.7098 -13.005 0
      vertex 8.75 -15.1554 1.3
      vertex 11.7098 -13.005 1.3
    endloop
  endfacet
  facet normal -0.587782 0.80902 0
    outer loop
      vertex 8.75 -15.1554 1.3
      vertex 11.7098 -13.005 0
      vertex 8.75 -15.1554 0
    endloop
  endfacet
  facet normal 0.994522 0.104524 0
    outer loop
      vertex -17.1176 -3.63845 1.3
      vertex -17.5 0 0
      vertex -17.5 0 1.3
    endloop
  endfacet
  facet normal 0.994522 0.104524 0
    outer loop
      vertex -17.5 0 0
      vertex -17.1176 -3.63845 1.3
      vertex -17.1176 -3.63845 0
    endloop
  endfacet
  facet normal 0 1 -0
    outer loop
      vertex 1.82925 -17.4041 0
      vertex -1.82925 -17.4041 1.3
      vertex 1.82925 -17.4041 1.3
    endloop
  endfacet
  facet normal 0 1 0
    outer loop
      vertex -1.82925 -17.4041 1.3
      vertex 1.82925 -17.4041 0
      vertex -1.82925 -17.4041 0
    endloop
  endfacet
  facet normal 0.743147 0.669128 0
    outer loop
      vertex -11.7098 -13.005 1.3
      vertex -14.1578 -10.2862 0
      vertex -14.1578 -10.2862 1.3
    endloop
  endfacet
  facet normal 0.743147 0.669128 0
    outer loop
      vertex -14.1578 -10.2862 0
      vertex -11.7098 -13.005 1.3
      vertex -11.7098 -13.005 0
    endloop
  endfacet
  facet normal 0.587782 0.80902 -0
    outer loop
      vertex -8.75 -15.1554 0
      vertex -11.7098 -13.005 1.3
      vertex -8.75 -15.1554 1.3
    endloop
  endfacet
  facet normal 0.587782 0.80902 0
    outer loop
      vertex -11.7098 -13.005 1.3
      vertex -8.75 -15.1554 0
      vertex -11.7098 -13.005 0
    endloop
  endfacet
  facet normal 0.866028 -0.499995 0
    outer loop
      vertex -15.987 7.11789 1.3
      vertex -14.1578 10.2862 0
      vertex -14.1578 10.2862 1.3
    endloop
  endfacet
  facet normal 0.866028 -0.499995 0
    outer loop
      vertex -14.1578 10.2862 0
      vertex -15.987 7.11789 1.3
      vertex -15.987 7.11789 0
    endloop
  endfacet
  facet normal -1 0 0
    outer loop
      vertex 9 -27.5 2.5
      vertex 9 -25.7 6
      vertex 9 -25.7 2.5
    endloop
  endfacet
  facet normal -1 -0 0
    outer loop
      vertex 9 -25.7 6
      vertex 9 -27.5 2.5
      vertex 9 -27.5 6
    endloop
  endfacet
  facet normal 0 0 -1
    outer loop
      vertex 9 -27.5 6
      vertex 2.5 -27 6
      vertex 9 -25.7 6
    endloop
  endfacet
  facet normal 0 0 -1
    outer loop
      vertex -4.5 -27.5 6
      vertex 2.5 -27 6
      vertex 9 -27.5 6
    endloop
  endfacet
  facet normal 0 0 -1
    outer loop
      vertex -4.5 -25.7 6
      vertex -2.5 -27 6
      vertex -4.5 -27.5 6
    endloop
  endfacet
  facet normal -0 0 -1
    outer loop
      vertex 2.5 -27 6
      vertex -4.5 -27.5 6
      vertex -2.5 -27 6
    endloop
  endfacet
  facet normal 0 0 -1
    outer loop
      vertex 2.5 -25.7 6
      vertex 9 -25.7 6
      vertex 2.5 -27 6
    endloop
  endfacet
  facet normal 0 0 0
    outer loop
      vertex -2.5 -25.7 6
      vertex 9 -25.7 6
      vertex 2.5 -25.7 6
    endloop
  endfacet
  facet normal 0 0 -0
    outer loop
      vertex -2.5 -25.7 6
      vertex -4.5 -25.7 6
      vertex 9 -25.7 6
    endloop
  endfacet
  facet normal 0 0 -1
    outer loop
      vertex -2.5 -27 6
      vertex -4.5 -25.7 6
      vertex -2.5 -25.7 6
    endloop
  endfacet
  facet normal -0 0 1
    outer loop
      vertex -4.5 -25.7 2.5
      vertex 9 -27.5 2.5
      vertex 9 -25.7 2.5
    endloop
  endfacet
  facet normal 0 0 1
    outer loop
      vertex 9 -27.5 2.5
      vertex -4.5 -25.7 2.5
      vertex -4.5 -27.5 2.5
    endloop
  endfacet
  facet normal 1 -0 0
    outer loop
      vertex -4.5 -27.5 6
      vertex -4.5 -25.7 2.5
      vertex -4.5 -25.7 6
    endloop
  endfacet
  facet normal 1 0 0
    outer loop
      vertex -4.5 -25.7 2.5
      vertex -4.5 -27.5 6
      vertex -4.5 -27.5 2.5
    endloop
  endfacet
  facet normal 0 0 -1
    outer loop
      vertex -2.5 -25.8 4.5
      vertex 2.5 -25.7 4.5
      vertex 2.5 -25.8 4.5
    endloop
  endfacet
  facet normal -0 0 -1
    outer loop
      vertex 2.5 -25.7 4.5
      vertex -2.5 -25.8 4.5
      vertex -2.5 -25.7 4.5
    endloop
  endfacet
  facet normal -1 0 0
    outer loop
      vertex -2.5 -25.8 4.5
      vertex -2.5 -25.7 6
      vertex -2.5 -25.7 4.5
    endloop
  endfacet
  facet normal -1 0 0
    outer loop
      vertex -2.5 -27 5.3
      vertex -2.5 -25.7 6
      vertex -2.5 -25.8 4.5
    endloop
  endfacet
  facet normal -1 -0 0
    outer loop
      vertex -2.5 -25.7 6
      vertex -2.5 -27 5.3
      vertex -2.5 -27 6
    endloop
  endfacet
  facet normal 0 1 -0
    outer loop
      vertex 2.5 -25.7 4.5
      vertex -2.5 -25.7 6
      vertex 2.5 -25.7 6
    endloop
  endfacet
  facet normal 0 1 0
    outer loop
      vertex -2.5 -25.7 6
      vertex 2.5 -25.7 4.5
      vertex -2.5 -25.7 4.5
    endloop
  endfacet
  facet normal 0 -1 0
    outer loop
      vertex -2.5 -27 5.3
      vertex 2.5 -27 6
      vertex -2.5 -27 6
    endloop
  endfacet
  facet normal 0 -1 -0
    outer loop
      vertex 2.5 -27 6
      vertex -2.5 -27 5.3
      vertex 2.5 -27 5.3
    endloop
  endfacet
  facet normal 1 0 0
    outer loop
      vertex 2.5 -25.7 6
      vertex 2.5 -25.8 4.5
      vertex 2.5 -25.7 4.5
    endloop
  endfacet
  facet normal 1 0 0
    outer loop
      vertex 2.5 -27 5.3
      vertex 2.5 -25.7 6
      vertex 2.5 -27 6
    endloop
  endfacet
  facet normal 1 0 0
    outer loop
      vertex 2.5 -25.7 6
      vertex 2.5 -27 5.3
      vertex 2.5 -25.8 4.5
    endloop
  endfacet
  facet normal 0 -0.5547 -0.83205
    outer loop
      vertex -2.5 -27 5.3
      vertex 2.5 -25.8 4.5
      vertex 2.5 -27 5.3
    endloop
  endfacet
  facet normal -0 -0.5547 -0.83205
    outer loop
      vertex 2.5 -25.8 4.5
      vertex -2.5 -27 5.3
      vertex -2.5 -25.8 4.5
    endloop
  endfacet
endsolid OpenSCAD_Model
